<?xml version="1.0" standalone="no"?>
<!DOCTYPE svg PUBLIC "-//W3C//DTD SVG 1.1//EN" "http://www.w3.org/Graphics/SVG/1.1/DTD/svg11.dtd" >
<svg xmlns="http://www.w3.org/2000/svg" xmlns:xlink="http://www.w3.org/1999/xlink" version="1.1">
<metadata>
Created by FontForge 20150804 at Thu Nov  2 22:36:22 2017
 By cloudconvert
The successful Gill Sans\\u00AE  typeface was designed by the English artist and type designer Eric Gill and originally issued by Monotype in 1928 to 1930. The roots of Gill Sans can be traced to the typeface that Gill's teacher, Edward Johnston, designed for the signage of the London Underground Railway in 1918. Gill\\u00B4 s alphabet is a humanist sans serif classical in proportion and contains what have become known as his signature flared capital R and eyeglass lowercase g. The Gill Sans Nova family is an extensive update that rationalizes some of the idiosyncratic features from mechanized typesetting systems and fills in the gaps in the series to satisfy today\\u2019 s demands designer needs for use on screen and in print. Gill Sans Nova features and extensive, harmonized character set and a variety of wonderful useful OpenType typographic features.
</metadata>
<defs>
<font id="GillSansNova-SemiBold" horiz-adv-x="333" >
  <font-face 
    font-family="Gill Sans Nova"
    font-weight="600"
    font-stretch="normal"
    units-per-em="1000"
    panose-1="2 11 7 2 2 2 4 2 2 3"
    ascent="729"
    descent="-271"
    x-height="466"
    cap-height="682"
    bbox="-442 -262 1219 957"
    underline-thickness="50"
    underline-position="-125"
    unicode-range="U+000D-FEFF"
  />
<missing-glyph horiz-adv-x="500" 
d="M12 670h475v-670h-475v670zM88 623l162 -245l161 245h-323zM60 579v-487l161 243zM440 91v488l-162 -244zM411 48l-161 244l-162 -244h323z" />
    <glyph glyph-name="IJ" unicode="IJ" horiz-adv-x="577" 
d="M74 682h132v-682h-132v682zM371 682h132v-654c0 -93 -16 -159 -48 -197c-31 -39 -82 -58 -152 -58c-16 0 -29 1 -45 4l-23 115c61 0 98 9 113 26s23 57 23 121v643z" />
    <glyph glyph-name="ij" unicode="ij" horiz-adv-x="493" 
d="M123 536c-35 0 -59 29 -59 60s24 59 59 59c33 0 60 -27 60 -59c0 -33 -27 -60 -60 -60zM65 466h117v-466h-117v466zM310 466h117v-499c0 -105 -31 -166 -123 -199l-64 87c53 19 70 51 70 120v491zM367 536c-35 0 -60 29 -60 60s27 59 60 59c35 0 59 -30 59 -59
c0 -35 -24 -60 -59 -60z" />
    <glyph glyph-name="f_i" unicode="fi" horiz-adv-x="544" 
d="M321 681v-97c-16 7 -32 9 -51 9c-47 0 -75 -27 -75 -107v-20h96v-93h-96v-373h-118v373h-69v93h69v17c0 132 67 207 176 207c23 0 46 -3 68 -9zM423 536c-33 0 -59 29 -59 60s24 59 59 59c33 0 60 -27 60 -59c0 -33 -27 -60 -60 -60zM365 466h117v-466h-117v466z" />
    <glyph glyph-name="f_l" unicode="fl" horiz-adv-x="544" 
d="M321 681v-96c-19 7 -32 8 -51 8c-47 0 -75 -27 -75 -107v-20h96v-93h-96v-373h-118v373h-69v93h69v17c0 131 63 207 176 207c27 0 45 -2 68 -9zM365 682h117v-682h-117v682z" />
    <glyph glyph-name="ff" unicode="ff" horiz-adv-x="578" 
d="M326 682v-96c-16 4 -34 7 -51 7c-56 0 -80 -28 -80 -108v-19h167v31c0 120 73 194 181 194c24 0 42 -2 65 -9v-96c-20 4 -38 7 -54 7c-43 0 -75 -26 -75 -95v-32h83v-93h-83v-373h-117v373h-167v-373h-118v373h-69v93h69v29c0 125 72 196 183 196c26 0 48 -3 66 -9z" />
    <glyph glyph-name="ffi" unicode="ffi" horiz-adv-x="825" 
d="M326 682v-96c-16 4 -34 7 -51 7c-56 0 -80 -28 -80 -108v-19h167v31c0 120 73 194 181 194c24 0 38 -2 61 -9v-96l-27 5c-7 1 -15 2 -23 2c-43 0 -75 -26 -75 -95v-32h97v-93h-97v-373h-117v373h-167v-373h-118v373h-69v93h69v29c0 125 72 196 183 196c26 0 48 -3 66 -9z
M705 536c-35 0 -60 29 -60 60s25 59 60 59c33 0 59 -27 59 -59c0 -33 -27 -60 -59 -60zM646 466h117v-466h-117v466z" />
    <glyph glyph-name="ffl" unicode="ffl" horiz-adv-x="826" 
d="M649 682h116v-682h-116v682zM326 682v-95c-16 4 -33 6 -51 6c-56 0 -80 -28 -80 -108v-19h167v31c0 120 73 194 181 194c24 0 38 -2 61 -9v-95c-21 4 -34 6 -50 6c-43 0 -75 -26 -75 -95v-32h99v-93h-99v-373h-117v373h-167v-373h-118v373h-69v93h69v29
c0 125 72 196 183 196c26 0 48 -3 66 -9z" />
    <glyph glyph-name=".notdef" horiz-adv-x="500" 
d="M12 670h475v-670h-475v670zM88 623l162 -245l161 245h-323zM60 579v-487l161 243zM440 91v488l-162 -244zM411 48l-161 244l-162 -244h323z" />
    <glyph glyph-name="NULL" horiz-adv-x="0" 
 />
    <glyph glyph-name="NULL" horiz-adv-x="0" 
 />
    <glyph glyph-name="CR" unicode="&#xd;" horiz-adv-x="284" 
 />
    <glyph glyph-name="space" unicode=" " horiz-adv-x="284" 
 />
    <glyph glyph-name="exclam" unicode="!" horiz-adv-x="281" 
d="M69 545c0 100 32 146 72 146c43 0 71 -43 71 -143c0 -55 -8 -126 -24 -213c-15 -86 -31 -129 -46 -129c-18 0 -35 47 -50 141s-23 160 -23 198zM65 66c0 43 32 76 75 76s75 -35 75 -76c0 -40 -31 -75 -74 -75c-40 0 -76 31 -76 75z" />
    <glyph glyph-name="quotedbl" unicode="&#x22;" horiz-adv-x="401" 
d="M39 682h131v-119l-26 -138h-79l-26 138v119zM230 682h132v-119l-26 -138h-80l-26 138v119z" />
    <glyph glyph-name="numbersign" unicode="#" horiz-adv-x="667" 
d="M230 692h86l-39 -191h181l40 191h85l-40 -191h84v-83h-101l-32 -157h133v-84h-151l-40 -189h-85l39 189h-181l-40 -189h-86l40 189h-83v84h100l33 157h-133v83h150zM259 418l-33 -157h182l32 157h-181z" />
    <glyph glyph-name="dollar" unicode="$" horiz-adv-x="530" 
d="M311 -9v-109h-83v109c-60 7 -130 32 -193 71v128c57 -51 121 -88 193 -100v199c-125 35 -195 97 -195 190c0 46 18 86 55 120s83 54 140 60v49h83v-49c65 -11 119 -30 162 -63v-123c-43 41 -102 74 -162 89v-180c127 -37 192 -106 192 -199c0 -51 -18 -94 -53 -129
s-81 -56 -139 -63zM311 259v-169c53 12 79 39 79 81c0 33 -11 56 -79 88zM228 407v156c-53 -7 -83 -40 -83 -75s23 -60 83 -81z" />
    <glyph glyph-name="percent" unicode="%" horiz-adv-x="710" 
d="M33 536c0 43 15 80 46 110c31 31 68 46 111 46s79 -15 110 -46c31 -30 47 -67 47 -110c0 -42 -15 -79 -45 -110s-67 -47 -112 -47c-43 0 -80 15 -111 46s-46 68 -46 111zM546 692h83l-461 -701h-83zM190 612c-41 0 -73 -34 -73 -77s30 -76 73 -76s74 33 74 76
s-33 77 -74 77zM362 148c0 43 15 80 46 110c31 31 68 46 111 46s79 -15 110 -46c31 -30 47 -67 47 -110c0 -41 -15 -78 -46 -110c-30 -31 -67 -47 -111 -47c-43 0 -80 15 -111 46s-46 68 -46 111zM518 224c-41 0 -72 -34 -72 -77c0 -41 30 -76 73 -76c41 0 74 33 74 76
s-34 77 -75 77z" />
    <glyph glyph-name="ampersand" unicode="&#x26;" horiz-adv-x="689" 
d="M191 356c-43 43 -76 94 -76 154c0 45 17 84 51 117s80 49 138 49c55 0 100 -16 133 -47c34 -31 51 -67 51 -108c0 -64 -35 -118 -128 -178l95 -106c27 27 51 62 73 106h119c-25 -60 -65 -125 -122 -185l141 -158h-159l-68 78c-87 -65 -151 -87 -214 -87
c-55 0 -100 16 -137 47c-36 32 -54 70 -54 115c0 35 10 67 31 97c21 31 63 66 126 106zM297 414c57 32 85 66 85 103s-31 66 -75 66c-43 0 -72 -28 -72 -61c0 -31 21 -67 62 -108zM370 155l-113 127c-72 -45 -102 -77 -102 -118c0 -35 31 -71 86 -71c49 0 89 29 129 62z" />
    <glyph glyph-name="quotesingle" unicode="'" horiz-adv-x="216" 
d="M43 682h131v-119l-25 -138h-81l-25 138v119z" />
    <glyph glyph-name="parenleft" unicode="(" horiz-adv-x="343" 
d="M267 691h79c-58 -74 -99 -147 -124 -218s-37 -153 -37 -245c0 -181 56 -335 161 -460h-79c-143 143 -212 296 -212 460c0 161 60 302 212 463z" />
    <glyph glyph-name="parenright" unicode=")" horiz-adv-x="343" 
d="M76 -232h-79c58 75 99 149 124 220s37 152 37 243c0 177 -54 331 -161 460h79c85 -90 141 -169 169 -237c29 -68 43 -143 43 -224s-16 -158 -49 -231s-87 -150 -163 -231z" />
    <glyph glyph-name="asterisk" unicode="*" horiz-adv-x="468" 
d="M273 634l-29 -111c9 -1 17 -5 23 -12l84 87c17 17 33 28 46 28c17 0 44 -31 44 -56c0 -23 -11 -30 -46 -41l-120 -37c1 -1 2 -3 2 -5v-7c0 -6 -1 -10 -2 -13l107 -30c39 -11 59 -27 59 -48c0 -24 -25 -55 -44 -55c-13 0 -30 11 -51 32l-80 83c-5 -5 -13 -10 -22 -11
l25 -95c7 -31 9 -49 9 -61c0 -23 -10 -39 -45 -39c-29 0 -44 16 -44 40c0 19 7 37 11 58l25 97c-9 1 -16 5 -21 11l-82 -82c-25 -25 -38 -32 -51 -32c-19 0 -44 31 -44 54c0 19 12 33 55 45l112 33c-1 3 -2 7 -2 12c0 7 1 11 2 13l-118 37c-39 12 -48 24 -48 40
c0 12 5 25 16 38s20 20 29 20c11 0 28 -12 48 -31l83 -85c5 6 12 10 21 12l-32 133c-2 6 -3 12 -3 19c0 27 12 40 45 40c31 0 44 -14 44 -37c0 -7 -1 -21 -6 -44z" />
    <glyph glyph-name="plus" unicode="+" horiz-adv-x="564" 
d="M45 292v105h185v188h104v-188h185v-105h-185v-188h-104v188h-185z" />
    <glyph glyph-name="comma" unicode="," horiz-adv-x="246" 
d="M45 -135v22c33 24 52 54 52 114c-39 11 -60 36 -60 75c0 41 34 76 74 76c52 0 87 -52 87 -112c0 -83 -56 -154 -153 -175z" />
    <glyph glyph-name="hyphen" unicode="-" horiz-adv-x="377" 
d="M54 290h268v-117h-268v117z" />
    <glyph glyph-name="period" unicode="." horiz-adv-x="239" 
d="M119 -12c-40 0 -74 33 -74 74c0 43 35 74 74 74c40 0 74 -33 74 -73s-31 -75 -74 -75z" />
    <glyph glyph-name="slash" unicode="/" horiz-adv-x="296" 
d="M200 691h87l-190 -700h-87z" />
    <glyph glyph-name="zero" unicode="0" horiz-adv-x="530" 
d="M265 -9c-70 0 -127 32 -170 96c-43 65 -64 149 -64 254c0 107 23 192 68 255c46 63 102 95 169 95s123 -33 166 -98s65 -148 65 -251c0 -107 -22 -192 -66 -256c-44 -63 -100 -95 -168 -95zM371 339c0 160 -39 245 -107 245c-60 0 -105 -78 -105 -243
c0 -160 37 -242 105 -242c65 0 107 77 107 240z" />
    <glyph glyph-name="one" unicode="1" horiz-adv-x="530" 
d="M302 691h68v-691h-126v498l-112 -90l-71 87z" />
    <glyph glyph-name="two" unicode="2" horiz-adv-x="530" 
d="M248 113h247v-113h-459v9c84 84 152 166 205 245s80 147 80 202c0 79 -52 120 -111 120c-56 0 -112 -33 -157 -90v136c64 49 121 69 182 69s111 -20 150 -60c40 -40 60 -90 60 -150c0 -43 -13 -90 -38 -143c-25 -52 -78 -127 -159 -225z" />
    <glyph glyph-name="three" unicode="3" horiz-adv-x="530" 
d="M353 359c67 -27 100 -88 100 -164c0 -60 -21 -109 -64 -147c-42 -38 -94 -57 -157 -57c-60 0 -116 15 -165 42v121c48 -35 99 -54 150 -54c64 0 106 34 106 98c0 71 -51 105 -140 105v97c92 0 133 36 133 96c0 52 -40 94 -108 94c-43 0 -81 -13 -124 -38v106
c53 25 103 33 148 33c127 0 210 -68 210 -183c0 -68 -33 -118 -89 -149z" />
    <glyph glyph-name="four" unicode="4" horiz-adv-x="530" 
d="M348 688h74v-394h77v-95h-77v-199h-123v199h-284v71zM299 294v205l-161 -205h161z" />
    <glyph glyph-name="five" unicode="5" horiz-adv-x="530" 
d="M101 682h331v-105h-223v-155c7 0 14 0 21 1c71 0 128 -20 170 -60c43 -40 64 -91 64 -152c0 -65 -21 -118 -64 -159s-98 -61 -167 -61c-67 0 -125 17 -182 49v116c45 -31 108 -55 159 -55c72 0 126 46 126 110c0 35 -15 63 -44 84s-64 31 -104 31c-29 0 -70 -5 -87 -13
v369z" />
    <glyph glyph-name="six" unicode="6" horiz-adv-x="530" 
d="M313 691l93 -68c-87 -60 -162 -134 -199 -229c31 15 58 20 89 20c56 0 103 -19 142 -57s58 -87 58 -147c0 -61 -21 -113 -64 -156c-42 -42 -95 -63 -159 -63c-71 0 -128 23 -170 70s-63 109 -63 184c0 169 92 319 273 446zM373 208c0 68 -44 104 -108 104
c-59 0 -102 -34 -102 -90c0 -73 52 -120 109 -120c65 0 101 46 101 106z" />
    <glyph glyph-name="seven" unicode="7" horiz-adv-x="530" 
d="M48 682h463v-9l-302 -682l-109 42l236 537h-288v112z" />
    <glyph glyph-name="eight" unicode="8" horiz-adv-x="530" 
d="M398 349c65 -35 100 -92 100 -163c0 -55 -21 -101 -63 -139c-42 -37 -98 -56 -169 -56s-127 19 -170 57s-64 84 -64 138c0 65 33 127 101 163c-64 49 -82 94 -82 149s21 100 62 137s93 56 155 56c63 0 115 -19 155 -56c41 -37 61 -83 61 -136c0 -60 -23 -107 -86 -150z
M375 196c0 60 -46 104 -111 104c-64 0 -109 -46 -109 -105c0 -63 45 -105 112 -105c64 0 108 45 108 106zM363 492c0 55 -36 99 -96 99s-96 -45 -96 -98c0 -56 45 -99 97 -99s95 43 95 98z" />
    <glyph glyph-name="nine" unicode="9" horiz-adv-x="530" 
d="M220 -9l-94 66c99 68 167 149 196 233c-26 -12 -54 -18 -83 -18c-62 0 -112 19 -149 57c-37 39 -55 86 -55 143c0 62 22 114 65 156s96 63 157 63c69 0 125 -24 169 -71c45 -47 67 -108 67 -183c0 -80 -25 -161 -76 -244c-50 -82 -116 -149 -197 -202zM370 461
c0 69 -48 120 -111 120c-60 0 -101 -44 -101 -108c0 -57 38 -103 98 -103c71 0 114 32 114 91z" />
    <glyph glyph-name="colon" unicode=":" horiz-adv-x="246" 
d="M122 -12c-39 0 -73 33 -73 74c0 43 34 74 73 74c41 0 75 -33 75 -73s-32 -75 -75 -75zM122 326c-39 0 -73 33 -73 74c0 43 34 74 73 74c41 0 75 -33 75 -73s-32 -75 -75 -75z" />
    <glyph glyph-name="semicolon" unicode=";" horiz-adv-x="252" 
d="M53 -135v22c33 24 52 54 52 114c-39 11 -60 36 -60 75c0 43 34 76 74 76c52 0 87 -52 87 -112c0 -83 -56 -154 -153 -175zM126 326c-40 0 -74 33 -74 74c0 43 35 74 74 74c40 0 74 -33 74 -73s-33 -75 -74 -75z" />
    <glyph glyph-name="less" unicode="&#x3c;" horiz-adv-x="564" 
d="M45 298v77l474 214v-114l-327 -139c21 -11 47 -22 76 -34l178 -73c29 -12 53 -23 73 -33v-114z" />
    <glyph glyph-name="equal" unicode="=" horiz-adv-x="564" 
d="M45 167v105h474v-105h-474zM45 416v105h474v-105h-474z" />
    <glyph glyph-name="greater" unicode="&#x3e;" horiz-adv-x="564" 
d="M45 82v114l326 141c-36 17 -92 41 -167 71s-128 52 -159 67v114l474 -214v-77z" />
    <glyph glyph-name="question" unicode="?" horiz-adv-x="350" 
d="M51 567l39 116c23 7 44 8 67 8c87 0 150 -53 150 -145c0 -53 -26 -108 -77 -167s-77 -112 -77 -160c0 -10 2 -18 5 -23c-48 11 -70 34 -70 81c0 39 15 82 44 130c30 48 45 87 45 117c0 36 -23 61 -66 61c-19 0 -37 -5 -60 -18zM148 -9c-41 0 -74 31 -74 74s37 75 74 75
c40 0 75 -33 75 -74s-34 -75 -75 -75z" />
    <glyph glyph-name="at" unicode="@" horiz-adv-x="928" 
d="M736 14l41 -61c-80 -64 -185 -103 -349 -103c-119 0 -215 37 -286 110s-107 171 -107 296s43 230 129 313c87 83 198 125 333 125c118 0 214 -31 287 -92s110 -141 110 -239c0 -93 -25 -166 -75 -220s-115 -81 -196 -81c-59 0 -91 31 -98 82c-48 -52 -96 -82 -157 -82
c-84 0 -134 69 -134 172c0 82 25 148 76 199s121 77 212 77c63 0 111 -10 152 -22l-50 -274c-3 -15 -4 -30 -4 -39c0 -20 10 -30 29 -30c45 0 82 20 111 61s44 94 44 159c0 77 -28 139 -83 184c-55 46 -130 69 -224 69c-115 0 -206 -33 -273 -100
c-67 -66 -100 -153 -100 -262c0 -105 28 -186 83 -245c56 -58 131 -87 226 -87c129 0 224 29 303 90zM526 225l35 193c-11 3 -36 7 -57 7c-49 0 -89 -17 -120 -52c-30 -34 -45 -77 -45 -129c0 -57 21 -99 73 -99c41 0 79 35 114 80z" />
    <glyph glyph-name="A" unicode="A" horiz-adv-x="717" 
d="M295 685h119l303 -685h-135l-79 181h-292l-76 -181h-135zM354 526l-101 -247h207z" />
    <glyph glyph-name="B" unicode="B" horiz-adv-x="618" 
d="M74 682h240c141 0 220 -69 220 -172c0 -68 -37 -118 -101 -145c103 -25 156 -93 156 -177c0 -123 -97 -188 -261 -188h-254v682zM205 587v-194h71c89 0 128 40 128 100c0 65 -35 94 -116 94h-83zM205 95h98c103 0 152 31 152 102c0 64 -46 102 -155 102h-95v-204z" />
    <glyph glyph-name="C" unicode="C" horiz-adv-x="718" 
d="M665 637v-129c-76 45 -151 70 -232 70c-75 0 -136 -23 -183 -70c-47 -46 -70 -102 -70 -169c0 -65 23 -121 69 -167c46 -45 107 -68 182 -68c87 0 164 26 239 75v-128c-79 -43 -162 -60 -254 -60c-111 0 -200 33 -269 100s-103 150 -103 249c0 101 35 184 106 251
s161 100 268 100c79 0 159 -17 247 -54z" />
    <glyph glyph-name="D" unicode="D" horiz-adv-x="767" 
d="M74 682h273c116 0 208 -31 275 -93c67 -61 101 -142 101 -243c0 -107 -33 -191 -100 -253c-66 -62 -157 -93 -272 -93h-277v682zM206 105h135c161 0 247 85 247 238c0 144 -86 236 -257 236h-125v-474z" />
    <glyph glyph-name="E" unicode="E" horiz-adv-x="557" 
d="M74 682h424v-103h-292v-181h281v-103h-281v-191h301v-104h-433v682z" />
    <glyph glyph-name="F" unicode="F" horiz-adv-x="513" 
d="M74 682h403v-104h-271v-170h271v-104h-271v-304h-132v682z" />
    <glyph glyph-name="G" unicode="G" horiz-adv-x="756" 
d="M672 636v-120c-76 45 -156 67 -236 67c-75 0 -137 -24 -185 -71c-47 -47 -71 -104 -71 -172c0 -69 23 -126 70 -172c47 -45 108 -68 181 -68c19 0 37 1 53 3s42 9 78 20v123h-118v102h242v-301c-92 -40 -177 -56 -266 -56c-115 0 -207 33 -275 99
c-67 67 -101 149 -101 247c0 99 35 183 104 251c69 69 160 103 273 103c49 0 92 -5 129 -14s78 -22 122 -41z" />
    <glyph glyph-name="H" unicode="H" horiz-adv-x="771" 
d="M74 682h132v-281h359v281h132v-682h-132v287h-359v-287h-132v682z" />
    <glyph glyph-name="I" unicode="I" horiz-adv-x="280" 
d="M74 682h132v-682h-132v682z" />
    <glyph glyph-name="J" unicode="J" horiz-adv-x="285" 
d="M79 682h132v-654c0 -93 -16 -159 -48 -197c-31 -39 -82 -58 -152 -58c-16 0 -29 1 -45 4l-23 115c61 0 98 9 113 26s23 57 23 121v643z" />
    <glyph glyph-name="K" unicode="K" horiz-adv-x="695" 
d="M74 682h133v-313l273 313h154l-282 -322l345 -360h-171l-319 334v-334h-133v682z" />
    <glyph glyph-name="L" unicode="L" horiz-adv-x="532" 
d="M74 682h133v-569h308v-113h-441v682z" />
    <glyph glyph-name="M" unicode="M" horiz-adv-x="833" 
d="M74 682h122l221 -272l220 272h121v-682h-132v487l-201 -252h-18l-203 252v-487h-130v682z" />
    <glyph glyph-name="N" unicode="N" horiz-adv-x="813" 
d="M74 682h113l423 -481v481h129v-682h-116l-420 478v-478h-129v682z" />
    <glyph glyph-name="O" unicode="O" horiz-adv-x="832" 
d="M412 -9c-108 0 -196 33 -265 100s-103 150 -103 249c0 98 34 181 101 249s158 102 271 102c108 0 197 -33 267 -100c70 -66 105 -149 105 -249c0 -99 -35 -183 -104 -250s-159 -101 -272 -101zM413 110c71 0 129 21 173 62c45 42 67 99 67 170c0 64 -22 118 -66 163
c-43 45 -100 67 -170 67c-72 0 -130 -22 -173 -65s-65 -99 -65 -167c0 -66 22 -121 67 -165c45 -43 101 -65 167 -65z" />
    <glyph glyph-name="P" unicode="P" horiz-adv-x="582" 
d="M74 682h245c147 0 235 -72 235 -200c0 -125 -84 -199 -240 -199h-108v-283h-132v682zM206 582v-198h88c87 0 125 30 125 99c0 64 -33 99 -128 99h-85z" />
    <glyph glyph-name="Q" unicode="Q" horiz-adv-x="832" 
d="M527 8c84 -43 154 -59 206 -59c16 0 27 2 50 10l3 -5l-111 -106c-57 8 -120 26 -188 54s-120 54 -157 77s-70 41 -101 55c-91 40 -190 160 -185 306c0 101 35 184 104 251s159 100 268 100c113 0 203 -34 270 -102c68 -68 102 -150 102 -247c0 -81 -24 -153 -72 -214
s-111 -101 -189 -120zM653 341c0 65 -22 120 -66 164c-44 45 -101 67 -172 67c-70 0 -127 -22 -171 -65c-43 -43 -65 -98 -65 -167c0 -67 23 -122 68 -165s102 -65 169 -65c70 0 127 21 171 64s66 99 66 167z" />
    <glyph glyph-name="R" unicode="R" horiz-adv-x="644" 
d="M74 682h232c67 0 121 -18 162 -54c41 -35 62 -83 62 -143c0 -77 -37 -137 -113 -169c17 -9 32 -22 47 -37s39 -49 72 -102l105 -177h-149l-94 162c-48 83 -85 125 -154 125h-38v-287h-132v682zM206 582v-198h67c91 0 123 36 123 100c0 61 -37 98 -110 98h-80z" />
    <glyph glyph-name="S" unicode="S" horiz-adv-x="514" 
d="M442 640v-127c-55 47 -112 73 -173 73c-60 0 -91 -29 -91 -70c0 -39 28 -73 85 -103c57 -29 106 -61 146 -95c41 -33 61 -80 61 -140c0 -55 -20 -100 -61 -135s-92 -52 -155 -52c-72 0 -141 21 -202 60v138c60 -61 124 -92 191 -92c60 0 95 34 95 77c0 29 -12 52 -36 71
c-23 19 -60 41 -109 68c-97 55 -145 114 -145 199c0 52 20 95 60 128c40 34 92 51 155 51c67 0 128 -19 179 -51z" />
    <glyph glyph-name="T" unicode="T" horiz-adv-x="646" 
d="M17 682h612v-112h-241v-570h-132v570h-239v112z" />
    <glyph glyph-name="U" unicode="U" horiz-adv-x="759" 
d="M66 682h132v-383c0 -135 62 -194 183 -194c119 0 180 57 180 193v384h132v-386c0 -195 -107 -305 -312 -305c-204 0 -315 104 -315 303v388z" />
    <glyph glyph-name="V" unicode="V" horiz-adv-x="647" 
d="M0 682h135l190 -452l188 452h134l-293 -688h-58z" />
    <glyph glyph-name="W" unicode="W" horiz-adv-x="1083" 
d="M0 682h134l173 -440l180 440h110l180 -440l173 440h133l-281 -688h-52l-208 507l-211 -507h-52z" />
    <glyph glyph-name="X" unicode="X" horiz-adv-x="755" 
d="M21 682h165l191 -235c29 37 58 75 89 112l100 123h162l-269 -328l293 -354h-164l-120 145c-51 62 -82 99 -91 111c-23 -29 -52 -65 -87 -107l-123 -149h-164l292 354z" />
    <glyph glyph-name="Y" unicode="Y" horiz-adv-x="647" 
d="M0 682h148l174 -229l176 229h149l-256 -337v-345h-133v344z" />
    <glyph glyph-name="Z" unicode="Z" horiz-adv-x="672" 
d="M42 682h610l-408 -571h408v-111h-639l409 571h-380v111z" />
    <glyph glyph-name="bracketleft" unicode="[" horiz-adv-x="370" 
d="M84 682h269v-92h-150v-722h150v-91h-269v905z" />
    <glyph glyph-name="backslash" unicode="\" horiz-adv-x="296" 
d="M10 691h87l190 -700h-87z" />
    <glyph glyph-name="bracketright" unicode="]" horiz-adv-x="370" 
d="M18 682h268v-905h-268v91h149v722h-149v92z" />
    <glyph glyph-name="asciicircum" unicode="^" horiz-adv-x="564" 
d="M42 340l203 342h72l204 -342h-112l-128 222l-126 -222h-113z" />
    <glyph glyph-name="underscore" unicode="_" horiz-adv-x="500" 
d="M-6 -67h512v-78h-512v78z" />
    <glyph glyph-name="grave" unicode="`" horiz-adv-x="334" 
d="M34 683h136l72 -157h-72z" />
    <glyph glyph-name="a" unicode="a" horiz-adv-x="470" 
d="M400 326v-214c0 -19 4 -31 19 -31c9 0 25 7 46 21v-76c-41 -23 -78 -35 -111 -35c-37 0 -60 13 -69 48c-40 -32 -84 -48 -131 -48c-71 0 -122 48 -122 115c0 73 61 118 162 151l89 29v19c0 56 -29 76 -80 76c-56 0 -113 -26 -160 -79v109c47 44 105 64 176 64
c117 0 181 -60 181 -149zM283 101v127c-93 -33 -135 -57 -135 -104c0 -35 24 -59 59 -59c25 0 50 12 76 36z" />
    <glyph glyph-name="b" unicode="b" horiz-adv-x="549" 
d="M62 29v653h117v-248c35 27 80 41 127 41c63 0 114 -23 151 -69s56 -103 56 -171c0 -75 -23 -135 -68 -179s-107 -66 -184 -66c-72 0 -135 15 -199 39zM179 340v-242c24 -9 52 -13 83 -13c79 0 131 55 131 148c0 91 -49 147 -118 147c-31 0 -65 -13 -96 -40z" />
    <glyph glyph-name="c" unicode="c" horiz-adv-x="460" 
d="M416 444v-109c-48 28 -89 37 -128 37c-77 0 -131 -61 -131 -138c0 -81 54 -141 142 -141c43 0 81 11 126 30v-104c-51 -19 -94 -28 -143 -28c-77 0 -137 23 -181 68c-43 45 -65 102 -65 170c0 73 22 133 66 178s102 68 173 68c47 0 86 -8 141 -31z" />
    <glyph glyph-name="d" unicode="d" horiz-adv-x="550" 
d="M371 682h117v-682h-197c-165 0 -255 87 -255 235c0 70 21 127 63 172c43 45 97 68 164 68c43 0 77 -9 108 -25v232zM308 96h63v260c-27 16 -56 24 -88 24c-73 0 -127 -54 -127 -146s51 -138 152 -138z" />
    <glyph glyph-name="e" unicode="e" horiz-adv-x="517" 
d="M482 232v-18h-327c8 -77 64 -129 144 -129c60 0 120 20 173 53v-94c-60 -37 -120 -53 -193 -53c-71 0 -130 23 -175 68s-68 104 -68 177c0 71 21 129 64 173s100 66 169 66c62 0 113 -22 153 -65s60 -103 60 -178zM155 278h214c-3 68 -39 109 -103 109
c-63 0 -108 -45 -111 -109z" />
    <glyph glyph-name="f" unicode="f" horiz-adv-x="295" 
d="M326 681v-97c-18 6 -37 9 -56 9c-47 0 -75 -27 -75 -107v-20h83v-93h-83v-373h-118v373h-69v93h69v17c0 132 67 207 176 207c27 0 51 -3 73 -9z" />
    <glyph glyph-name="g" unicode="g" horiz-adv-x="471" 
d="M464 466v-82h-90c33 -27 47 -61 47 -98c0 -44 -16 -79 -47 -105s-70 -42 -117 -48c-47 -5 -71 -18 -71 -37c0 -21 31 -35 94 -44c125 -16 177 -62 177 -138c0 -96 -85 -147 -226 -147c-151 0 -223 57 -223 134c0 55 27 100 115 119c-28 15 -45 36 -45 59
c0 33 24 60 73 72c-76 28 -111 83 -111 147c0 103 76 168 216 168h208zM317 298c0 45 -36 81 -87 81c-53 0 -87 -40 -87 -84c0 -51 41 -81 86 -81c51 0 88 32 88 84zM354 -94c0 43 -54 65 -135 65c-61 0 -106 -20 -106 -64c0 -43 42 -64 121 -64c76 0 120 22 120 63z" />
    <glyph glyph-name="h" unicode="h" horiz-adv-x="546" 
d="M489 289v-289h-117v279c0 67 -27 101 -82 101c-41 0 -72 -18 -111 -67v-313h-117v682h117v-279c42 48 92 72 150 72c104 0 160 -67 160 -186z" />
    <glyph glyph-name="i" unicode="i" horiz-adv-x="240" 
d="M120 536c-35 0 -59 29 -59 60s24 59 59 59c33 0 60 -27 60 -59c0 -33 -27 -60 -60 -60zM62 466h117v-466h-117v466z" />
    <glyph glyph-name="j" unicode="j" horiz-adv-x="240" 
d="M62 466h117v-499c0 -105 -31 -166 -123 -199l-64 87c53 19 70 51 70 120v491zM119 536c-35 0 -60 29 -60 60s27 59 60 59c35 0 59 -30 59 -59c0 -35 -24 -60 -59 -60z" />
    <glyph glyph-name="k" unicode="k" horiz-adv-x="535" 
d="M62 682h118v-682h-118v682zM377 466h140l-192 -224l226 -242h-153l-215 239z" />
    <glyph glyph-name="l" unicode="l" horiz-adv-x="240" 
d="M62 682h117v-682h-117v682z" />
    <glyph glyph-name="m" unicode="m" horiz-adv-x="846" 
d="M467 388c59 61 103 87 163 87c104 0 159 -66 159 -185v-290h-116v273c0 67 -31 106 -87 106c-35 0 -72 -22 -103 -63v-316h-116v269c0 76 -26 111 -83 111c-39 0 -71 -19 -106 -64v-316h-116v466h116v-63c48 49 90 72 147 72c64 0 115 -28 142 -87z" />
    <glyph glyph-name="n" unicode="n" horiz-adv-x="546" 
d="M489 283v-283h-117v271c0 83 -38 109 -86 109c-41 0 -77 -23 -107 -68v-312h-117v466h117v-62c44 49 98 71 149 71c108 0 161 -75 161 -192z" />
    <glyph glyph-name="o" unicode="o" horiz-adv-x="580" 
d="M289 -9c-76 0 -137 23 -184 69c-46 47 -69 104 -69 171c0 71 23 129 69 175s108 69 186 69c77 0 138 -23 184 -68c47 -45 70 -103 70 -174c0 -74 -25 -133 -74 -177c-49 -43 -110 -65 -182 -65zM291 88c80 0 132 58 132 145c0 89 -55 145 -136 145
c-76 0 -130 -54 -130 -145c0 -92 55 -145 134 -145z" />
    <glyph glyph-name="p" unicode="p" horiz-adv-x="551" 
d="M179 17v-246h-117v695h190c171 0 263 -80 263 -235c0 -68 -21 -125 -64 -171c-42 -46 -97 -69 -164 -69c-40 0 -64 3 -108 26zM179 370v-259c24 -16 57 -25 88 -25c73 0 127 61 127 142c0 92 -51 142 -144 142h-71z" />
    <glyph glyph-name="q" unicode="q" horiz-adv-x="549" 
d="M488 466v-695h-117v244c-31 -15 -65 -24 -109 -24c-65 0 -119 22 -162 67s-64 101 -64 167c0 151 95 241 254 241h198zM371 108v262h-67c-97 0 -148 -51 -148 -143c0 -87 51 -141 132 -141c23 0 54 5 83 22z" />
    <glyph glyph-name="r" unicode="r" horiz-adv-x="420" 
d="M421 428l-53 -110c-27 27 -57 42 -84 42c-51 0 -98 -48 -109 -128v-232h-117v466h117v-109c43 79 90 118 141 118c36 0 70 -16 105 -47z" />
    <glyph glyph-name="s" unicode="s" horiz-adv-x="417" 
d="M354 436v-99c-56 33 -94 48 -135 48c-39 0 -55 -16 -55 -33c0 -22 21 -43 64 -63c87 -39 149 -89 149 -161c0 -79 -64 -137 -168 -137c-51 0 -93 8 -164 40v106c48 -35 102 -57 145 -57c47 0 68 19 68 39c0 23 -22 45 -65 66c-43 22 -78 45 -106 69s-42 55 -42 93
c0 36 15 66 45 91s69 37 116 37c53 0 102 -13 148 -39z" />
    <glyph glyph-name="t" unicode="t" horiz-adv-x="386" 
d="M4 389l187 188h8v-111h150v-93h-150v-197c0 -63 21 -85 66 -85c37 0 73 14 104 33v-100c-37 -21 -92 -33 -132 -33c-104 0 -155 53 -155 174v208h-78v16z" />
    <glyph glyph-name="u" unicode="u" horiz-adv-x="546" 
d="M57 466h117v-271c0 -80 30 -110 85 -110c41 0 79 25 108 68v313h117v-466h-117v62c-43 -47 -95 -71 -150 -71c-108 0 -160 70 -160 203v272z" />
    <glyph glyph-name="v" unicode="v" horiz-adv-x="478" 
d="M0 466h127l115 -272l116 272h120l-207 -472h-62z" />
    <glyph glyph-name="w" unicode="w" horiz-adv-x="758" 
d="M0 466h122l109 -266l109 266h80l109 -266l108 266h121l-198 -472h-54l-126 301l-124 -301h-56z" />
    <glyph glyph-name="x" unicode="x" horiz-adv-x="537" 
d="M2 466h145l120 -149l117 149h139l-186 -227l198 -239h-147l-126 155l-121 -155h-138l190 234z" />
    <glyph glyph-name="y" unicode="y" horiz-adv-x="484" 
d="M2 466h129l117 -252l116 252h120l-325 -695h-121l148 315z" />
    <glyph glyph-name="z" unicode="z" horiz-adv-x="460" 
d="M25 466h418v-7l-236 -361h236v-98h-430v7l236 360h-224v99z" />
    <glyph glyph-name="braceleft" unicode="{" horiz-adv-x="350" 
d="M334 692v-93c-41 0 -67 -6 -80 -17c-12 -11 -18 -43 -18 -94v-80c0 -53 -7 -92 -22 -117s-40 -43 -75 -56c68 -24 97 -73 97 -166v-91c0 -45 6 -74 19 -87s39 -19 79 -19v-93c-83 0 -139 13 -166 39c-27 25 -40 73 -40 143v91c0 99 -29 133 -101 136v96
c77 4 101 44 101 137v76c0 60 5 102 15 126c11 25 30 42 57 53c28 11 73 16 134 16z" />
    <glyph glyph-name="bar" unicode="|" horiz-adv-x="270" 
d="M90 685h91v-919h-91v919z" />
    <glyph glyph-name="braceright" unicode="}" horiz-adv-x="350" 
d="M16 599v93c61 0 106 -6 133 -17s46 -28 56 -52c11 -24 16 -66 16 -126v-76c0 -93 25 -133 102 -137v-96c-77 -3 -102 -40 -102 -136v-91c0 -72 -14 -120 -41 -145s-82 -37 -164 -37v93c42 0 69 7 80 22c12 14 18 42 18 84v91c0 93 29 142 97 166c-35 13 -60 31 -75 56
s-22 64 -22 117v80c0 51 -6 83 -19 94c-12 11 -38 17 -79 17z" />
    <glyph glyph-name="asciitilde" unicode="~" horiz-adv-x="564" 
d="M44 264v113c47 45 84 66 135 66c29 0 66 -13 111 -38s80 -38 104 -38c41 0 75 20 126 76v-113c-47 -44 -85 -66 -132 -66c-30 0 -68 13 -114 38c-45 25 -79 38 -101 38c-43 0 -82 -25 -129 -76z" />
    <glyph glyph-name="uni00A0" unicode="&#xa0;" horiz-adv-x="284" 
 />
    <glyph glyph-name="exclamdown" unicode="&#xa1;" horiz-adv-x="281" 
d="M211 -82c0 -101 -25 -147 -72 -147c-43 0 -71 41 -71 144c0 55 8 127 23 215c16 88 32 132 47 132c18 0 35 -47 50 -141c15 -93 23 -161 23 -203zM215 400c0 -43 -32 -76 -75 -76s-75 35 -75 75c0 41 31 76 74 76c40 0 76 -32 76 -75z" />
    <glyph glyph-name="cent" unicode="&#xa2;" horiz-adv-x="530" 
d="M351 471l55 161h51l-59 -172c13 -4 26 -9 41 -16v-109c-26 15 -50 25 -72 31l-92 -265c15 -5 31 -8 48 -8c41 0 79 11 126 30v-104c-51 -19 -95 -28 -143 -28c-23 0 -45 3 -64 8l-64 -188h-51l69 202c-85 33 -137 119 -137 216c0 71 22 130 65 176c44 47 102 70 175 70
c19 0 35 -1 52 -4zM232 121l86 252h-8c-38 0 -69 -13 -94 -40c-24 -27 -36 -60 -36 -99c0 -43 16 -86 52 -113z" />
    <glyph glyph-name="sterling" unicode="&#xa3;" horiz-adv-x="530" 
d="M449 686l61 -120c-15 8 -47 15 -74 15c-79 0 -125 -60 -166 -201h77v-87h-104l-47 -178c13 3 24 4 45 4c71 0 120 -17 163 -17c33 0 60 4 91 21v-115c-35 -12 -56 -17 -96 -17c-84 0 -134 17 -190 17s-106 -4 -169 -17l79 302h-71v87h95c38 115 78 196 120 242
c43 46 91 69 144 69c15 0 30 -2 42 -5z" />
    <glyph glyph-name="currency" unicode="&#xa4;" horiz-adv-x="552" 
d="M26 159l68 67c-20 31 -34 74 -34 114c0 41 14 84 34 115l-68 67l67 69l68 -69c35 24 78 34 115 34c40 0 82 -11 115 -34l68 69l67 -69l-68 -67c23 -35 34 -76 34 -115c0 -42 -11 -80 -34 -114l68 -67l-67 -70l-68 69c-35 -23 -76 -34 -115 -34c-40 0 -80 11 -115 34
l-68 -68zM275 461c-33 0 -61 -12 -84 -36s-35 -52 -35 -85s11 -62 34 -85s52 -35 85 -35s61 12 85 35c24 24 36 52 36 85c0 34 -12 63 -36 86s-52 35 -85 35z" />
    <glyph glyph-name="yen" unicode="&#xa5;" horiz-adv-x="530" 
d="M203 221v76h-175v76h157l-182 309h136l124 -228l127 228h137l-183 -309h158v-76h-174v-76h174v-77h-174v-144h-125v144h-175v77h175z" />
    <glyph glyph-name="brokenbar" unicode="&#xa6;" horiz-adv-x="270" 
d="M90 685h91v-382h-91v382zM90 148h91v-382h-91v382z" />
    <glyph glyph-name="section" unicode="&#xa7;" horiz-adv-x="478" 
d="M390 658v-104c-43 31 -89 44 -130 44c-36 0 -67 -11 -67 -50s42 -89 127 -150s128 -129 128 -205c0 -59 -26 -108 -90 -156c31 -41 42 -75 42 -126c0 -85 -72 -143 -179 -143c-67 0 -110 19 -141 42v105c35 -27 85 -54 133 -54c47 0 70 18 70 47c0 26 -10 50 -29 72
s-50 51 -94 87c-87 72 -130 141 -130 221c0 52 25 96 85 148c-28 31 -38 68 -38 112c0 84 66 143 179 143c59 0 103 -16 134 -33zM171 376c-25 -24 -33 -41 -33 -68c0 -35 15 -67 45 -98c31 -30 71 -67 121 -111c21 19 35 44 35 71c0 31 -11 60 -34 85
c-22 25 -67 66 -134 121z" />
    <glyph glyph-name="dieresis" unicode="&#xa8;" 
d="M130 608c0 -32 -27 -59 -60 -59c-32 0 -59 27 -59 59s27 59 59 59s60 -27 60 -59zM322 608c0 -32 -26 -59 -58 -59c-33 0 -60 27 -60 59s27 59 60 59c32 0 58 -27 58 -59z" />
    <glyph glyph-name="copyright" unicode="&#xa9;" horiz-adv-x="796" 
d="M754 348c0 -95 -35 -179 -104 -250s-152 -106 -251 -106c-97 0 -181 35 -252 105c-70 71 -105 154 -105 251c0 96 35 179 104 250s153 106 252 106c97 0 180 -35 250 -104c71 -69 106 -153 106 -252zM710 349c0 85 -31 159 -92 220s-134 92 -219 92
c-87 0 -161 -31 -222 -93s-91 -135 -91 -220s31 -159 92 -220c62 -61 136 -92 221 -92s158 31 219 92s92 135 92 221zM548 245v-81c-48 -19 -82 -27 -129 -27c-136 0 -221 82 -221 207c0 61 20 111 60 150s93 59 160 59c42 0 85 -8 129 -24v-82c-37 19 -74 28 -111 28
c-88 0 -137 -54 -137 -129c0 -79 55 -129 139 -129c32 0 63 5 110 28z" />
    <glyph glyph-name="ordfeminine" unicode="&#xaa;" horiz-adv-x="317" 
d="M151 691c73 0 115 -30 118 -103v-119c0 -11 3 -16 8 -16c3 0 8 2 13 5l22 12v-52c-28 -15 -46 -23 -73 -23s-37 9 -49 25c-24 -15 -56 -25 -88 -25c-48 0 -81 34 -81 74c0 21 8 39 23 55s63 33 143 52c0 39 -17 51 -50 51c-41 0 -81 -24 -109 -55v79c40 28 79 40 123 40z
M186 466v67l-23 -6c-35 -12 -56 -25 -56 -48c0 -19 13 -31 32 -31c12 0 28 3 47 18z" />
    <glyph glyph-name="guillemotleft" unicode="&#xab;" horiz-adv-x="537" 
d="M174 462h112l-150 -231l150 -231h-112l-150 231zM402 462h112l-149 -231l149 -231h-112l-149 231z" />
    <glyph glyph-name="logicalnot" unicode="&#xac;" horiz-adv-x="564" 
d="M44 397v105h473v-314h-106v209h-367z" />
    <glyph glyph-name="uni00AD" unicode="&#xad;" horiz-adv-x="377" 
d="M54 290h268v-117h-268v117z" />
    <glyph glyph-name="registered" unicode="&#xae;" horiz-adv-x="796" 
d="M754 348c0 -95 -35 -179 -104 -250s-152 -106 -251 -106c-97 0 -181 35 -252 105c-70 71 -105 154 -105 251c0 96 35 179 104 250s153 106 252 106c97 0 180 -35 250 -104c71 -69 106 -153 106 -252zM710 349c0 85 -31 159 -92 220s-134 92 -219 92
c-87 0 -161 -31 -222 -93s-91 -135 -91 -220s31 -159 92 -220c62 -61 136 -92 221 -92s158 31 219 92s92 135 92 221zM238 152v396h180c88 0 137 -41 137 -109c0 -56 -44 -99 -109 -108c33 -11 51 -31 74 -66l72 -113h-105l-54 95c-25 45 -39 59 -79 59h-26v-154h-90z
M328 368h51c47 0 79 18 79 61c0 39 -28 58 -76 58h-54v-119z" />
    <glyph glyph-name="overscore" unicode="&#xaf;" 
d="M23 646h287v-84h-287v84z" />
    <glyph glyph-name="degree" unicode="&#xb0;" horiz-adv-x="397" 
d="M198 417c-38 0 -70 13 -97 40s-40 60 -40 97s13 69 40 96s60 41 97 41s69 -13 96 -39s41 -59 41 -98c0 -38 -14 -70 -41 -97s-59 -40 -96 -40zM270 554c0 40 -33 72 -72 72s-72 -31 -72 -72c0 -40 32 -72 72 -72c39 0 72 32 72 72z" />
    <glyph glyph-name="plusminus" unicode="&#xb1;" horiz-adv-x="564" 
d="M45 349v105h185v174h104v-174h185v-105h-185v-175h-104v175h-185zM45 0v105h474v-105h-474z" />
    <glyph glyph-name="twosuperior" unicode="&#xb2;" 
d="M25 495v10c31 29 66 66 107 111c41 46 61 84 61 114c0 35 -24 56 -60 56c-35 0 -68 -20 -97 -55v84c39 27 73 38 112 38c72 0 131 -43 131 -111c0 -57 -43 -113 -111 -182h140v-65h-283z" />
    <glyph glyph-name="threesuperior" unicode="&#xb3;" 
d="M229 681c36 -17 54 -45 54 -84c0 -60 -55 -107 -134 -107c-36 0 -73 8 -106 23v73c33 -21 64 -32 95 -32c35 0 57 16 57 44c0 32 -20 49 -83 50v57h8c47 0 71 15 71 45c0 24 -22 43 -58 43c-27 0 -54 -8 -79 -23v64c35 13 59 19 92 19c79 0 130 -38 130 -97
c0 -31 -12 -56 -47 -75z" />
    <glyph glyph-name="acute" unicode="&#xb4;" 
d="M167 683h135l-134 -157h-73z" />
    <glyph glyph-name="mu" unicode="&#xb5;" horiz-adv-x="558" 
d="M62 -230v694h116v-312c27 -48 60 -66 92 -66c60 0 96 36 96 96v282h116v-343c0 -28 9 -39 26 -39c13 0 26 6 37 14v-80c-28 -19 -64 -25 -87 -25c-47 0 -74 20 -83 61c-28 -44 -60 -61 -100 -61c-43 0 -70 21 -97 62v-283h-116z" />
    <glyph glyph-name="paragraph" unicode="&#xb6;" horiz-adv-x="594" 
d="M222 -233v510c-132 7 -211 80 -211 201c0 125 83 206 228 206h343v-103h-67v-814h-97v814h-99v-814h-97z" />
    <glyph glyph-name="middot" unicode="&#xb7;" horiz-adv-x="239" 
d="M119 272c-40 0 -74 33 -74 74c0 43 35 74 74 74c40 0 74 -33 74 -73s-31 -75 -74 -75z" />
    <glyph glyph-name="cedilla" unicode="&#xb8;" 
d="M134 9h67l-16 -39c59 -4 88 -30 88 -77c0 -57 -53 -92 -153 -92c-27 0 -51 1 -62 4v59l20 -2c7 0 16 0 25 -1c38 0 57 11 57 34c0 21 -13 32 -39 32c-11 0 -20 -1 -25 -2z" />
    <glyph glyph-name="onesuperior" unicode="&#xb9;" 
d="M176 847h48v-352h-86v229l-48 -38l-41 55z" />
    <glyph glyph-name="ordmasculine" unicode="&#xba;" horiz-adv-x="371" 
d="M24 543c0 41 15 76 44 105c30 29 69 43 116 43s85 -14 116 -42s47 -63 47 -106s-15 -78 -46 -106c-31 -27 -70 -41 -117 -41s-85 14 -115 42s-45 63 -45 105zM185 624c-43 0 -71 -27 -71 -80c0 -52 27 -80 71 -80c43 0 73 27 73 80s-30 80 -73 80z" />
    <glyph glyph-name="guillemotright" unicode="&#xbb;" horiz-adv-x="537" 
d="M23 462h111l150 -231l-150 -231h-111l149 231zM251 462h112l150 -231l-150 -231h-112l150 231z" />
    <glyph glyph-name="onequarter" unicode="&#xbc;" horiz-adv-x="793" 
d="M176 682h48v-352h-86v229l-48 -38l-41 55zM590 691h78l-457 -717h-78zM673 356h52v-199h46v-56h-46v-101h-81v101h-171v41zM644 157v88l-81 -88h81z" />
    <glyph glyph-name="onehalf" unicode="&#xbd;" horiz-adv-x="793" 
d="M176 682h48v-352h-86v229l-48 -38l-41 55zM566 691h78l-457 -717h-78zM486 0v10c27 26 62 62 104 109c43 47 64 86 64 117c0 35 -24 55 -60 55c-35 0 -68 -20 -97 -55v84c39 28 73 38 112 38c72 0 131 -43 131 -111c0 -59 -47 -117 -111 -181h140v-66h-283z" />
    <glyph glyph-name="threequarters" unicode="&#xbe;" horiz-adv-x="793" 
d="M588 691h78l-457 -717h-78zM673 356h52v-199h46v-56h-46v-101h-81v101h-171v41zM644 157v88l-81 -88h81zM229 516c36 -17 54 -45 54 -84c0 -60 -55 -107 -134 -107c-36 0 -73 8 -106 23v73c33 -21 64 -32 95 -32c35 0 57 16 57 44c0 32 -20 49 -83 50v57h8
c47 0 71 15 71 45c0 24 -22 43 -58 43c-27 0 -54 -8 -79 -23v64c35 13 59 19 92 19c79 0 130 -38 130 -97c0 -31 -12 -56 -47 -75z" />
    <glyph glyph-name="questiondown" unicode="&#xbf;" horiz-adv-x="350" 
d="M295 -94l-39 -116c-23 -7 -43 -8 -66 -8c-91 0 -151 55 -151 146c0 52 26 107 77 166c52 59 78 113 78 160c0 10 -2 18 -6 23c48 -11 70 -34 70 -81c0 -39 -15 -82 -44 -131c-29 -48 -44 -87 -44 -116c0 -36 22 -61 65 -61c19 0 37 5 60 18zM199 475c41 0 74 -33 74 -74
c0 -43 -35 -76 -75 -76c-39 0 -74 34 -74 75s32 75 75 75z" />
    <glyph glyph-name="Agrave" unicode="&#xc0;" horiz-adv-x="717" 
d="M295 685h119l303 -685h-135l-79 181h-292l-76 -181h-135zM354 526l-101 -247h207zM211 889h149l83 -156h-75z" />
    <glyph glyph-name="Aacute" unicode="&#xc1;" horiz-adv-x="717" 
d="M295 685h119l303 -685h-135l-79 181h-292l-76 -181h-135zM354 526l-101 -247h207zM276 733l83 156h149l-156 -156h-76z" />
    <glyph glyph-name="Acircumflex" unicode="&#xc2;" horiz-adv-x="717" 
d="M295 685h119l303 -685h-135l-79 181h-292l-76 -181h-135zM354 526l-101 -247h207zM182 733l96 156h160l98 -156h-76l-102 89l-101 -89h-75z" />
    <glyph glyph-name="Atilde" unicode="&#xc3;" horiz-adv-x="717" 
d="M295 685h119l303 -685h-135l-79 181h-292l-76 -181h-135zM354 526l-101 -247h207zM369 845l36 -14c11 -4 20 -6 27 -6c21 0 34 13 37 40h58c0 -84 -43 -128 -98 -128c-20 0 -46 7 -77 20s-53 20 -66 20c-19 0 -33 -11 -36 -40h-60c0 73 40 128 99 128c25 0 53 -11 80 -20
z" />
    <glyph glyph-name="Adieresis" unicode="&#xc4;" horiz-adv-x="717" 
d="M295 685h119l303 -685h-135l-79 181h-292l-76 -181h-135zM354 526l-101 -247h207zM322 813c0 -33 -28 -61 -60 -61c-33 0 -61 28 -61 61c0 32 28 60 61 60c32 0 60 -28 60 -60zM516 813c0 -33 -27 -61 -60 -61c-32 0 -60 28 -60 61s28 60 60 60c33 0 60 -28 60 -60z" />
    <glyph glyph-name="Aring" unicode="&#xc5;" horiz-adv-x="717" 
d="M295 685h119l303 -685h-135l-79 181h-292l-76 -181h-135zM354 526l-101 -247h207zM458 828c0 -56 -44 -98 -99 -98c-56 0 -98 42 -98 98c0 55 42 98 98 98c27 0 51 -10 70 -30c19 -19 29 -42 29 -68zM412 828c0 29 -24 53 -53 53s-52 -24 -52 -53s23 -52 52 -52
s53 23 53 52z" />
    <glyph glyph-name="AE" unicode="&#xc6;" horiz-adv-x="964" 
d="M402 682h501v-103h-285v-180h274v-104h-274v-191h295v-104h-427v286h-189l-168 -286h-139zM486 606l-131 -222h131v222z" />
    <glyph glyph-name="Ccedilla" unicode="&#xc7;" horiz-adv-x="718" 
d="M665 637v-130c-76 44 -151 70 -232 70c-75 0 -136 -23 -183 -70c-47 -46 -70 -102 -70 -168c0 -65 23 -121 69 -167c46 -45 107 -68 182 -68c87 0 164 26 239 75v-128c-75 -40 -153 -57 -240 -60l-8 -21c59 -4 88 -30 88 -77c0 -57 -53 -92 -153 -92c-27 0 -51 1 -62 4
v59l20 -2c7 0 16 0 25 -1c38 0 57 11 57 34c0 21 -13 32 -39 32c-11 0 -20 -1 -25 -2l30 69c-96 10 -173 48 -232 113c-58 66 -87 144 -87 233c0 101 35 184 106 251s161 100 268 100c77 0 160 -18 247 -54z" />
    <glyph glyph-name="Egrave" unicode="&#xc8;" horiz-adv-x="557" 
d="M74 682h424v-103h-292v-181h281v-103h-281v-191h301v-104h-433v682zM137 889h149l83 -156h-75z" />
    <glyph glyph-name="Eacute" unicode="&#xc9;" horiz-adv-x="557" 
d="M74 682h424v-103h-292v-181h281v-103h-281v-191h301v-104h-433v682zM219 733l83 156h149l-156 -156h-76z" />
    <glyph glyph-name="Ecircumflex" unicode="&#xca;" horiz-adv-x="557" 
d="M74 682h424v-103h-292v-181h281v-103h-281v-191h301v-104h-433v682zM108 733l96 156h160l98 -156h-76l-102 89l-101 -89h-75z" />
    <glyph glyph-name="Edieresis" unicode="&#xcb;" horiz-adv-x="557" 
d="M74 682h424v-103h-292v-181h281v-103h-281v-191h301v-104h-433v682zM248 813c0 -33 -28 -61 -60 -61c-33 0 -61 28 -61 61c0 32 28 60 61 60c32 0 60 -28 60 -60zM442 813c0 -33 -27 -61 -60 -61c-32 0 -60 28 -60 61s28 60 60 60c33 0 60 -28 60 -60z" />
    <glyph glyph-name="Igrave" unicode="&#xcc;" horiz-adv-x="280" 
d="M74 682h132v-682h-132v682zM-7 889h149l83 -156h-75z" />
    <glyph glyph-name="Iacute" unicode="&#xcd;" horiz-adv-x="280" 
d="M74 682h132v-682h-132v682zM58 733l83 156h149l-156 -156h-76z" />
    <glyph glyph-name="Icircumflex" unicode="&#xce;" horiz-adv-x="280" 
d="M74 682h132v-682h-132v682zM-36 733l96 156h160l98 -156h-76l-102 89l-101 -89h-75z" />
    <glyph glyph-name="Idieresis" unicode="&#xcf;" horiz-adv-x="280" 
d="M74 682h132v-682h-132v682zM104 813c0 -33 -28 -61 -60 -61c-33 0 -61 28 -61 61c0 32 28 60 61 60c32 0 60 -28 60 -60zM298 813c0 -33 -27 -61 -60 -61c-32 0 -60 28 -60 61s28 60 60 60c33 0 60 -28 60 -60z" />
    <glyph glyph-name="Eth" unicode="&#xd0;" horiz-adv-x="767" 
d="M74 682h273c116 0 208 -31 275 -93c67 -61 101 -142 101 -243c0 -107 -33 -191 -100 -253c-66 -62 -157 -93 -272 -93h-277v302h-74v78h74v302zM206 105h135c161 0 247 85 247 238c0 144 -86 236 -257 236h-125v-199h176v-78h-176v-197z" />
    <glyph glyph-name="Ntilde" unicode="&#xd1;" horiz-adv-x="813" 
d="M74 682h113l423 -481v481h129v-682h-116l-420 478v-478h-129v682zM415 845l36 -14c11 -4 20 -6 27 -6c21 0 34 13 37 40h58c0 -84 -43 -128 -98 -128c-20 0 -46 7 -77 20s-53 20 -66 20c-19 0 -33 -11 -36 -40h-60c0 73 40 128 99 128c25 0 53 -11 80 -20z" />
    <glyph glyph-name="Ograve" unicode="&#xd2;" horiz-adv-x="832" 
d="M412 -9c-108 0 -196 33 -265 100s-103 150 -103 249c0 98 34 181 101 249s158 102 271 102c108 0 197 -33 267 -100c70 -66 105 -149 105 -249c0 -99 -35 -183 -104 -250s-159 -101 -272 -101zM413 110c71 0 129 21 173 62c45 42 67 99 67 170c0 64 -22 118 -66 163
c-43 45 -100 67 -170 67c-72 0 -130 -22 -173 -65s-65 -99 -65 -167c0 -66 22 -121 67 -165c45 -43 101 -65 167 -65zM275 889h149l83 -156h-75z" />
    <glyph glyph-name="Oacute" unicode="&#xd3;" horiz-adv-x="832" 
d="M412 -9c-108 0 -196 33 -265 100s-103 150 -103 249c0 98 34 181 101 249s158 102 271 102c108 0 197 -33 267 -100c70 -66 105 -149 105 -249c0 -99 -35 -183 -104 -250s-159 -101 -272 -101zM413 110c71 0 129 21 173 62c45 42 67 99 67 170c0 64 -22 118 -66 163
c-43 45 -100 67 -170 67c-72 0 -130 -22 -173 -65s-65 -99 -65 -167c0 -66 22 -121 67 -165c45 -43 101 -65 167 -65zM333 733l83 156h149l-156 -156h-76z" />
    <glyph glyph-name="Ocircumflex" unicode="&#xd4;" horiz-adv-x="832" 
d="M412 -9c-108 0 -196 33 -265 100s-103 150 -103 249c0 98 34 181 101 249s158 102 271 102c108 0 197 -33 267 -100c70 -66 105 -149 105 -249c0 -99 -35 -183 -104 -250s-159 -101 -272 -101zM413 110c71 0 129 21 173 62c45 42 67 99 67 170c0 64 -22 118 -66 163
c-43 45 -100 67 -170 67c-72 0 -130 -22 -173 -65s-65 -99 -65 -167c0 -66 22 -121 67 -165c45 -43 101 -65 167 -65zM239 733l96 156h160l98 -156h-76l-102 89l-101 -89h-75z" />
    <glyph glyph-name="Otilde" unicode="&#xd5;" horiz-adv-x="832" 
d="M412 -9c-108 0 -196 33 -265 100s-103 150 -103 249c0 98 34 181 101 249s158 102 271 102c108 0 197 -33 267 -100c70 -66 105 -149 105 -249c0 -99 -35 -183 -104 -250s-159 -101 -272 -101zM413 110c71 0 129 21 173 62c45 42 67 99 67 170c0 64 -22 118 -66 163
c-43 45 -100 67 -170 67c-72 0 -130 -22 -173 -65s-65 -99 -65 -167c0 -66 22 -121 67 -165c45 -43 101 -65 167 -65zM426 845l36 -14c11 -4 20 -6 27 -6c21 0 34 13 37 40h58c0 -84 -43 -128 -98 -128c-20 0 -46 7 -77 20s-53 20 -66 20c-19 0 -33 -11 -36 -40h-60
c0 73 40 128 99 128c25 0 53 -11 80 -20z" />
    <glyph glyph-name="Odieresis" unicode="&#xd6;" horiz-adv-x="832" 
d="M412 -9c-108 0 -196 33 -265 100s-103 150 -103 249c0 98 34 181 101 249s158 102 271 102c108 0 197 -33 267 -100c70 -66 105 -149 105 -249c0 -99 -35 -183 -104 -250s-159 -101 -272 -101zM413 110c71 0 129 21 173 62c45 42 67 99 67 170c0 64 -22 118 -66 163
c-43 45 -100 67 -170 67c-72 0 -130 -22 -173 -65s-65 -99 -65 -167c0 -66 22 -121 67 -165c45 -43 101 -65 167 -65zM379 813c0 -33 -28 -61 -60 -61c-33 0 -61 28 -61 61c0 32 28 60 61 60c32 0 60 -28 60 -60zM573 813c0 -33 -27 -61 -60 -61c-32 0 -60 28 -60 61
s28 60 60 60c33 0 60 -28 60 -60z" />
    <glyph glyph-name="multiply" unicode="&#xd7;" horiz-adv-x="588" 
d="M56 180l163 166l-161 161l73 74l162 -161l165 163l74 -73l-165 -164l163 -164l-74 -74l-163 165l-164 -167z" />
    <glyph glyph-name="Oslash" unicode="&#xd8;" horiz-adv-x="832" 
d="M85 26l61 65c-67 64 -102 153 -102 249c0 98 34 181 101 249s158 102 271 102c87 0 159 -22 219 -61l61 65l49 -46l-57 -62c64 -64 100 -149 100 -245c0 -99 -35 -183 -104 -250s-159 -101 -272 -101c-84 0 -156 21 -213 58l-64 -69zM236 187l312 350
c-35 23 -79 35 -131 35c-72 0 -130 -22 -173 -67s-65 -100 -65 -165c0 -61 22 -113 57 -153zM597 491l-310 -348c37 -22 79 -33 124 -33c77 0 136 23 178 69c43 46 64 100 64 163c0 51 -19 106 -56 149z" />
    <glyph glyph-name="Ugrave" unicode="&#xd9;" horiz-adv-x="759" 
d="M66 682h132v-383c0 -135 62 -194 183 -194c119 0 180 57 180 193v384h132v-386c0 -195 -107 -305 -312 -305c-204 0 -315 104 -315 303v388zM233 889h149l83 -156h-75z" />
    <glyph glyph-name="Uacute" unicode="&#xda;" horiz-adv-x="759" 
d="M66 682h132v-383c0 -135 62 -194 183 -194c119 0 180 57 180 193v384h132v-386c0 -195 -107 -305 -312 -305c-204 0 -315 104 -315 303v388zM298 733l83 156h149l-156 -156h-76z" />
    <glyph glyph-name="Ucircumflex" unicode="&#xdb;" horiz-adv-x="759" 
d="M66 682h132v-383c0 -135 62 -194 183 -194c119 0 180 57 180 193v384h132v-386c0 -195 -107 -305 -312 -305c-204 0 -315 104 -315 303v388zM204 733l96 156h160l98 -156h-76l-102 89l-101 -89h-75z" />
    <glyph glyph-name="Udieresis" unicode="&#xdc;" horiz-adv-x="759" 
d="M66 682h132v-383c0 -135 62 -194 183 -194c119 0 180 57 180 193v384h132v-386c0 -195 -107 -305 -312 -305c-204 0 -315 104 -315 303v388zM344 813c0 -33 -28 -61 -60 -61c-33 0 -61 28 -61 61c0 32 28 60 61 60c32 0 60 -28 60 -60zM538 813c0 -33 -27 -61 -60 -61
c-32 0 -60 28 -60 61s28 60 60 60c33 0 60 -28 60 -60z" />
    <glyph glyph-name="Yacute" unicode="&#xdd;" horiz-adv-x="647" 
d="M0 682h148l174 -229l176 229h149l-256 -337v-345h-133v344zM262 733l83 156h149l-156 -156h-76z" />
    <glyph glyph-name="Thorn" unicode="&#xde;" horiz-adv-x="582" 
d="M74 682h132v-141h113c147 0 235 -72 235 -200c0 -125 -84 -199 -240 -199h-108v-142h-132v682zM206 441v-198h88c87 0 125 30 125 99c0 64 -33 99 -128 99h-85z" />
    <glyph glyph-name="germandbls" unicode="&#xdf;" horiz-adv-x="550" 
d="M254 1v94c16 -5 26 -7 43 -7c60 0 96 45 96 116c0 76 -39 120 -130 121v91c60 0 103 26 103 95c0 51 -36 83 -92 83c-64 0 -95 -37 -95 -129v-465h-117v457c0 157 68 234 213 234c129 0 208 -69 208 -176c0 -72 -37 -116 -93 -140c80 -23 124 -86 124 -178
c0 -58 -17 -107 -52 -147c-34 -39 -78 -59 -131 -59c-28 0 -52 3 -77 10z" />
    <glyph glyph-name="agrave" unicode="&#xe0;" horiz-adv-x="470" 
d="M400 326v-214c0 -19 4 -31 19 -31c9 0 25 7 46 21v-76c-41 -23 -78 -35 -111 -35c-37 0 -60 13 -69 48c-40 -32 -84 -48 -131 -48c-71 0 -122 48 -122 115c0 73 61 118 162 151l89 29v19c0 56 -29 76 -80 76c-56 0 -113 -26 -160 -79v109c47 44 105 64 176 64
c117 0 181 -60 181 -149zM283 101v127c-93 -33 -135 -57 -135 -104c0 -35 24 -59 59 -59c25 0 50 12 76 36zM93 683h136l72 -157h-72z" />
    <glyph glyph-name="aacute" unicode="&#xe1;" horiz-adv-x="470" 
d="M400 326v-214c0 -19 4 -31 19 -31c9 0 25 7 46 21v-76c-41 -23 -78 -35 -111 -35c-37 0 -60 13 -69 48c-40 -32 -84 -48 -131 -48c-71 0 -122 48 -122 115c0 73 61 118 162 151l89 29v19c0 56 -29 76 -80 76c-56 0 -113 -26 -160 -79v109c47 44 105 64 176 64
c117 0 181 -60 181 -149zM283 101v127c-93 -33 -135 -57 -135 -104c0 -35 24 -59 59 -59c25 0 50 12 76 36zM226 683h135l-134 -157h-73z" />
    <glyph glyph-name="acircumflex" unicode="&#xe2;" horiz-adv-x="470" 
d="M400 326v-214c0 -19 4 -31 19 -31c9 0 25 7 46 21v-76c-41 -23 -78 -35 -111 -35c-37 0 -60 13 -69 48c-40 -32 -84 -48 -131 -48c-71 0 -122 48 -122 115c0 73 61 118 162 151l89 29v19c0 56 -29 76 -80 76c-56 0 -113 -26 -160 -79v109c47 44 105 64 176 64
c117 0 181 -60 181 -149zM283 101v127c-93 -33 -135 -57 -135 -104c0 -35 24 -59 59 -59c25 0 50 12 76 36zM153 683h137l89 -157h-74l-84 87l-82 -87h-73z" />
    <glyph glyph-name="atilde" unicode="&#xe3;" horiz-adv-x="470" 
d="M400 326v-214c0 -19 4 -31 19 -31c9 0 25 7 46 21v-76c-41 -23 -78 -35 -111 -35c-37 0 -60 13 -69 48c-40 -32 -84 -48 -131 -48c-71 0 -122 48 -122 115c0 73 61 118 162 151l89 29v19c0 56 -29 76 -80 76c-56 0 -113 -26 -160 -79v109c47 44 105 64 176 64
c117 0 181 -60 181 -149zM283 101v127c-93 -33 -135 -57 -135 -104c0 -35 24 -59 59 -59c25 0 50 12 76 36zM236 646l36 -14c11 -4 20 -6 27 -6c21 0 34 13 37 40h58c0 -83 -43 -128 -98 -128c-20 0 -46 7 -77 20s-53 20 -66 20c-19 0 -33 -11 -36 -40h-60
c0 73 40 128 99 128c25 0 53 -11 80 -20z" />
    <glyph glyph-name="adieresis" unicode="&#xe4;" horiz-adv-x="470" 
d="M400 326v-214c0 -19 4 -31 19 -31c9 0 25 7 46 21v-76c-41 -23 -78 -35 -111 -35c-37 0 -60 13 -69 48c-40 -32 -84 -48 -131 -48c-71 0 -122 48 -122 115c0 73 61 118 162 151l89 29v19c0 56 -29 76 -80 76c-56 0 -113 -26 -160 -79v109c47 44 105 64 176 64
c117 0 181 -60 181 -149zM283 101v127c-93 -33 -135 -57 -135 -104c0 -35 24 -59 59 -59c25 0 50 12 76 36zM189 608c0 -32 -27 -59 -60 -59c-32 0 -59 27 -59 59s27 59 59 59s60 -27 60 -59zM381 608c0 -32 -26 -59 -58 -59c-33 0 -60 27 -60 59s27 59 60 59
c32 0 58 -27 58 -59z" />
    <glyph glyph-name="aring" unicode="&#xe5;" horiz-adv-x="470" 
d="M400 326v-214c0 -19 4 -31 19 -31c9 0 25 7 46 21v-76c-41 -23 -78 -35 -111 -35c-37 0 -60 13 -69 48c-40 -32 -84 -48 -131 -48c-71 0 -122 48 -122 115c0 73 61 118 162 151l89 29v19c0 56 -29 76 -80 76c-56 0 -113 -26 -160 -79v109c47 44 105 64 176 64
c117 0 181 -60 181 -149zM283 101v127c-93 -33 -135 -57 -135 -104c0 -35 24 -59 59 -59c25 0 50 12 76 36zM324 623c0 -26 -10 -49 -29 -69c-19 -19 -43 -29 -70 -29c-56 0 -98 43 -98 98s42 99 98 99c53 0 99 -46 99 -99zM279 623c0 31 -23 55 -54 55s-53 -24 -53 -55
s22 -53 53 -53s54 22 54 53z" />
    <glyph glyph-name="ae" unicode="&#xe6;" horiz-adv-x="713" 
d="M44 303v116c53 37 109 56 170 56c52 0 98 -14 138 -57c45 43 87 57 135 57c57 0 104 -21 140 -62s54 -95 54 -163v-18h-291c0 -96 60 -150 140 -150c47 0 99 21 148 53v-95c-59 -35 -110 -49 -174 -49c-68 0 -132 25 -171 69c-64 -48 -118 -69 -174 -69
c-80 0 -127 51 -127 119c0 38 16 69 47 93c31 25 68 43 111 56l88 28v13c0 55 -25 82 -75 82c-60 0 -108 -27 -159 -79zM397 296h171c-7 63 -36 91 -83 91c-44 0 -80 -30 -88 -91zM278 221v8c-91 -36 -131 -60 -131 -105c0 -36 21 -61 58 -61c27 0 62 14 97 43
c-16 35 -24 76 -24 115z" />
    <glyph glyph-name="ccedilla" unicode="&#xe7;" horiz-adv-x="460" 
d="M416 444v-109c-48 28 -89 38 -128 38c-79 0 -132 -60 -132 -139c0 -83 56 -141 143 -141c43 0 81 11 126 30v-104c-47 -19 -89 -27 -136 -28l-8 -21c59 -4 88 -30 88 -77c0 -57 -53 -92 -153 -92c-27 0 -51 1 -62 4v59l20 -2c7 0 16 0 25 -1c38 0 57 11 57 34
c0 21 -13 32 -39 32c-11 0 -20 -1 -25 -2l32 71c-59 11 -106 39 -139 82s-49 94 -49 151c0 73 22 133 66 178s102 68 173 68c47 0 86 -8 141 -31z" />
    <glyph glyph-name="egrave" unicode="&#xe8;" horiz-adv-x="517" 
d="M482 232v-18h-327c8 -77 64 -129 144 -129c60 0 120 20 173 53v-94c-60 -37 -120 -53 -193 -53c-71 0 -130 23 -175 68s-68 104 -68 177c0 71 21 129 64 173s100 66 169 66c62 0 113 -22 153 -65s60 -103 60 -178zM155 278h214c-3 68 -39 109 -103 109
c-63 0 -108 -45 -111 -109zM133 683h136l72 -157h-72z" />
    <glyph glyph-name="eacute" unicode="&#xe9;" horiz-adv-x="517" 
d="M482 232v-18h-327c8 -77 64 -129 144 -129c60 0 120 20 173 53v-94c-60 -37 -120 -53 -193 -53c-71 0 -130 23 -175 68s-68 104 -68 177c0 71 21 129 64 173s100 66 169 66c62 0 113 -22 153 -65s60 -103 60 -178zM155 278h214c-3 68 -39 109 -103 109
c-63 0 -108 -45 -111 -109zM266 683h135l-134 -157h-73z" />
    <glyph glyph-name="ecircumflex" unicode="&#xea;" horiz-adv-x="517" 
d="M482 232v-18h-327c8 -77 64 -129 144 -129c60 0 120 20 173 53v-94c-60 -37 -120 -53 -193 -53c-71 0 -130 23 -175 68s-68 104 -68 177c0 71 21 129 64 173s100 66 169 66c62 0 113 -22 153 -65s60 -103 60 -178zM155 278h214c-3 68 -39 109 -103 109
c-63 0 -108 -45 -111 -109zM193 683h137l89 -157h-74l-84 87l-82 -87h-73z" />
    <glyph glyph-name="edieresis" unicode="&#xeb;" horiz-adv-x="517" 
d="M482 232v-18h-327c8 -77 64 -129 144 -129c60 0 120 20 173 53v-94c-60 -37 -120 -53 -193 -53c-71 0 -130 23 -175 68s-68 104 -68 177c0 71 21 129 64 173s100 66 169 66c62 0 113 -22 153 -65s60 -103 60 -178zM155 278h214c-3 68 -39 109 -103 109
c-63 0 -108 -45 -111 -109zM226 608c0 -32 -27 -59 -60 -59c-32 0 -59 27 -59 59s27 59 59 59s60 -27 60 -59zM418 608c0 -32 -26 -59 -58 -59c-33 0 -60 27 -60 59s27 59 60 59c32 0 58 -27 58 -59z" />
    <glyph glyph-name="igrave" unicode="&#xec;" horiz-adv-x="240" 
d="M62 466h117v-466h-117v466zM-12 683h136l72 -157h-72z" />
    <glyph glyph-name="iacute" unicode="&#xed;" horiz-adv-x="240" 
d="M62 466h117v-466h-117v466zM118 683h135l-134 -157h-73z" />
    <glyph glyph-name="icircumflex" unicode="&#xee;" horiz-adv-x="240" 
d="M62 466h117v-466h-117v466zM51 683h137l89 -157h-74l-84 87l-82 -87h-73z" />
    <glyph glyph-name="idieresis" unicode="&#xef;" horiz-adv-x="240" 
d="M62 466h117v-466h-117v466zM84 608c0 -32 -27 -59 -60 -59c-32 0 -59 27 -59 59s27 59 59 59s60 -27 60 -59zM276 608c0 -32 -26 -59 -58 -59c-33 0 -60 27 -60 59s27 59 60 59c32 0 58 -27 58 -59z" />
    <glyph glyph-name="eth" unicode="&#xf0;" horiz-adv-x="588" 
d="M142 636l62 54c44 -13 75 -24 111 -47l112 47l20 -53l-75 -34c109 -91 172 -212 172 -348c0 -83 -23 -147 -70 -194s-108 -70 -184 -70c-77 0 -139 23 -185 70s-69 103 -69 168c0 69 22 127 67 173c45 47 105 70 178 70c39 0 66 -8 97 -24c-27 51 -62 88 -98 116
l-148 -62l-20 54l113 47c-25 15 -54 24 -83 33zM289 378c-80 0 -132 -55 -132 -147c0 -84 49 -143 134 -143c80 0 132 54 132 146s-55 144 -134 144z" />
    <glyph glyph-name="ntilde" unicode="&#xf1;" horiz-adv-x="546" 
d="M489 283v-283h-117v271c0 83 -38 109 -86 109c-41 0 -77 -23 -107 -68v-312h-117v466h117v-62c44 49 98 71 149 71c108 0 161 -75 161 -192zM285 646l36 -14c11 -4 20 -6 27 -6c21 0 34 13 37 40h58c0 -83 -43 -128 -98 -128c-20 0 -46 7 -77 20s-53 20 -66 20
c-19 0 -33 -11 -36 -40h-60c0 73 40 128 99 128c25 0 53 -11 80 -20z" />
    <glyph glyph-name="ograve" unicode="&#xf2;" horiz-adv-x="580" 
d="M289 -9c-76 0 -137 23 -184 69c-46 47 -69 104 -69 171c0 71 23 129 69 175s108 69 186 69c77 0 138 -23 184 -68c47 -45 70 -103 70 -174c0 -74 -25 -133 -74 -177c-49 -43 -110 -65 -182 -65zM291 88c80 0 132 58 132 145c0 89 -55 145 -136 145
c-76 0 -130 -54 -130 -145c0 -92 55 -145 134 -145zM165 683h136l72 -157h-72z" />
    <glyph glyph-name="oacute" unicode="&#xf3;" horiz-adv-x="580" 
d="M289 -9c-76 0 -137 23 -184 69c-46 47 -69 104 -69 171c0 71 23 129 69 175s108 69 186 69c77 0 138 -23 184 -68c47 -45 70 -103 70 -174c0 -74 -25 -133 -74 -177c-49 -43 -110 -65 -182 -65zM291 88c80 0 132 58 132 145c0 89 -55 145 -136 145
c-76 0 -130 -54 -130 -145c0 -92 55 -145 134 -145zM291 683h135l-134 -157h-73z" />
    <glyph glyph-name="ocircumflex" unicode="&#xf4;" horiz-adv-x="580" 
d="M289 -9c-76 0 -137 23 -184 69c-46 47 -69 104 -69 171c0 71 23 129 69 175s108 69 186 69c77 0 138 -23 184 -68c47 -45 70 -103 70 -174c0 -74 -25 -133 -74 -177c-49 -43 -110 -65 -182 -65zM291 88c80 0 132 58 132 145c0 89 -55 145 -136 145
c-76 0 -130 -54 -130 -145c0 -92 55 -145 134 -145zM228 683h137l89 -157h-74l-84 87l-82 -87h-73z" />
    <glyph glyph-name="otilde" unicode="&#xf5;" horiz-adv-x="580" 
d="M289 -9c-76 0 -137 23 -184 69c-46 47 -69 104 -69 171c0 71 23 129 69 175s108 69 186 69c77 0 138 -23 184 -68c47 -45 70 -103 70 -174c0 -74 -25 -133 -74 -177c-49 -43 -110 -65 -182 -65zM291 88c80 0 132 58 132 145c0 89 -55 145 -136 145
c-76 0 -130 -54 -130 -145c0 -92 55 -145 134 -145zM308 646l36 -14c11 -4 20 -6 27 -6c21 0 34 13 37 40h58c0 -83 -43 -128 -98 -128c-20 0 -46 7 -77 20s-53 20 -66 20c-19 0 -33 -11 -36 -40h-60c0 73 40 128 99 128c25 0 53 -11 80 -20z" />
    <glyph glyph-name="odieresis" unicode="&#xf6;" horiz-adv-x="580" 
d="M289 -9c-76 0 -137 23 -184 69c-46 47 -69 104 -69 171c0 71 23 129 69 175s108 69 186 69c77 0 138 -23 184 -68c47 -45 70 -103 70 -174c0 -74 -25 -133 -74 -177c-49 -43 -110 -65 -182 -65zM291 88c80 0 132 58 132 145c0 89 -55 145 -136 145
c-76 0 -130 -54 -130 -145c0 -92 55 -145 134 -145zM261 608c0 -32 -27 -59 -60 -59c-32 0 -59 27 -59 59s27 59 59 59s60 -27 60 -59zM453 608c0 -32 -26 -59 -58 -59c-33 0 -60 27 -60 59s27 59 60 59c32 0 58 -27 58 -59z" />
    <glyph glyph-name="divide" unicode="&#xf7;" horiz-adv-x="564" 
d="M330 526c0 -27 -21 -47 -48 -47c-28 0 -47 22 -47 46c0 27 19 48 48 48c28 0 47 -22 47 -47zM41 289v105h482v-105h-482zM330 157c0 -27 -22 -48 -47 -48c-27 0 -48 22 -48 46c0 27 21 49 48 49c28 0 47 -22 47 -47z" />
    <glyph glyph-name="oslash" unicode="&#xf8;" horiz-adv-x="580" 
d="M48 -8l58 66c-47 47 -70 109 -70 173c0 71 23 129 69 175s108 69 186 69c55 0 104 -13 145 -39l53 62l36 -33l-51 -58c45 -43 71 -102 71 -174c0 -74 -25 -133 -74 -177c-49 -43 -110 -65 -182 -65c-59 0 -106 14 -145 38l-60 -70zM398 320l-184 -211
c21 -14 46 -21 77 -21c80 0 132 58 132 145c0 35 -8 64 -25 87zM182 145l183 211c-23 15 -49 22 -78 22c-76 0 -130 -54 -130 -145c0 -36 8 -65 25 -88z" />
    <glyph glyph-name="ugrave" unicode="&#xf9;" horiz-adv-x="546" 
d="M57 466h117v-271c0 -80 30 -110 85 -110c41 0 79 25 108 68v313h117v-466h-117v62c-43 -47 -95 -71 -150 -71c-108 0 -160 70 -160 203v272zM140 683h136l72 -157h-72z" />
    <glyph glyph-name="uacute" unicode="&#xfa;" horiz-adv-x="546" 
d="M57 466h117v-271c0 -80 30 -110 85 -110c41 0 79 25 108 68v313h117v-466h-117v62c-43 -47 -95 -71 -150 -71c-108 0 -160 70 -160 203v272zM276 683h135l-134 -157h-73z" />
    <glyph glyph-name="ucircumflex" unicode="&#xfb;" horiz-adv-x="546" 
d="M57 466h117v-271c0 -80 30 -110 85 -110c41 0 79 25 108 68v313h117v-466h-117v62c-43 -47 -95 -71 -150 -71c-108 0 -160 70 -160 203v272zM203 683h137l89 -157h-74l-84 87l-82 -87h-73z" />
    <glyph glyph-name="udieresis" unicode="&#xfc;" horiz-adv-x="546" 
d="M57 466h117v-271c0 -80 30 -110 85 -110c41 0 79 25 108 68v313h117v-466h-117v62c-43 -47 -95 -71 -150 -71c-108 0 -160 70 -160 203v272zM236 608c0 -32 -27 -59 -60 -59c-32 0 -59 27 -59 59s27 59 59 59s60 -27 60 -59zM428 608c0 -32 -26 -59 -58 -59
c-33 0 -60 27 -60 59s27 59 60 59c32 0 58 -27 58 -59z" />
    <glyph glyph-name="yacute" unicode="&#xfd;" horiz-adv-x="484" 
d="M2 466h129l117 -252l116 252h120l-325 -695h-121l148 315zM240 683h135l-134 -157h-73z" />
    <glyph glyph-name="thorn" unicode="&#xfe;" horiz-adv-x="551" 
d="M180 17v-246h-118v911h118v-216h64c180 0 271 -80 271 -235c0 -68 -21 -125 -64 -171c-42 -46 -97 -69 -164 -69c-40 0 -63 3 -107 26zM180 367v-257c24 -15 56 -24 87 -24c72 0 127 58 127 142c0 92 -51 139 -144 139h-70z" />
    <glyph glyph-name="ydieresis" unicode="&#xff;" horiz-adv-x="484" 
d="M2 466h129l117 -252l116 252h120l-325 -695h-121l148 315zM210 608c0 -32 -27 -59 -60 -59c-32 0 -59 27 -59 59s27 59 59 59s60 -27 60 -59zM402 608c0 -32 -26 -59 -58 -59c-33 0 -60 27 -60 59s27 59 60 59c32 0 58 -27 58 -59z" />
    <glyph glyph-name="Amacron" unicode="&#x100;" horiz-adv-x="717" 
d="M295 685h119l303 -685h-135l-79 181h-292l-76 -181h-135zM354 526l-101 -247h207zM215 767v83h287v-83h-287z" />
    <glyph glyph-name="amacron" unicode="&#x101;" horiz-adv-x="470" 
d="M400 326v-214c0 -19 4 -31 19 -31c9 0 25 7 46 21v-76c-41 -23 -78 -35 -111 -35c-37 0 -60 13 -69 48c-40 -32 -84 -48 -131 -48c-71 0 -122 48 -122 115c0 73 61 118 162 151l89 29v19c0 56 -29 76 -80 76c-56 0 -113 -26 -160 -79v109c47 44 105 64 176 64
c117 0 181 -60 181 -149zM283 101v127c-93 -33 -135 -57 -135 -104c0 -35 24 -59 59 -59c25 0 50 12 76 36zM82 646h287v-84h-287v84z" />
    <glyph glyph-name="Abreve" unicode="&#x102;" horiz-adv-x="717" 
d="M295 685h119l303 -685h-135l-79 181h-292l-76 -181h-135zM354 526l-101 -247h207zM186 882h83c11 -43 42 -65 92 -65c45 0 74 22 87 65h83c-15 -97 -80 -153 -172 -153c-99 0 -161 57 -173 153z" />
    <glyph glyph-name="abreve" unicode="&#x103;" horiz-adv-x="470" 
d="M400 326v-214c0 -19 4 -31 19 -31c9 0 25 7 46 21v-76c-41 -23 -78 -35 -111 -35c-37 0 -60 13 -69 48c-40 -32 -84 -48 -131 -48c-71 0 -122 48 -122 115c0 73 61 118 162 151l89 29v19c0 56 -29 76 -80 76c-56 0 -113 -26 -160 -79v109c47 44 105 64 176 64
c117 0 181 -60 181 -149zM283 101v127c-93 -33 -135 -57 -135 -104c0 -35 24 -59 59 -59c25 0 50 12 76 36zM71 664h77c11 -36 36 -60 79 -60s62 17 75 60h78c-4 -41 -20 -74 -49 -101s-64 -40 -105 -40c-84 0 -140 50 -155 141z" />
    <glyph glyph-name="Aogonek" unicode="&#x104;" horiz-adv-x="717" 
d="M295 685h119l303 -685h-64c-15 -21 -25 -42 -25 -61c0 -33 19 -50 57 -50c12 0 29 2 50 10v-73c-29 -13 -50 -16 -77 -16c-73 0 -111 38 -111 101c0 32 11 62 34 90l-78 180h-292l-76 -181h-135zM354 526l-101 -247h207z" />
    <glyph glyph-name="aogonek" unicode="&#x105;" horiz-adv-x="470" 
d="M400 326v-214c0 -19 4 -31 19 -31c9 0 25 7 46 21v-76c-29 -17 -53 -26 -77 -31c-13 -19 -21 -40 -21 -56c0 -33 19 -50 57 -50c12 0 29 2 50 10v-73c-29 -13 -50 -16 -77 -16c-73 0 -111 38 -111 101c0 31 11 60 32 87c-17 7 -28 20 -33 41c-40 -32 -84 -48 -131 -48
c-71 0 -122 48 -122 115c0 73 61 118 162 151l89 29v19c0 56 -29 76 -80 76c-56 0 -113 -26 -160 -79v109c47 44 105 64 176 64c117 0 181 -60 181 -149zM283 101v127c-93 -33 -135 -57 -135 -104c0 -35 24 -59 59 -59c25 0 50 12 76 36z" />
    <glyph glyph-name="Cacute" unicode="&#x106;" horiz-adv-x="718" 
d="M665 637v-129c-76 45 -151 70 -232 70c-75 0 -136 -23 -183 -70c-47 -46 -70 -102 -70 -169c0 -65 23 -121 69 -167c46 -45 107 -68 182 -68c87 0 164 26 239 75v-128c-79 -43 -162 -60 -254 -60c-111 0 -200 33 -269 100s-103 150 -103 249c0 101 35 184 106 251
s161 100 268 100c79 0 159 -17 247 -54zM318 733l83 156h149l-156 -156h-76z" />
    <glyph glyph-name="cacute" unicode="&#x107;" horiz-adv-x="460" 
d="M416 444v-109c-48 28 -89 37 -128 37c-77 0 -131 -61 -131 -138c0 -81 54 -141 142 -141c43 0 81 11 126 30v-104c-51 -19 -94 -28 -143 -28c-77 0 -137 23 -181 68c-43 45 -65 102 -65 170c0 73 22 133 66 178s102 68 173 68c47 0 86 -8 141 -31zM259 683h135l-134 -157
h-73z" />
    <glyph glyph-name="Ccircumflex" unicode="&#x108;" horiz-adv-x="718" 
d="M665 637v-129c-76 45 -151 70 -232 70c-75 0 -136 -23 -183 -70c-47 -46 -70 -102 -70 -169c0 -65 23 -121 69 -167c46 -45 107 -68 182 -68c87 0 164 26 239 75v-128c-79 -43 -162 -60 -254 -60c-111 0 -200 33 -269 100s-103 150 -103 249c0 101 35 184 106 251
s161 100 268 100c79 0 159 -17 247 -54zM246 733l96 156h160l98 -156h-76l-102 89l-101 -89h-75z" />
    <glyph glyph-name="ccircumflex" unicode="&#x109;" horiz-adv-x="460" 
d="M416 444v-109c-48 28 -89 37 -128 37c-77 0 -131 -61 -131 -138c0 -81 54 -141 142 -141c43 0 81 11 126 30v-104c-51 -19 -94 -28 -143 -28c-77 0 -137 23 -181 68c-43 45 -65 102 -65 170c0 73 22 133 66 178s102 68 173 68c47 0 86 -8 141 -31zM183 683h137l89 -157
h-74l-84 87l-82 -87h-73z" />
    <glyph glyph-name="Cdotaccent" unicode="&#x10a;" horiz-adv-x="718" 
d="M665 637v-129c-76 45 -151 70 -232 70c-75 0 -136 -23 -183 -70c-47 -46 -70 -102 -70 -169c0 -65 23 -121 69 -167c46 -45 107 -68 182 -68c87 0 164 26 239 75v-128c-79 -43 -162 -60 -254 -60c-111 0 -200 33 -269 100s-103 150 -103 249c0 101 35 184 106 251
s161 100 268 100c79 0 159 -17 247 -54zM411 751c-39 0 -68 31 -68 68c0 36 29 67 68 67c37 0 68 -31 68 -67c0 -37 -31 -68 -68 -68z" />
    <glyph glyph-name="cdotaccent" unicode="&#x10b;" horiz-adv-x="460" 
d="M416 444v-109c-48 28 -89 37 -128 37c-77 0 -131 -61 -131 -138c0 -81 54 -141 142 -141c43 0 81 11 126 30v-104c-51 -19 -94 -28 -143 -28c-77 0 -137 23 -181 68c-43 45 -65 102 -65 170c0 73 22 133 66 178s102 68 173 68c47 0 86 -8 141 -31zM253 543
c-39 0 -68 31 -68 68c0 36 29 67 68 67c37 0 68 -31 68 -67c0 -39 -31 -68 -68 -68z" />
    <glyph glyph-name="Ccaron" unicode="&#x10c;" horiz-adv-x="718" 
d="M665 637v-129c-76 45 -151 70 -232 70c-75 0 -136 -23 -183 -70c-47 -46 -70 -102 -70 -169c0 -65 23 -121 69 -167c46 -45 107 -68 182 -68c87 0 164 26 239 75v-128c-79 -43 -162 -60 -254 -60c-111 0 -200 33 -269 100s-103 150 -103 249c0 101 35 184 106 251
s161 100 268 100c79 0 159 -17 247 -54zM338 733l-97 156h76l101 -90l102 90h75l-96 -156h-161z" />
    <glyph glyph-name="ccaron" unicode="&#x10d;" horiz-adv-x="460" 
d="M416 444v-109c-48 28 -89 37 -128 37c-77 0 -131 -61 -131 -138c0 -81 54 -141 142 -141c43 0 81 11 126 30v-104c-51 -19 -94 -28 -143 -28c-77 0 -137 23 -181 68c-43 45 -65 102 -65 170c0 73 22 133 66 178s102 68 173 68c47 0 86 -8 141 -31zM91 683h75l94 -87
l92 87h76l-101 -157h-136z" />
    <glyph glyph-name="Dcaron" unicode="&#x10e;" horiz-adv-x="767" 
d="M74 682h273c116 0 208 -31 275 -93c67 -61 101 -142 101 -243c0 -107 -33 -191 -100 -253c-66 -62 -157 -93 -272 -93h-277v682zM206 105h135c161 0 247 85 247 238c0 144 -86 236 -257 236h-125v-474zM279 733l-97 156h76l101 -90l102 90h75l-96 -156h-161z" />
    <glyph glyph-name="dcaron" unicode="&#x10f;" horiz-adv-x="680" 
d="M371 682h117v-682h-197c-165 0 -255 87 -255 235c0 70 21 127 63 172c43 45 97 68 164 68c43 0 77 -9 108 -25v232zM308 96h63v260c-27 16 -56 24 -88 24c-73 0 -127 -54 -127 -146s51 -138 152 -138zM544 448v19c39 13 58 49 59 92c-35 3 -54 26 -54 61
c0 44 33 72 72 72c43 0 75 -33 75 -89c0 -40 -14 -75 -42 -105c-28 -29 -65 -46 -110 -50z" />
    <glyph glyph-name="Dcroat" unicode="&#x110;" horiz-adv-x="767" 
d="M74 682h273c116 0 208 -31 275 -93c67 -61 101 -142 101 -243c0 -107 -33 -191 -100 -253c-66 -62 -157 -93 -272 -93h-277v302h-74v78h74v302zM206 105h135c161 0 247 85 247 238c0 144 -86 236 -257 236h-125v-199h176v-78h-176v-197z" />
    <glyph glyph-name="dslash" unicode="&#x111;" horiz-adv-x="550" 
d="M371 682h117v-76h75v-62h-75v-544h-208c-157 0 -244 82 -244 235c0 70 21 127 63 172c43 45 97 68 164 68c43 0 76 -9 108 -25v94h-108v62h108v76zM305 94h66v264c-29 17 -55 23 -90 23c-73 0 -125 -59 -125 -147c0 -95 41 -140 149 -140z" />
    <glyph glyph-name="Emacron" unicode="&#x112;" horiz-adv-x="557" 
d="M74 682h424v-103h-292v-181h281v-103h-281v-191h301v-104h-433v682zM140 767v83h287v-83h-287z" />
    <glyph glyph-name="emacron" unicode="&#x113;" horiz-adv-x="517" 
d="M482 232v-18h-327c8 -77 64 -129 144 -129c60 0 120 20 173 53v-94c-60 -37 -120 -53 -193 -53c-71 0 -130 23 -175 68s-68 104 -68 177c0 71 21 129 64 173s100 66 169 66c62 0 113 -22 153 -65s60 -103 60 -178zM155 278h214c-3 68 -39 109 -103 109
c-63 0 -108 -45 -111 -109zM124 646h287v-84h-287v84z" />
    <glyph glyph-name="Ebreve" unicode="&#x114;" horiz-adv-x="557" 
d="M74 682h424v-103h-292v-181h281v-103h-281v-191h301v-104h-433v682zM114 882h83c11 -43 42 -65 92 -65c45 0 74 22 87 65h83c-15 -97 -80 -153 -172 -153c-99 0 -161 57 -173 153z" />
    <glyph glyph-name="ebreve" unicode="&#x115;" horiz-adv-x="517" 
d="M482 232v-18h-327c8 -77 64 -129 144 -129c60 0 120 20 173 53v-94c-60 -37 -120 -53 -193 -53c-71 0 -130 23 -175 68s-68 104 -68 177c0 71 21 129 64 173s100 66 169 66c62 0 113 -22 153 -65s60 -103 60 -178zM155 278h214c-3 68 -39 109 -103 109
c-63 0 -108 -45 -111 -109zM102 664h77c11 -36 36 -60 79 -60s62 17 75 60h78c-4 -41 -20 -74 -49 -101s-64 -40 -105 -40c-84 0 -140 50 -155 141z" />
    <glyph glyph-name="Edotaccent" unicode="&#x116;" horiz-adv-x="557" 
d="M74 682h424v-103h-292v-181h281v-103h-281v-191h301v-104h-433v682zM280 751c-39 0 -68 31 -68 68c0 36 29 67 68 67c37 0 68 -31 68 -67c0 -37 -31 -68 -68 -68z" />
    <glyph glyph-name="edotaccent" unicode="&#x117;" horiz-adv-x="517" 
d="M482 232v-18h-327c8 -77 64 -129 144 -129c60 0 120 20 173 53v-94c-60 -37 -120 -53 -193 -53c-71 0 -130 23 -175 68s-68 104 -68 177c0 71 21 129 64 173s100 66 169 66c62 0 113 -22 153 -65s60 -103 60 -178zM155 278h214c-3 68 -39 109 -103 109
c-63 0 -108 -45 -111 -109zM264 543c-39 0 -68 31 -68 68c0 36 29 67 68 67c37 0 68 -31 68 -67c0 -39 -31 -68 -68 -68z" />
    <glyph glyph-name="Eogonek" unicode="&#x118;" horiz-adv-x="557" 
d="M74 682h424v-103h-292v-181h281v-103h-281v-191h301v-104h-83c-15 -21 -25 -42 -25 -61c0 -33 19 -50 57 -50c12 0 29 2 50 10v-73c-29 -13 -50 -16 -77 -16c-73 0 -111 38 -111 101c0 31 11 61 34 89h-278v682z" />
    <glyph glyph-name="eogonek" unicode="&#x119;" horiz-adv-x="517" 
d="M482 232v-18h-327c8 -77 64 -129 144 -129c60 0 120 20 173 53v-94c-44 -27 -91 -44 -141 -50c-12 -19 -20 -39 -20 -55c0 -33 19 -50 57 -50c12 0 29 2 50 10v-73c-29 -13 -50 -16 -77 -16c-73 0 -111 38 -111 101c0 29 9 56 27 81c-65 4 -118 28 -159 72
c-41 45 -62 102 -62 172c0 71 21 129 64 173s100 66 169 66c62 0 113 -22 153 -65s60 -103 60 -178zM155 278h214c-3 68 -39 109 -103 109c-63 0 -108 -45 -111 -109z" />
    <glyph glyph-name="Ecaron" unicode="&#x11a;" horiz-adv-x="557" 
d="M74 682h424v-103h-292v-181h281v-103h-281v-191h301v-104h-433v682zM203 733l-97 156h76l101 -90l102 90h75l-96 -156h-161z" />
    <glyph glyph-name="ecaron" unicode="&#x11b;" horiz-adv-x="517" 
d="M482 232v-18h-327c8 -77 64 -129 144 -129c60 0 120 20 173 53v-94c-60 -37 -120 -53 -193 -53c-71 0 -130 23 -175 68s-68 104 -68 177c0 71 21 129 64 173s100 66 169 66c62 0 113 -22 153 -65s60 -103 60 -178zM155 278h214c-3 68 -39 109 -103 109
c-63 0 -108 -45 -111 -109zM100 683h75l94 -87l92 87h76l-101 -157h-136z" />
    <glyph glyph-name="Gcircumflex" unicode="&#x11c;" horiz-adv-x="756" 
d="M672 636v-120c-76 45 -156 67 -236 67c-75 0 -137 -24 -185 -71c-47 -47 -71 -104 -71 -172c0 -69 23 -126 70 -172c47 -45 108 -68 181 -68c19 0 37 1 53 3s42 9 78 20v123h-118v102h242v-301c-92 -40 -177 -56 -266 -56c-115 0 -207 33 -275 99
c-67 67 -101 149 -101 247c0 99 35 183 104 251c69 69 160 103 273 103c49 0 92 -5 129 -14s78 -22 122 -41zM223 733l96 156h160l98 -156h-76l-102 89l-101 -89h-75z" />
    <glyph glyph-name="gcircumflex" unicode="&#x11d;" horiz-adv-x="471" 
d="M464 466v-82h-90c33 -27 47 -61 47 -98c0 -44 -16 -79 -47 -105s-70 -42 -117 -48c-47 -5 -71 -18 -71 -37c0 -21 31 -35 94 -44c125 -16 177 -62 177 -138c0 -96 -85 -147 -226 -147c-151 0 -223 57 -223 134c0 55 27 100 115 119c-28 15 -45 36 -45 59
c0 33 24 60 73 72c-76 28 -111 83 -111 147c0 103 76 168 216 168h208zM317 298c0 45 -36 81 -87 81c-53 0 -87 -40 -87 -84c0 -51 41 -81 86 -81c51 0 88 32 88 84zM354 -94c0 43 -54 65 -135 65c-61 0 -106 -20 -106 -64c0 -43 42 -64 121 -64c76 0 120 22 120 63z
M161 683h137l89 -157h-74l-84 87l-82 -87h-73z" />
    <glyph glyph-name="Gbreve" unicode="&#x11e;" horiz-adv-x="756" 
d="M672 636v-120c-76 45 -156 67 -236 67c-75 0 -137 -24 -185 -71c-47 -47 -71 -104 -71 -172c0 -69 23 -126 70 -172c47 -45 108 -68 181 -68c19 0 37 1 53 3s42 9 78 20v123h-118v102h242v-301c-92 -40 -177 -56 -266 -56c-115 0 -207 33 -275 99
c-67 67 -101 149 -101 247c0 99 35 183 104 251c69 69 160 103 273 103c49 0 92 -5 129 -14s78 -22 122 -41zM234 882h83c11 -43 42 -65 92 -65c45 0 74 22 87 65h83c-15 -97 -80 -153 -172 -153c-99 0 -161 57 -173 153z" />
    <glyph glyph-name="gbreve" unicode="&#x11f;" horiz-adv-x="471" 
d="M464 466v-82h-90c33 -27 47 -61 47 -98c0 -44 -16 -79 -47 -105s-70 -42 -117 -48c-47 -5 -71 -18 -71 -37c0 -21 31 -35 94 -44c125 -16 177 -62 177 -138c0 -96 -85 -147 -226 -147c-151 0 -223 57 -223 134c0 55 27 100 115 119c-28 15 -45 36 -45 59
c0 33 24 60 73 72c-76 28 -111 83 -111 147c0 103 76 168 216 168h208zM317 298c0 45 -36 81 -87 81c-53 0 -87 -40 -87 -84c0 -51 41 -81 86 -81c51 0 88 32 88 84zM354 -94c0 43 -54 65 -135 65c-61 0 -106 -20 -106 -64c0 -43 42 -64 121 -64c76 0 120 22 120 63zM92 664
h77c11 -36 36 -60 79 -60s62 17 75 60h78c-4 -41 -20 -74 -49 -101s-64 -40 -105 -40c-84 0 -140 50 -155 141z" />
    <glyph glyph-name="Gdotaccent" unicode="&#x120;" horiz-adv-x="756" 
d="M672 636v-120c-76 45 -156 67 -236 67c-75 0 -137 -24 -185 -71c-47 -47 -71 -104 -71 -172c0 -69 23 -126 70 -172c47 -45 108 -68 181 -68c19 0 37 1 53 3s42 9 78 20v123h-118v102h242v-301c-92 -40 -177 -56 -266 -56c-115 0 -207 33 -275 99
c-67 67 -101 149 -101 247c0 99 35 183 104 251c69 69 160 103 273 103c49 0 92 -5 129 -14s78 -22 122 -41zM412 751c-39 0 -68 31 -68 68c0 36 29 67 68 67c37 0 68 -31 68 -67c0 -37 -31 -68 -68 -68z" />
    <glyph glyph-name="gdotaccent" unicode="&#x121;" horiz-adv-x="471" 
d="M464 466v-82h-90c33 -27 47 -61 47 -98c0 -44 -16 -79 -47 -105s-70 -42 -117 -48c-47 -5 -71 -18 -71 -37c0 -21 31 -35 94 -44c125 -16 177 -62 177 -138c0 -96 -85 -147 -226 -147c-151 0 -223 57 -223 134c0 55 27 100 115 119c-28 15 -45 36 -45 59
c0 33 24 60 73 72c-76 28 -111 83 -111 147c0 103 76 168 216 168h208zM317 298c0 45 -36 81 -87 81c-53 0 -87 -40 -87 -84c0 -51 41 -81 86 -81c51 0 88 32 88 84zM354 -94c0 43 -54 65 -135 65c-61 0 -106 -20 -106 -64c0 -43 42 -64 121 -64c76 0 120 22 120 63z
M231 543c-39 0 -68 31 -68 68c0 36 29 67 68 67c37 0 68 -31 68 -67c0 -39 -31 -68 -68 -68z" />
    <glyph glyph-name="Gcommaaccent" unicode="&#x122;" horiz-adv-x="756" 
d="M672 636v-120c-76 45 -156 67 -236 67c-75 0 -137 -24 -185 -71c-47 -47 -71 -104 -71 -172c0 -69 23 -126 70 -172c47 -45 108 -68 181 -68c19 0 37 1 53 3s42 9 78 20v123h-118v102h242v-301c-92 -40 -177 -56 -266 -56c-115 0 -207 33 -275 99
c-67 67 -101 149 -101 247c0 99 35 183 104 251c69 69 160 103 273 103c49 0 92 -5 129 -14s78 -22 122 -41zM313 -262v18c36 13 55 36 56 69c-35 3 -53 24 -53 56c0 41 32 67 69 67c43 0 74 -32 74 -83c0 -69 -55 -120 -146 -127z" />
    <glyph glyph-name="gcommaaccent" unicode="&#x123;" horiz-adv-x="471" 
d="M464 466v-82h-90c33 -27 47 -61 47 -98c0 -44 -16 -79 -47 -105s-70 -42 -117 -48c-47 -5 -71 -18 -71 -37c0 -21 31 -35 94 -44c125 -16 177 -62 177 -138c0 -96 -85 -147 -226 -147c-151 0 -223 57 -223 134c0 55 27 100 115 119c-28 15 -45 36 -45 59
c0 33 24 60 73 72c-76 28 -111 83 -111 147c0 103 76 168 216 168h208zM317 298c0 45 -36 81 -87 81c-53 0 -87 -40 -87 -84c0 -51 41 -81 86 -81c51 0 88 32 88 84zM354 -94c0 43 -54 65 -135 65c-61 0 -106 -20 -106 -64c0 -43 42 -64 121 -64c76 0 120 22 120 63z
M298 734l6 -11c-37 -25 -48 -46 -51 -83c31 -5 51 -24 51 -55c0 -35 -30 -59 -63 -59c-41 0 -70 33 -70 77c0 57 50 115 127 131z" />
    <glyph glyph-name="Hcircumflex" unicode="&#x124;" horiz-adv-x="771" 
d="M74 682h132v-281h359v281h132v-682h-132v287h-359v-287h-132v682zM209 733l96 156h160l98 -156h-76l-102 89l-101 -89h-75z" />
    <glyph glyph-name="hcircumflex" unicode="&#x125;" horiz-adv-x="546" 
d="M489 289v-289h-117v279c0 67 -27 101 -82 101c-41 0 -72 -18 -111 -67v-313h-117v682h117v-279c42 48 92 72 150 72c104 0 160 -67 160 -186zM205 879h137l89 -157h-74l-84 87l-82 -87h-73z" />
    <glyph glyph-name="Hbar" unicode="&#x126;" horiz-adv-x="771" 
d="M74 682h132v-101h359v101h132v-101h74v-79h-74v-502h-132v287h-359v-287h-132v502h-74v79h74v101zM206 401h359v101h-359v-101z" />
    <glyph glyph-name="hbar" unicode="&#x127;" horiz-adv-x="546" 
d="M489 285v-285h-117v274c0 68 -27 102 -82 102c-41 0 -72 -19 -111 -68v-308h-117v544h-72v62h72v76h117v-76h172v-62h-172v-146c42 48 92 72 150 72c104 0 160 -69 160 -185z" />
    <glyph glyph-name="Itilde" unicode="&#x128;" horiz-adv-x="280" 
d="M74 682h132v-682h-132v682zM151 845l36 -14c11 -4 20 -6 27 -6c21 0 34 13 37 40h58c0 -84 -43 -128 -98 -128c-20 0 -46 7 -77 20s-53 20 -66 20c-19 0 -33 -11 -36 -40h-60c0 73 40 128 99 128c25 0 53 -11 80 -20z" />
    <glyph glyph-name="itilde" unicode="&#x129;" horiz-adv-x="240" 
d="M62 466h117v-466h-117v466zM131 646l36 -14c11 -4 20 -6 27 -6c21 0 34 13 37 40h58c0 -83 -43 -128 -98 -128c-20 0 -46 7 -77 20s-53 20 -66 20c-19 0 -33 -11 -36 -40h-60c0 73 40 128 99 128c25 0 53 -11 80 -20z" />
    <glyph glyph-name="Imacron" unicode="&#x12a;" horiz-adv-x="280" 
d="M74 682h132v-682h-132v682zM-3 767v83h287v-83h-287z" />
    <glyph glyph-name="imacron" unicode="&#x12b;" horiz-adv-x="240" 
d="M62 466h117v-466h-117v466zM-23 646h287v-84h-287v84z" />
    <glyph glyph-name="Ibreve" unicode="&#x12c;" horiz-adv-x="280" 
d="M74 682h132v-682h-132v682zM-32 882h83c11 -43 42 -65 92 -65c45 0 74 22 87 65h83c-15 -97 -80 -153 -172 -153c-99 0 -161 57 -173 153z" />
    <glyph glyph-name="ibreve" unicode="&#x12d;" horiz-adv-x="240" 
d="M62 466h117v-466h-117v466zM-34 664h77c11 -36 36 -60 79 -60s62 17 75 60h78c-4 -41 -20 -74 -49 -101s-64 -40 -105 -40c-84 0 -140 50 -155 141z" />
    <glyph glyph-name="Iogonek" unicode="&#x12e;" horiz-adv-x="280" 
d="M74 682h132v-682h-61c-15 -21 -25 -42 -25 -61c0 -33 19 -50 57 -50c12 0 29 2 50 10v-73c-29 -13 -50 -16 -77 -16c-73 0 -111 38 -111 101c0 33 12 63 35 90v681z" />
    <glyph glyph-name="iogonek" unicode="&#x12f;" horiz-adv-x="240" 
d="M62 466h117v-466h-46c-15 -21 -25 -42 -25 -61c0 -33 19 -50 57 -50c12 0 29 2 50 10v-73c-29 -13 -50 -16 -77 -16c-73 0 -111 38 -111 101c0 33 12 63 35 90v465zM120 536c-35 0 -59 29 -59 60s24 59 59 59c33 0 60 -27 60 -59c0 -33 -27 -60 -60 -60z" />
    <glyph glyph-name="Idot" unicode="&#x130;" horiz-adv-x="280" 
d="M74 682h132v-682h-132v682zM135 751c-39 0 -68 31 -68 68c0 36 29 67 68 67c37 0 68 -31 68 -67c0 -37 -31 -68 -68 -68z" />
    <glyph glyph-name="dotlessi" unicode="&#x131;" horiz-adv-x="240" 
d="M62 466h117v-466h-117v466z" />
    <glyph glyph-name="Jcircumflex" unicode="&#x134;" horiz-adv-x="285" 
d="M79 682h132v-654c0 -93 -16 -159 -48 -197c-31 -39 -82 -58 -152 -58c-16 0 -29 1 -45 4l-23 115c61 0 98 9 113 26s23 57 23 121v643zM-35 733l96 156h160l98 -156h-76l-102 89l-101 -89h-75z" />
    <glyph glyph-name="jcircumflex" unicode="&#x135;" horiz-adv-x="239" 
d="M61 466h117v-499c0 -109 -31 -166 -122 -199l-64 87c55 20 69 55 69 120v491zM50 683h137l89 -157h-74l-84 87l-82 -87h-73z" />
    <glyph glyph-name="Kcommaaccent" unicode="&#x136;" horiz-adv-x="695" 
d="M74 682h133v-313l273 313h154l-282 -322l345 -360h-171l-319 334v-334h-133v682zM267 -262v18c36 13 55 36 56 69c-35 3 -53 24 -53 56c0 41 32 67 69 67c43 0 74 -32 74 -83c0 -69 -55 -120 -146 -127z" />
    <glyph glyph-name="kcommaaccent" unicode="&#x137;" horiz-adv-x="535" 
d="M62 682h118v-682h-118v682zM377 466h140l-192 -224l226 -242h-153l-215 239zM203 -262v18c36 13 55 36 56 69c-35 3 -53 24 -53 56c0 41 32 67 69 67c43 0 74 -32 74 -83c0 -69 -55 -120 -146 -127z" />
    <glyph glyph-name="kgreenlandic" unicode="&#x138;" horiz-adv-x="535" 
d="M62 466h117v-220l190 220h140l-194 -225l227 -241h-152l-211 233v-233h-117v466z" />
    <glyph glyph-name="Lacute" unicode="&#x139;" horiz-adv-x="532" 
d="M74 682h133v-569h308v-113h-441v682zM91 733l83 156h149l-156 -156h-76z" />
    <glyph glyph-name="lacute" unicode="&#x13a;" horiz-adv-x="240" 
d="M62 682h117v-682h-117v682zM120 879h135l-134 -157h-73z" />
    <glyph glyph-name="Lcommaaccent" unicode="&#x13b;" horiz-adv-x="532" 
d="M74 682h133v-569h308v-113h-441v682zM208 -262v18c36 13 55 36 56 69c-35 3 -53 24 -53 56c0 41 32 67 69 67c43 0 74 -32 74 -83c0 -69 -55 -120 -146 -127z" />
    <glyph glyph-name="lcommaaccent" unicode="&#x13c;" horiz-adv-x="240" 
d="M62 682h117v-682h-117v682zM44 -262v18c36 13 55 36 56 69c-35 3 -53 24 -53 56c0 41 32 67 69 67c43 0 74 -32 74 -83c0 -69 -55 -120 -146 -127z" />
    <glyph glyph-name="Lcaron" unicode="&#x13d;" horiz-adv-x="532" 
d="M74 682h133v-569h308v-113h-441v682zM315 448v19c39 13 58 49 59 92c-35 3 -54 26 -54 61c0 44 33 72 72 72c43 0 75 -33 75 -89c0 -40 -14 -75 -42 -105c-28 -29 -65 -46 -110 -50z" />
    <glyph glyph-name="lcaron" unicode="&#x13e;" horiz-adv-x="373" 
d="M62 682h117v-682h-117v682zM236 448v19c39 13 58 49 59 92c-35 3 -54 26 -54 61c0 44 33 72 72 72c43 0 75 -33 75 -89c0 -40 -14 -75 -42 -105c-28 -29 -65 -46 -110 -50z" />
    <glyph glyph-name="Ldot" unicode="&#x13f;" horiz-adv-x="532" 
d="M74 682h133v-569h308v-113h-441v682zM401 291c-39 0 -68 31 -68 68c0 36 29 67 68 67c37 0 68 -31 68 -67c0 -39 -31 -68 -68 -68z" />
    <glyph glyph-name="ldot" unicode="&#x140;" horiz-adv-x="349" 
d="M62 682h117v-682h-117v682zM296 292c-39 0 -68 31 -68 68c0 36 29 67 68 67c37 0 68 -31 68 -67c0 -39 -31 -68 -68 -68z" />
    <glyph glyph-name="Lslash" unicode="&#x141;" horiz-adv-x="537" 
d="M78 682h132v-247l135 108v-101l-135 -112v-217h309v-113h-441v230l-89 -71v105l89 72v346z" />
    <glyph glyph-name="lslash" unicode="&#x142;" horiz-adv-x="240" 
d="M62 682h117v-252l74 60v-88l-74 -61v-341h-117v252l-75 -60v88l75 61v341z" />
    <glyph glyph-name="Nacute" unicode="&#x143;" horiz-adv-x="813" 
d="M74 682h113l423 -481v481h129v-682h-116l-420 478v-478h-129v682zM345 733l83 156h149l-156 -156h-76z" />
    <glyph glyph-name="nacute" unicode="&#x144;" horiz-adv-x="546" 
d="M489 283v-283h-117v271c0 83 -38 109 -86 109c-41 0 -77 -23 -107 -68v-312h-117v466h117v-62c44 49 98 71 149 71c108 0 161 -75 161 -192zM275 683h135l-134 -157h-73z" />
    <glyph glyph-name="Ncommaaccent" unicode="&#x145;" horiz-adv-x="813" 
d="M74 682h113l423 -481v481h129v-682h-116l-420 478v-478h-129v682zM327 -262v18c36 13 55 36 56 69c-35 3 -53 24 -53 56c0 41 32 67 69 67c43 0 74 -32 74 -83c0 -69 -55 -120 -146 -127z" />
    <glyph glyph-name="ncommaaccent" unicode="&#x146;" horiz-adv-x="546" 
d="M489 283v-283h-117v271c0 83 -38 109 -86 109c-41 0 -77 -23 -107 -68v-312h-117v466h117v-62c44 49 98 71 149 71c108 0 161 -75 161 -192zM199 -262v18c36 13 55 36 56 69c-35 3 -53 24 -53 56c0 41 32 67 69 67c43 0 74 -32 74 -83c0 -69 -55 -120 -146 -127z" />
    <glyph glyph-name="Ncaron" unicode="&#x147;" horiz-adv-x="813" 
d="M74 682h113l423 -481v481h129v-682h-116l-420 478v-478h-129v682zM324 733l-97 156h76l101 -90l102 90h75l-96 -156h-161z" />
    <glyph glyph-name="ncaron" unicode="&#x148;" horiz-adv-x="546" 
d="M489 283v-283h-117v271c0 83 -38 109 -86 109c-41 0 -77 -23 -107 -68v-312h-117v466h117v-62c44 49 98 71 149 71c108 0 161 -75 161 -192zM107 683h75l94 -87l92 87h76l-101 -157h-136z" />
    <glyph glyph-name="napostrophe" unicode="&#x149;" horiz-adv-x="674" 
d="M617 283v-283h-117v271c0 83 -38 109 -86 109c-41 0 -77 -23 -107 -68v-312h-117v466h117v-62c44 49 98 71 149 71c108 0 161 -75 161 -192zM8 403v23c35 25 52 55 52 114c-39 11 -60 35 -60 74c0 43 33 77 74 77c51 0 87 -50 87 -113c0 -84 -57 -152 -153 -175z" />
    <glyph glyph-name="Eng" unicode="&#x14a;" horiz-adv-x="772" 
d="M571 220v172c0 116 -53 185 -165 185c-76 0 -149 -37 -196 -116v-461h-132v682h132v-91c68 72 139 100 226 100c83 0 148 -25 195 -76c48 -51 72 -120 72 -207v-183c0 -151 -75 -234 -210 -234c-17 0 -35 1 -52 4l-18 112c12 -3 30 -4 45 -4c75 0 103 38 103 117z" />
    <glyph glyph-name="eng" unicode="&#x14b;" horiz-adv-x="546" 
d="M489 277v-298c0 -109 -30 -174 -123 -211l-64 87c29 14 48 31 56 51c9 20 13 52 13 96v269c0 72 -24 109 -85 109c-41 0 -76 -23 -106 -68v-312h-118v466h118v-62c45 49 97 71 148 71c97 0 161 -59 161 -198z" />
    <glyph glyph-name="Omacron" unicode="&#x14c;" horiz-adv-x="832" 
d="M412 -9c-108 0 -196 33 -265 100s-103 150 -103 249c0 98 34 181 101 249s158 102 271 102c108 0 197 -33 267 -100c70 -66 105 -149 105 -249c0 -99 -35 -183 -104 -250s-159 -101 -272 -101zM413 110c71 0 129 21 173 62c45 42 67 99 67 170c0 64 -22 118 -66 163
c-43 45 -100 67 -170 67c-72 0 -130 -22 -173 -65s-65 -99 -65 -167c0 -66 22 -121 67 -165c45 -43 101 -65 167 -65zM272 767v83h287v-83h-287z" />
    <glyph glyph-name="omacron" unicode="&#x14d;" horiz-adv-x="580" 
d="M289 -9c-76 0 -137 23 -184 69c-46 47 -69 104 -69 171c0 71 23 129 69 175s108 69 186 69c77 0 138 -23 184 -68c47 -45 70 -103 70 -174c0 -74 -25 -133 -74 -177c-49 -43 -110 -65 -182 -65zM291 88c80 0 132 58 132 145c0 89 -55 145 -136 145
c-76 0 -130 -54 -130 -145c0 -92 55 -145 134 -145zM147 646h287v-84h-287v84z" />
    <glyph glyph-name="Obreve" unicode="&#x14e;" horiz-adv-x="832" 
d="M412 -9c-108 0 -196 33 -265 100s-103 150 -103 249c0 98 34 181 101 249s158 102 271 102c108 0 197 -33 267 -100c70 -66 105 -149 105 -249c0 -99 -35 -183 -104 -250s-159 -101 -272 -101zM413 110c71 0 129 21 173 62c45 42 67 99 67 170c0 64 -22 118 -66 163
c-43 45 -100 67 -170 67c-72 0 -130 -22 -173 -65s-65 -99 -65 -167c0 -66 22 -121 67 -165c45 -43 101 -65 167 -65zM243 882h83c11 -43 42 -65 92 -65c45 0 74 22 87 65h83c-15 -97 -80 -153 -172 -153c-99 0 -161 57 -173 153z" />
    <glyph glyph-name="obreve" unicode="&#x14f;" horiz-adv-x="580" 
d="M289 -9c-76 0 -137 23 -184 69c-46 47 -69 104 -69 171c0 71 23 129 69 175s108 69 186 69c77 0 138 -23 184 -68c47 -45 70 -103 70 -174c0 -74 -25 -133 -74 -177c-49 -43 -110 -65 -182 -65zM291 88c80 0 132 58 132 145c0 89 -55 145 -136 145
c-76 0 -130 -54 -130 -145c0 -92 55 -145 134 -145zM136 664h77c11 -36 36 -60 79 -60s62 17 75 60h78c-4 -41 -20 -74 -49 -101s-64 -40 -105 -40c-84 0 -140 50 -155 141z" />
    <glyph glyph-name="Ohungarumlaut" unicode="&#x150;" horiz-adv-x="832" 
d="M412 -9c-108 0 -196 33 -265 100s-103 150 -103 249c0 98 34 181 101 249s158 102 271 102c108 0 197 -33 267 -100c70 -66 105 -149 105 -249c0 -99 -35 -183 -104 -250s-159 -101 -272 -101zM413 110c71 0 129 21 173 62c45 42 67 99 67 170c0 64 -22 118 -66 163
c-43 45 -100 67 -170 67c-72 0 -130 -22 -173 -65s-65 -99 -65 -167c0 -66 22 -121 67 -165c45 -43 101 -65 167 -65zM285 733l56 156h139l-128 -156h-67zM470 733l57 156h138l-128 -156h-67z" />
    <glyph glyph-name="ohungarumlaut" unicode="&#x151;" horiz-adv-x="580" 
d="M289 -9c-76 0 -137 23 -184 69c-46 47 -69 104 -69 171c0 71 23 129 69 175s108 69 186 69c77 0 138 -23 184 -68c47 -45 70 -103 70 -174c0 -74 -25 -133 -74 -177c-49 -43 -110 -65 -182 -65zM291 88c80 0 132 58 132 145c0 89 -55 145 -136 145
c-76 0 -130 -54 -130 -145c0 -92 55 -145 134 -145zM240 679h133l-133 -153h-70zM422 679h132l-133 -153h-71z" />
    <glyph glyph-name="OE" unicode="&#x152;" horiz-adv-x="972" 
d="M437 682h475v-102h-284v-181h272v-104h-272v-193h293v-102h-490c-117 0 -211 31 -282 93c-70 63 -105 145 -105 248c0 107 36 190 107 250c71 61 167 91 286 91zM456 102h40v478h-35c-183 0 -280 -87 -280 -239c0 -148 95 -239 275 -239z" />
    <glyph glyph-name="oe" unicode="&#x153;" horiz-adv-x="875" 
d="M464 398c44 51 98 77 162 77s116 -22 155 -66s59 -103 59 -178v-17h-319c7 -83 66 -129 143 -129c55 0 110 18 167 53v-95c-68 -39 -121 -52 -189 -52c-72 0 -131 26 -174 79c-45 -56 -113 -79 -182 -79c-75 0 -136 22 -182 67c-45 45 -68 102 -68 171
c0 73 23 132 69 177c46 46 106 69 180 69c76 0 136 -28 179 -77zM521 278h210c-7 69 -41 109 -104 109c-60 0 -103 -45 -106 -109zM283 378c-73 0 -126 -53 -126 -145s53 -145 128 -145c76 0 128 58 128 145c0 91 -58 145 -130 145z" />
    <glyph glyph-name="Racute" unicode="&#x154;" horiz-adv-x="644" 
d="M74 682h232c67 0 121 -18 162 -54c41 -35 62 -83 62 -143c0 -77 -37 -137 -113 -169c17 -9 32 -22 47 -37s39 -49 72 -102l105 -177h-149l-94 162c-48 83 -85 125 -154 125h-38v-287h-132v682zM206 582v-198h67c91 0 123 36 123 100c0 61 -37 98 -110 98h-80zM205 733
l83 156h149l-156 -156h-76z" />
    <glyph glyph-name="racute" unicode="&#x155;" horiz-adv-x="420" 
d="M421 428l-53 -110c-27 27 -57 42 -84 42c-51 0 -98 -48 -109 -128v-232h-117v466h117v-109c43 79 90 118 141 118c36 0 70 -16 105 -47zM231 683h135l-134 -157h-73z" />
    <glyph glyph-name="Rcommaaccent" unicode="&#x156;" horiz-adv-x="644" 
d="M74 682h232c67 0 121 -18 162 -54c41 -35 62 -83 62 -143c0 -77 -37 -137 -113 -169c17 -9 32 -22 47 -37s39 -49 72 -102l105 -177h-149l-94 162c-48 83 -85 125 -154 125h-38v-287h-132v682zM206 582v-198h67c91 0 123 36 123 100c0 61 -37 98 -110 98h-80zM262 -262
v18c36 13 55 36 56 69c-35 3 -53 24 -53 56c0 41 32 67 69 67c43 0 74 -32 74 -83c0 -69 -55 -120 -146 -127z" />
    <glyph glyph-name="rcommaaccent" unicode="&#x157;" horiz-adv-x="420" 
d="M421 428l-53 -110c-27 27 -57 42 -84 42c-51 0 -98 -48 -109 -128v-232h-117v466h117v-109c43 79 90 118 141 118c36 0 70 -16 105 -47zM40 -262v18c36 13 55 36 56 69c-35 3 -53 24 -53 56c0 41 32 67 69 67c43 0 74 -32 74 -83c0 -69 -55 -120 -146 -127z" />
    <glyph glyph-name="Rcaron" unicode="&#x158;" horiz-adv-x="644" 
d="M74 682h232c67 0 121 -18 162 -54c41 -35 62 -83 62 -143c0 -77 -37 -137 -113 -169c17 -9 32 -22 47 -37s39 -49 72 -102l105 -177h-149l-94 162c-48 83 -85 125 -154 125h-38v-287h-132v682zM206 582v-198h67c91 0 123 36 123 100c0 61 -37 98 -110 98h-80zM194 733
l-97 156h76l101 -90l102 90h75l-96 -156h-161z" />
    <glyph glyph-name="rcaron" unicode="&#x159;" horiz-adv-x="420" 
d="M421 428l-53 -110c-27 27 -57 42 -84 42c-51 0 -98 -48 -109 -128v-232h-117v466h117v-109c43 79 90 118 141 118c36 0 70 -16 105 -47zM60 683h75l94 -87l92 87h76l-101 -157h-136z" />
    <glyph glyph-name="Sacute" unicode="&#x15a;" horiz-adv-x="514" 
d="M442 640v-127c-55 47 -112 73 -173 73c-60 0 -91 -29 -91 -70c0 -39 28 -73 85 -103c57 -29 106 -61 146 -95c41 -33 61 -80 61 -140c0 -55 -20 -100 -61 -135s-92 -52 -155 -52c-72 0 -141 21 -202 60v138c60 -61 124 -92 191 -92c60 0 95 34 95 77c0 29 -12 52 -36 71
c-23 19 -60 41 -109 68c-97 55 -145 114 -145 199c0 52 20 95 60 128c40 34 92 51 155 51c67 0 128 -19 179 -51zM176 733l83 156h149l-156 -156h-76z" />
    <glyph glyph-name="sacute" unicode="&#x15b;" horiz-adv-x="417" 
d="M354 436v-99c-56 33 -94 48 -135 48c-39 0 -55 -16 -55 -33c0 -22 21 -43 64 -63c87 -39 149 -89 149 -161c0 -79 -64 -137 -168 -137c-51 0 -93 8 -164 40v106c48 -35 102 -57 145 -57c47 0 68 19 68 39c0 23 -22 45 -65 66c-43 22 -78 45 -106 69s-42 55 -42 93
c0 36 15 66 45 91s69 37 116 37c53 0 102 -13 148 -39zM219 683h135l-134 -157h-73z" />
    <glyph glyph-name="Scircumflex" unicode="&#x15c;" horiz-adv-x="514" 
d="M442 640v-127c-55 47 -112 73 -173 73c-60 0 -91 -29 -91 -70c0 -39 28 -73 85 -103c57 -29 106 -61 146 -95c41 -33 61 -80 61 -140c0 -55 -20 -100 -61 -135s-92 -52 -155 -52c-72 0 -141 21 -202 60v138c60 -61 124 -92 191 -92c60 0 95 34 95 77c0 29 -12 52 -36 71
c-23 19 -60 41 -109 68c-97 55 -145 114 -145 199c0 52 20 95 60 128c40 34 92 51 155 51c67 0 128 -19 179 -51zM79 733l96 156h160l98 -156h-76l-102 89l-101 -89h-75z" />
    <glyph glyph-name="scircumflex" unicode="&#x15d;" horiz-adv-x="417" 
d="M354 436v-99c-56 33 -94 48 -135 48c-39 0 -55 -16 -55 -33c0 -22 21 -43 64 -63c87 -39 149 -89 149 -161c0 -79 -64 -137 -168 -137c-51 0 -93 8 -164 40v106c48 -35 102 -57 145 -57c47 0 68 19 68 39c0 23 -22 45 -65 66c-43 22 -78 45 -106 69s-42 55 -42 93
c0 36 15 66 45 91s69 37 116 37c53 0 102 -13 148 -39zM139 683h137l89 -157h-74l-84 87l-82 -87h-73z" />
    <glyph glyph-name="Scedilla" unicode="&#x15e;" horiz-adv-x="514" 
d="M442 640v-127c-55 47 -112 73 -173 73c-60 0 -91 -29 -91 -70c0 -39 28 -73 85 -103c57 -29 106 -61 146 -95c41 -33 61 -80 61 -140c0 -50 -18 -92 -53 -127s-82 -54 -139 -58l-9 -23c59 -4 88 -30 88 -77c0 -57 -53 -92 -153 -92c-27 0 -50 1 -61 4v59c9 0 27 -3 44 -3
c38 0 57 11 57 34c0 21 -13 32 -39 32c-11 0 -20 -1 -25 -2l31 69c-56 7 -110 26 -159 57v138c60 -61 124 -92 191 -92c60 0 95 34 95 77c0 29 -12 52 -36 71c-23 19 -60 41 -109 68c-97 55 -145 114 -145 199c0 52 20 95 60 128c40 34 92 51 155 51c67 0 128 -19 179 -51z
" />
    <glyph glyph-name="scedilla" unicode="&#x15f;" horiz-adv-x="417" 
d="M354 436v-99c-56 33 -94 48 -135 48c-39 0 -55 -16 -55 -33c0 -22 21 -43 64 -63c87 -39 149 -89 149 -161s-54 -130 -151 -137l-9 -21c59 -4 88 -30 88 -77c0 -57 -53 -92 -153 -92c-27 0 -50 1 -61 4v59l20 -2c7 0 15 0 24 -1c39 0 58 11 58 34c0 21 -13 32 -40 32
c-10 0 -18 -1 -25 -2l31 70c-32 4 -67 13 -114 36v106c48 -35 102 -57 145 -57c47 0 68 19 68 39c0 21 -18 41 -55 60s-72 41 -107 66c-34 25 -51 59 -51 102c0 36 15 66 45 91s69 37 116 37c53 0 102 -13 148 -39z" />
    <glyph glyph-name="Scaron" unicode="&#x160;" horiz-adv-x="514" 
d="M442 640v-127c-55 47 -112 73 -173 73c-60 0 -91 -29 -91 -70c0 -39 28 -73 85 -103c57 -29 106 -61 146 -95c41 -33 61 -80 61 -140c0 -55 -20 -100 -61 -135s-92 -52 -155 -52c-72 0 -141 21 -202 60v138c60 -61 124 -92 191 -92c60 0 95 34 95 77c0 29 -12 52 -36 71
c-23 19 -60 41 -109 68c-97 55 -145 114 -145 199c0 52 20 95 60 128c40 34 92 51 155 51c67 0 128 -19 179 -51zM183 733l-97 156h76l101 -90l102 90h75l-96 -156h-161z" />
    <glyph glyph-name="scaron" unicode="&#x161;" horiz-adv-x="417" 
d="M354 436v-99c-56 33 -94 48 -135 48c-39 0 -55 -16 -55 -33c0 -22 21 -43 64 -63c87 -39 149 -89 149 -161c0 -79 -64 -137 -168 -137c-51 0 -93 8 -164 40v106c48 -35 102 -57 145 -57c47 0 68 19 68 39c0 23 -22 45 -65 66c-43 22 -78 45 -106 69s-42 55 -42 93
c0 36 15 66 45 91s69 37 116 37c53 0 102 -13 148 -39zM41 683h75l94 -87l92 87h76l-101 -157h-136z" />
    <glyph glyph-name="uni0162" unicode="&#x162;" horiz-adv-x="646" 
d="M17 682h612v-112h-241v-570h-132v570h-239v112zM244 -262v18c36 13 55 36 56 69c-35 3 -53 24 -53 56c0 41 32 67 69 67c43 0 74 -32 74 -83c0 -69 -55 -120 -146 -127z" />
    <glyph glyph-name="uni0163" unicode="&#x163;" horiz-adv-x="386" 
d="M4 389l187 188h8v-111h150v-93h-150v-197c0 -63 21 -85 66 -85c37 0 73 14 104 33v-100c-37 -21 -92 -33 -132 -33c-104 0 -155 53 -155 174v208h-78v16zM160 -262v18c36 13 55 36 56 69c-35 3 -53 24 -53 56c0 41 32 67 69 67c43 0 74 -32 74 -83
c0 -69 -55 -120 -146 -127z" />
    <glyph glyph-name="Tcaron" unicode="&#x164;" horiz-adv-x="646" 
d="M17 682h612v-112h-241v-570h-132v570h-239v112zM237 733l-97 156h76l101 -90l102 90h75l-96 -156h-161z" />
    <glyph glyph-name="tcaron" unicode="&#x165;" horiz-adv-x="475" 
d="M4 389l187 188h8v-111h150v-93h-150v-197c0 -63 21 -85 66 -85c37 0 73 14 104 33v-100c-37 -21 -92 -33 -132 -33c-104 0 -155 53 -155 174v208h-78v16zM338 448v19c39 13 58 49 59 92c-35 3 -54 26 -54 61c0 44 33 72 72 72c43 0 75 -33 75 -89c0 -40 -14 -75 -42 -105
c-28 -29 -65 -46 -110 -50z" />
    <glyph glyph-name="Tbar" unicode="&#x166;" horiz-adv-x="646" 
d="M17 682h612v-112h-241v-230h183v-78h-183v-262h-132v262h-183v78h183v230h-239v112z" />
    <glyph glyph-name="tbar" unicode="&#x167;" horiz-adv-x="386" 
d="M349 227h-150v-51c0 -63 21 -85 66 -85c37 0 73 14 104 33v-100c-37 -21 -92 -33 -132 -33c-104 0 -155 53 -155 174v62h-74v62h74v84h-78v16l187 188h8v-111h150v-93h-150v-84h150v-62z" />
    <glyph glyph-name="Utilde" unicode="&#x168;" horiz-adv-x="759" 
d="M66 682h132v-383c0 -135 62 -194 183 -194c119 0 180 57 180 193v384h132v-386c0 -195 -107 -305 -312 -305c-204 0 -315 104 -315 303v388zM391 845l36 -14c11 -4 20 -6 27 -6c21 0 34 13 37 40h58c0 -84 -43 -128 -98 -128c-20 0 -46 7 -77 20s-53 20 -66 20
c-19 0 -33 -11 -36 -40h-60c0 73 40 128 99 128c25 0 53 -11 80 -20z" />
    <glyph glyph-name="utilde" unicode="&#x169;" horiz-adv-x="546" 
d="M57 466h117v-271c0 -80 30 -110 85 -110c41 0 79 25 108 68v313h117v-466h-117v62c-43 -47 -95 -71 -150 -71c-108 0 -160 70 -160 203v272zM283 646l36 -14c11 -4 20 -6 27 -6c21 0 34 13 37 40h58c0 -83 -43 -128 -98 -128c-20 0 -46 7 -77 20s-53 20 -66 20
c-19 0 -33 -11 -36 -40h-60c0 73 40 128 99 128c25 0 53 -11 80 -20z" />
    <glyph glyph-name="Umacron" unicode="&#x16a;" horiz-adv-x="759" 
d="M66 682h132v-383c0 -135 62 -194 183 -194c119 0 180 57 180 193v384h132v-386c0 -195 -107 -305 -312 -305c-204 0 -315 104 -315 303v388zM237 767v83h287v-83h-287z" />
    <glyph glyph-name="umacron" unicode="&#x16b;" horiz-adv-x="546" 
d="M57 466h117v-271c0 -80 30 -110 85 -110c41 0 79 25 108 68v313h117v-466h-117v62c-43 -47 -95 -71 -150 -71c-108 0 -160 70 -160 203v272zM129 646h287v-84h-287v84z" />
    <glyph glyph-name="Ubreve" unicode="&#x16c;" horiz-adv-x="759" 
d="M66 682h132v-383c0 -135 62 -194 183 -194c119 0 180 57 180 193v384h132v-386c0 -195 -107 -305 -312 -305c-204 0 -315 104 -315 303v388zM208 882h83c11 -43 42 -65 92 -65c45 0 74 22 87 65h83c-15 -97 -80 -153 -172 -153c-99 0 -161 57 -173 153z" />
    <glyph glyph-name="ubreve" unicode="&#x16d;" horiz-adv-x="546" 
d="M57 466h117v-271c0 -80 30 -110 85 -110c41 0 79 25 108 68v313h117v-466h-117v62c-43 -47 -95 -71 -150 -71c-108 0 -160 70 -160 203v272zM118 664h77c11 -36 36 -60 79 -60s62 17 75 60h78c-4 -41 -20 -74 -49 -101s-64 -40 -105 -40c-84 0 -140 50 -155 141z" />
    <glyph glyph-name="Uring" unicode="&#x16e;" horiz-adv-x="759" 
d="M66 682h132v-383c0 -135 62 -194 183 -194c119 0 180 57 180 193v384h132v-386c0 -195 -107 -305 -312 -305c-204 0 -315 104 -315 303v388zM480 828c0 -56 -44 -98 -99 -98c-56 0 -98 42 -98 98c0 55 42 98 98 98c27 0 51 -10 70 -30c19 -19 29 -42 29 -68zM434 828
c0 29 -24 53 -53 53s-52 -24 -52 -53s23 -52 52 -52s53 23 53 52z" />
    <glyph glyph-name="uring" unicode="&#x16f;" horiz-adv-x="546" 
d="M57 466h117v-271c0 -80 30 -110 85 -110c41 0 79 25 108 68v313h117v-466h-117v62c-43 -47 -95 -71 -150 -71c-108 0 -160 70 -160 203v272zM371 623c0 -26 -10 -49 -29 -69c-19 -19 -43 -29 -70 -29c-56 0 -98 43 -98 98s42 99 98 99c53 0 99 -46 99 -99zM326 623
c0 31 -23 55 -54 55s-53 -24 -53 -55s22 -53 53 -53s54 22 54 53z" />
    <glyph glyph-name="Uhungarumlaut" unicode="&#x170;" horiz-adv-x="759" 
d="M66 682h132v-383c0 -135 62 -194 183 -194c119 0 180 57 180 193v384h132v-386c0 -195 -107 -305 -312 -305c-204 0 -315 104 -315 303v388zM251 733l56 156h139l-128 -156h-67zM436 733l57 156h138l-128 -156h-67z" />
    <glyph glyph-name="uhungarumlaut" unicode="&#x171;" horiz-adv-x="546" 
d="M57 466h117v-271c0 -80 30 -110 85 -110c41 0 79 25 108 68v313h117v-466h-117v62c-43 -47 -95 -71 -150 -71c-108 0 -160 70 -160 203v272zM212 679h133l-133 -153h-70zM394 679h132l-133 -153h-71z" />
    <glyph glyph-name="Uogonek" unicode="&#x172;" horiz-adv-x="759" 
d="M66 682h132v-383c0 -135 62 -194 183 -194c119 0 180 57 180 193v384h132v-386c0 -187 -96 -293 -283 -304c-13 -19 -19 -37 -19 -53c0 -33 19 -50 57 -50c12 0 29 2 50 10v-73c-29 -13 -50 -16 -77 -16c-73 0 -111 38 -111 101c0 29 9 56 28 82
c-176 15 -272 117 -272 301v388z" />
    <glyph glyph-name="uogonek" unicode="&#x173;" horiz-adv-x="546" 
d="M57 466h117v-271c0 -80 30 -110 85 -110c41 0 79 25 108 68v313h117v-466h-47c-15 -21 -25 -42 -25 -61c0 -33 19 -50 57 -50c12 0 29 2 50 10v-73c-29 -13 -50 -16 -77 -16c-73 0 -111 38 -111 101c0 33 12 64 36 91v60c-43 -47 -95 -71 -150 -71
c-108 0 -160 70 -160 203v272z" />
    <glyph glyph-name="Wcircumflex" unicode="&#x174;" horiz-adv-x="1083" 
d="M0 682h134l173 -440l180 440h110l180 -440l173 440h133l-281 -688h-52l-208 507l-211 -507h-52zM366 733l96 156h160l98 -156h-76l-102 89l-101 -89h-75z" />
    <glyph glyph-name="wcircumflex" unicode="&#x175;" horiz-adv-x="758" 
d="M0 466h122l109 -266l109 266h80l109 -266l108 266h121l-198 -472h-54l-126 301l-124 -301h-56zM309 683h137l89 -157h-74l-84 87l-82 -87h-73z" />
    <glyph glyph-name="Ycircumflex" unicode="&#x176;" horiz-adv-x="647" 
d="M0 682h148l174 -229l176 229h149l-256 -337v-345h-133v344zM145 733l96 156h160l98 -156h-76l-102 89l-101 -89h-75z" />
    <glyph glyph-name="ycircumflex" unicode="&#x177;" horiz-adv-x="484" 
d="M2 466h129l117 -252l116 252h120l-325 -695h-121l148 315zM173 683h137l89 -157h-74l-84 87l-82 -87h-73z" />
    <glyph glyph-name="Ydieresis" unicode="&#x178;" horiz-adv-x="647" 
d="M0 682h148l174 -229l176 229h149l-256 -337v-345h-133v344zM287 813c0 -33 -28 -61 -60 -61c-33 0 -61 28 -61 61c0 32 28 60 61 60c32 0 60 -28 60 -60zM481 813c0 -33 -27 -61 -60 -61c-32 0 -60 28 -60 61s28 60 60 60c33 0 60 -28 60 -60z" />
    <glyph glyph-name="Zacute" unicode="&#x179;" horiz-adv-x="672" 
d="M42 682h610l-408 -571h408v-111h-639l409 571h-380v111zM246 733l83 156h149l-156 -156h-76z" />
    <glyph glyph-name="zacute" unicode="&#x17a;" horiz-adv-x="460" 
d="M25 466h418v-7l-236 -361h236v-98h-430v7l236 360h-224v99zM224 683h135l-134 -157h-73z" />
    <glyph glyph-name="Zdotaccent" unicode="&#x17b;" horiz-adv-x="672" 
d="M42 682h610l-408 -571h408v-111h-639l409 571h-380v111zM333 751c-39 0 -68 31 -68 68c0 36 29 67 68 67c37 0 68 -31 68 -67c0 -37 -31 -68 -68 -68z" />
    <glyph glyph-name="zdotaccent" unicode="&#x17c;" horiz-adv-x="460" 
d="M25 466h418v-7l-236 -361h236v-98h-430v7l236 360h-224v99zM230 543c-39 0 -68 31 -68 68c0 36 29 67 68 67c37 0 68 -31 68 -67c0 -39 -31 -68 -68 -68z" />
    <glyph glyph-name="Zcaron" unicode="&#x17d;" horiz-adv-x="672" 
d="M42 682h610l-408 -571h408v-111h-639l409 571h-380v111zM253 733l-97 156h76l101 -90l102 90h75l-96 -156h-161z" />
    <glyph glyph-name="zcaron" unicode="&#x17e;" horiz-adv-x="460" 
d="M25 466h418v-7l-236 -361h236v-98h-430v7l236 360h-224v99zM63 683h75l94 -87l92 87h76l-101 -157h-136z" />
    <glyph glyph-name="longs" unicode="&#x17f;" horiz-adv-x="270" 
d="M326 681v-97c-18 6 -37 9 -56 9c-47 0 -75 -27 -75 -107v-486h-118v364h-69v93h69v26c0 132 67 207 176 207c27 0 51 -3 73 -9z" />
    <glyph glyph-name="Schwa" unicode="&#x18f;" horiz-adv-x="772" 
d="M40 358h550c-4 67 -28 122 -73 163s-104 62 -178 62c-87 0 -171 -25 -252 -75v120c84 44 162 63 269 63s196 -33 266 -98c71 -65 106 -147 106 -246c0 -109 -32 -195 -96 -260c-63 -64 -148 -96 -254 -96s-189 31 -249 93c-59 63 -89 147 -89 253v21zM584 261h-402
c23 -104 89 -165 196 -165c109 0 182 61 206 165z" />
    <glyph glyph-name="florin" unicode="&#x192;" horiz-adv-x="530" 
d="M495 674l-17 -90c-24 8 -52 13 -67 13c-49 0 -68 -34 -83 -121l-9 -54h103l-14 -84h-103l-59 -355c-21 -141 -77 -213 -170 -213c-40 0 -64 4 -105 13l18 91c21 -7 48 -10 63 -10c53 0 72 50 89 154l51 320h-103l14 84h103l10 54c13 81 34 137 61 168c28 31 68 47 120 47
c31 0 59 -6 98 -17z" />
    <glyph glyph-name="Aringacute" unicode="&#x1fa;" horiz-adv-x="717" 
d="M452 734c0 -35 -19 -65 -50 -80h24l291 -654h-135l-79 181h-292l-76 -181h-135l284 654h21c-31 15 -50 45 -50 80c0 27 10 51 29 70c20 19 43 29 69 29c27 0 50 -10 69 -29c20 -19 30 -43 30 -70zM354 522l-101 -243h207zM294 844l70 111h140l-134 -111h-76zM408 734
c0 31 -24 55 -55 55c-29 0 -53 -24 -53 -55s24 -53 53 -53c31 0 55 22 55 53z" />
    <glyph glyph-name="aringacute" unicode="&#x1fb;" horiz-adv-x="470" 
d="M400 326v-214c0 -19 4 -31 19 -31c9 0 25 7 46 21v-76c-41 -23 -78 -35 -111 -35c-37 0 -60 13 -69 48c-40 -32 -84 -48 -131 -48c-71 0 -122 48 -122 115c0 73 61 118 162 151l89 29v19c0 56 -29 76 -80 76c-56 0 -113 -26 -160 -79v109c47 44 105 64 176 64
c117 0 181 -60 181 -149zM283 101v127c-93 -33 -135 -57 -135 -104c0 -35 24 -59 59 -59c25 0 50 12 76 36zM320 600c0 -26 -10 -49 -29 -69c-19 -19 -43 -29 -70 -29c-56 0 -98 43 -98 98s42 99 98 99c53 0 99 -46 99 -99zM275 600c0 31 -23 55 -54 55s-53 -24 -53 -55
s22 -53 53 -53s54 22 54 53zM218 867h135l-134 -157h-73z" />
    <glyph glyph-name="AEacute" unicode="&#x1fc;" horiz-adv-x="964" 
d="M402 682h501v-103h-285v-180h274v-104h-274v-191h295v-104h-427v286h-189l-168 -286h-139zM486 606l-131 -222h131v222zM571 733l83 156h149l-156 -156h-76z" />
    <glyph glyph-name="aeacute" unicode="&#x1fd;" horiz-adv-x="713" 
d="M44 303v116c53 37 109 56 170 56c52 0 98 -14 138 -57c45 43 87 57 135 57c57 0 104 -21 140 -62s54 -95 54 -163v-18h-291c0 -96 60 -150 140 -150c47 0 99 21 148 53v-95c-59 -35 -110 -49 -174 -49c-68 0 -132 25 -171 69c-64 -48 -118 -69 -174 -69
c-80 0 -127 51 -127 119c0 38 16 69 47 93c31 25 68 43 111 56l88 28v13c0 55 -25 82 -75 82c-60 0 -108 -27 -159 -79zM397 296h171c-7 63 -36 91 -83 91c-44 0 -80 -30 -88 -91zM278 221v8c-91 -36 -131 -60 -131 -105c0 -36 21 -61 58 -61c27 0 62 14 97 43
c-16 35 -24 76 -24 115zM350 683h135l-134 -157h-73z" />
    <glyph glyph-name="Oslashacute" unicode="&#x1fe;" horiz-adv-x="832" 
d="M85 26l61 65c-67 64 -102 153 -102 249c0 98 34 181 101 249s158 102 271 102c87 0 159 -22 219 -61l61 65l49 -46l-57 -62c64 -64 100 -149 100 -245c0 -99 -35 -183 -104 -250s-159 -101 -272 -101c-84 0 -156 21 -213 58l-64 -69zM236 187l312 350
c-35 23 -79 35 -131 35c-72 0 -130 -22 -173 -67s-65 -100 -65 -165c0 -61 22 -113 57 -153zM597 491l-310 -348c37 -22 79 -33 124 -33c77 0 136 23 178 69c43 46 64 100 64 163c0 51 -19 106 -56 149zM333 733l83 156h149l-156 -156h-76z" />
    <glyph glyph-name="oslashacute" unicode="&#x1ff;" horiz-adv-x="580" 
d="M48 -8l58 66c-47 47 -70 109 -70 173c0 71 23 129 69 175s108 69 186 69c55 0 104 -13 145 -39l53 62l36 -33l-51 -58c45 -43 71 -102 71 -174c0 -74 -25 -133 -74 -177c-49 -43 -110 -65 -182 -65c-59 0 -106 14 -145 38l-60 -70zM398 320l-184 -211
c21 -14 46 -21 77 -21c80 0 132 58 132 145c0 35 -8 64 -25 87zM182 145l183 211c-23 15 -49 22 -78 22c-76 0 -130 -54 -130 -145c0 -36 8 -65 25 -88zM291 683h135l-134 -157h-73z" />
    <glyph glyph-name="Scommaaccent" unicode="&#x218;" horiz-adv-x="514" 
d="M442 640v-127c-55 47 -112 73 -173 73c-60 0 -91 -29 -91 -70c0 -39 28 -73 85 -103c57 -29 106 -61 146 -95c41 -33 61 -80 61 -140c0 -55 -20 -100 -61 -135s-92 -52 -155 -52c-72 0 -141 21 -202 60v138c60 -61 124 -92 191 -92c60 0 95 34 95 77c0 29 -12 52 -36 71
c-23 19 -60 41 -109 68c-97 55 -145 114 -145 199c0 52 20 95 60 128c40 34 92 51 155 51c67 0 128 -19 179 -51zM175 -262v18c36 13 55 36 56 69c-35 3 -53 24 -53 56c0 41 32 67 69 67c43 0 74 -32 74 -83c0 -69 -55 -120 -146 -127z" />
    <glyph glyph-name="scommaaccent" unicode="&#x219;" horiz-adv-x="417" 
d="M354 436v-99c-56 33 -94 48 -135 48c-39 0 -55 -16 -55 -33c0 -22 21 -43 64 -63c87 -39 149 -89 149 -161c0 -79 -64 -137 -168 -137c-51 0 -93 8 -164 40v106c48 -35 102 -57 145 -57c47 0 68 19 68 39c0 23 -22 45 -65 66c-43 22 -78 45 -106 69s-42 55 -42 93
c0 36 15 66 45 91s69 37 116 37c53 0 102 -13 148 -39zM131 -262v18c36 13 55 36 56 69c-35 3 -53 24 -53 56c0 41 32 67 69 67c43 0 74 -32 74 -83c0 -69 -55 -120 -146 -127z" />
    <glyph glyph-name="uni021A" unicode="&#x21a;" horiz-adv-x="646" 
d="M17 682h612v-112h-241v-570h-132v570h-239v112zM244 -262v18c36 13 55 36 56 69c-35 3 -53 24 -53 56c0 41 32 67 69 67c43 0 74 -32 74 -83c0 -69 -55 -120 -146 -127z" />
    <glyph glyph-name="uni021B" unicode="&#x21b;" horiz-adv-x="386" 
d="M4 389l187 188h8v-111h150v-93h-150v-197c0 -63 21 -85 66 -85c37 0 73 14 104 33v-100c-37 -21 -92 -33 -132 -33c-104 0 -155 53 -155 174v208h-78v16zM160 -262v18c36 13 55 36 56 69c-35 3 -53 24 -53 56c0 41 32 67 69 67c43 0 74 -32 74 -83
c0 -69 -55 -120 -146 -127z" />
    <glyph glyph-name="dotlessj" unicode="&#x237;" horiz-adv-x="241" 
d="M62 466h117v-499c0 -109 -31 -166 -122 -199l-64 87c55 20 69 55 69 120v491z" />
    <glyph glyph-name="schwa" unicode="&#x259;" horiz-adv-x="517" 
d="M35 234v18h327c-9 77 -64 129 -144 129c-60 0 -119 -19 -174 -54v95c60 37 119 53 194 53c72 0 130 -23 175 -69c45 -45 68 -104 68 -176c0 -71 -22 -129 -65 -173s-100 -66 -169 -66c-65 0 -116 22 -155 66c-38 45 -57 104 -57 177zM362 188h-215
c3 -68 40 -110 104 -110c61 0 108 46 111 110z" />
    <glyph glyph-name="uni02BC" unicode="&#x2bc;" horiz-adv-x="246" 
d="M45 403v23c35 25 52 55 52 114c-39 11 -60 35 -60 74c0 43 33 77 74 77c51 0 87 -50 87 -113c0 -84 -57 -152 -153 -175z" />
    <glyph glyph-name="circumflex" unicode="&#x2c6;" 
d="M97 683h137l89 -157h-74l-84 87l-82 -87h-73z" />
    <glyph glyph-name="caron" unicode="&#x2c7;" 
d="M-1 683h75l94 -87l92 87h76l-101 -157h-136z" />
    <glyph glyph-name="uni02C9" unicode="&#x2c9;" 
d="M23 646h287v-84h-287v84z" />
    <glyph glyph-name="breve" unicode="&#x2d8;" 
d="M12 664h77c11 -36 36 -60 79 -60s62 17 75 60h78c-4 -41 -20 -74 -49 -101s-64 -40 -105 -40c-84 0 -140 50 -155 141z" />
    <glyph glyph-name="dotaccent" unicode="&#x2d9;" 
d="M167 543c-39 0 -68 31 -68 68c0 36 29 67 68 67c37 0 68 -31 68 -67c0 -39 -31 -68 -68 -68z" />
    <glyph glyph-name="ring" unicode="&#x2da;" 
d="M265 623c0 -26 -10 -49 -29 -69c-19 -19 -43 -29 -70 -29c-56 0 -98 43 -98 98s42 99 98 99c53 0 99 -46 99 -99zM220 623c0 31 -23 55 -54 55s-53 -24 -53 -55s22 -53 53 -53s54 22 54 53z" />
    <glyph glyph-name="ogonek" unicode="&#x2db;" 
d="M130 9h71c-19 -23 -32 -50 -32 -70c0 -33 19 -50 57 -50c12 0 29 2 50 10v-73c-29 -13 -50 -16 -77 -16c-73 0 -111 38 -111 101c0 35 14 68 42 98z" />
    <glyph glyph-name="tilde" unicode="&#x2dc;" 
d="M177 646l36 -14c11 -4 20 -6 27 -6c21 0 34 13 37 40h58c0 -83 -43 -128 -98 -128c-20 0 -46 7 -77 20s-53 20 -66 20c-19 0 -33 -11 -36 -40h-60c0 73 40 128 99 128c25 0 53 -11 80 -20z" />
    <glyph glyph-name="hungarumlaut" unicode="&#x2dd;" 
d="M90 679h133l-133 -153h-70zM272 679h132l-133 -153h-71z" />
    <glyph glyph-name="gravecomb" unicode="&#x300;" horiz-adv-x="0" 
d="M-419 683h135l73 -157h-72z" />
    <glyph glyph-name="acutecomb" unicode="&#x301;" horiz-adv-x="0" 
d="M-289 683h135l-134 -157h-73z" />
    <glyph glyph-name="tildecomb" unicode="&#x303;" horiz-adv-x="0" 
d="M-262 646l36 -14c11 -4 20 -6 27 -6c23 0 33 15 36 40h58c0 -83 -43 -128 -98 -128c-19 0 -45 7 -76 20c-32 13 -54 20 -66 20c-19 0 -34 -11 -37 -40h-60c0 73 40 128 99 128c25 0 54 -11 81 -20z" />
    <glyph glyph-name="hookabovecomb" unicode="&#x309;" horiz-adv-x="0" 
d="M-323 511v83h21c24 0 42 10 42 29c0 21 -15 32 -45 32c-17 0 -41 -2 -57 -6v60c20 3 48 7 80 7c73 0 117 -33 117 -93c0 -51 -40 -78 -93 -81v-31h-65z" />
    <glyph glyph-name="dotbelowcomb" unicode="&#x323;" horiz-adv-x="0" 
d="M-290 -202c-39 0 -68 31 -68 67c0 37 29 68 68 68c37 0 68 -31 68 -68s-31 -67 -68 -67z" />
    <glyph glyph-name="numeralsigngreek" unicode="&#x374;" horiz-adv-x="239" 
d="M35 505l49 177h122l-94 -177h-77z" />
    <glyph glyph-name="numeralsignlowergreek" unicode="&#x375;" horiz-adv-x="239" 
d="M33 -85l94 177h77l-49 -177h-122z" />
    <glyph glyph-name="questiongreek" unicode="&#x37e;" horiz-adv-x="252" 
d="M53 -135v22c33 24 52 54 52 114c-39 11 -60 36 -60 75c0 43 34 76 74 76c52 0 87 -52 87 -112c0 -83 -56 -154 -153 -175zM126 326c-40 0 -74 33 -74 74c0 43 35 74 74 74c40 0 74 -33 74 -73s-33 -75 -74 -75z" />
    <glyph glyph-name="tonos" unicode="&#x384;" 
d="M106 526l48 147h128l-101 -147h-75z" />
    <glyph glyph-name="dieresistonos" unicode="&#x385;" 
d="M110 553l34 150h106l-80 -150h-60zM90 618c0 -31 -24 -56 -55 -56s-55 25 -55 56s24 55 55 55s55 -24 55 -55zM354 618c0 -31 -24 -56 -55 -56s-55 25 -55 56s24 55 55 55s55 -24 55 -55z" />
    <glyph glyph-name="Alphatonos" unicode="&#x386;" horiz-adv-x="719" 
d="M297 688h119l303 -685h-135l-79 181h-292l-76 -181h-135zM356 529l-101 -247h207zM20 512l48 170h128l-101 -170h-75z" />
    <glyph glyph-name="anoteleia" unicode="&#x387;" horiz-adv-x="239" 
d="M119 301c-40 0 -74 33 -74 74c0 43 35 74 74 74c40 0 74 -33 74 -73s-31 -75 -74 -75z" />
    <glyph glyph-name="Epsilontonos" unicode="&#x388;" horiz-adv-x="693" 
d="M210 682h424v-103h-292v-181h281v-103h-281v-191h301v-104h-433v682zM0 512l48 170h128l-101 -170h-75z" />
    <glyph glyph-name="Etatonos" unicode="&#x389;" horiz-adv-x="909" 
d="M212 682h132v-281h359v281h132v-682h-132v287h-359v-287h-132v682zM0 512l48 170h128l-101 -170h-75z" />
    <glyph glyph-name="Iotatonos" unicode="&#x38a;" horiz-adv-x="414" 
d="M208 682h132v-682h-132v682zM0 512l48 170h128l-101 -170h-75z" />
    <glyph glyph-name="Omicrontonos" unicode="&#x38c;" horiz-adv-x="899" 
d="M479 -9c-108 0 -196 33 -265 100s-103 150 -103 249c0 98 34 181 101 249s158 102 271 102c108 0 197 -33 267 -100c70 -66 105 -149 105 -249c0 -99 -35 -183 -104 -250s-159 -101 -272 -101zM480 110c71 0 129 21 173 62c45 42 67 99 67 170c0 64 -22 118 -66 163
c-43 45 -100 67 -170 67c-72 0 -130 -22 -173 -65s-65 -99 -65 -167c0 -66 22 -121 67 -165c45 -43 101 -65 167 -65zM0 512l48 170h128l-101 -170h-75z" />
    <glyph glyph-name="Upsilontonos" unicode="&#x38e;" horiz-adv-x="839" 
d="M192 682h148l174 -229l176 229h149l-256 -337v-345h-133v344zM0 512l48 170h128l-101 -170h-75z" />
    <glyph glyph-name="Omegatonos" unicode="&#x38f;" horiz-adv-x="862" 
d="M130 0v108h149c-108 79 -159 157 -159 285c0 88 32 160 96 215c65 55 149 83 253 83c105 0 189 -28 253 -85c64 -56 96 -127 96 -213c0 -128 -49 -206 -160 -285h150v-108h-281v106c103 68 157 148 157 269s-82 200 -217 200c-65 0 -117 -19 -156 -56
c-38 -37 -57 -85 -57 -142c0 -105 40 -194 155 -271v-106h-279zM0 512l48 170h128l-101 -170h-75z" />
    <glyph glyph-name="iotadieresistonos" unicode="&#x390;" horiz-adv-x="256" 
d="M62 102v364h117v-346c0 -25 7 -34 27 -34c13 0 32 7 48 16v-77c-35 -23 -71 -35 -108 -35c-67 0 -84 35 -84 112zM71 553l34 150h106l-80 -150h-60zM51 618c0 -31 -24 -56 -55 -56s-55 25 -55 56s24 55 55 55s55 -24 55 -55zM315 618c0 -31 -24 -56 -55 -56
s-55 25 -55 56s24 55 55 55s55 -24 55 -55z" />
    <glyph glyph-name="Alpha" unicode="&#x391;" horiz-adv-x="717" 
d="M295 685h119l303 -685h-135l-79 181h-292l-76 -181h-135zM354 526l-101 -247h207z" />
    <glyph glyph-name="Beta" unicode="&#x392;" horiz-adv-x="618" 
d="M74 682h240c141 0 220 -69 220 -172c0 -68 -37 -118 -101 -145c103 -25 156 -93 156 -177c0 -123 -97 -188 -261 -188h-254v682zM205 587v-194h71c89 0 128 40 128 100c0 65 -35 94 -116 94h-83zM205 95h98c103 0 152 31 152 102c0 64 -46 102 -155 102h-95v-204z" />
    <glyph glyph-name="Gamma" unicode="&#x393;" horiz-adv-x="533" 
d="M78 0v682h442v-113h-310v-569h-132z" />
    <glyph glyph-name="uni0394" unicode="&#x394;" horiz-adv-x="713" 
d="M0 0l300 686h114l299 -686h-713zM179 107h353l-176 418z" />
    <glyph glyph-name="Epsilon" unicode="&#x395;" horiz-adv-x="557" 
d="M74 682h424v-103h-292v-181h281v-103h-281v-191h301v-104h-433v682z" />
    <glyph glyph-name="Zeta" unicode="&#x396;" horiz-adv-x="672" 
d="M42 682h610l-408 -571h408v-111h-639l409 571h-380v111z" />
    <glyph glyph-name="Eta" unicode="&#x397;" horiz-adv-x="771" 
d="M74 682h132v-281h359v281h132v-682h-132v287h-359v-287h-132v682z" />
    <glyph glyph-name="Theta" unicode="&#x398;" horiz-adv-x="837" 
d="M414 -9c-109 0 -198 34 -267 101c-69 68 -103 151 -103 248c0 98 34 181 102 249s159 102 272 102c109 0 198 -33 269 -99s106 -149 106 -250c0 -100 -35 -184 -105 -251c-69 -67 -161 -100 -274 -100zM415 105c77 0 137 23 180 70c44 47 66 102 66 167
c0 64 -22 119 -67 165c-45 47 -103 70 -175 70c-73 0 -132 -23 -177 -69c-44 -45 -66 -101 -66 -168c0 -68 23 -124 68 -169c46 -44 103 -66 171 -66zM242 396h353v-102h-353v102z" />
    <glyph glyph-name="Iota" unicode="&#x399;" horiz-adv-x="280" 
d="M74 682h132v-682h-132v682z" />
    <glyph glyph-name="Kappa" unicode="&#x39a;" horiz-adv-x="695" 
d="M74 682h133v-313l273 313h154l-282 -322l345 -360h-171l-319 334v-334h-133v682z" />
    <glyph glyph-name="Lambda" unicode="&#x39b;" horiz-adv-x="687" 
d="M687 0h-133l-209 488l-210 -488h-135l302 688h86z" />
    <glyph glyph-name="Mu" unicode="&#x39c;" horiz-adv-x="833" 
d="M74 682h122l221 -272l220 272h121v-682h-132v487l-201 -252h-18l-203 252v-487h-130v682z" />
    <glyph glyph-name="Nu" unicode="&#x39d;" horiz-adv-x="813" 
d="M74 682h113l423 -481v481h129v-682h-116l-420 478v-478h-129v682z" />
    <glyph glyph-name="Xi" unicode="&#x39e;" horiz-adv-x="643" 
d="M41 0v110h560v-110h-560zM106 290v109h430v-109h-430zM49 572v110h544v-109z" />
    <glyph glyph-name="Omicron" unicode="&#x39f;" horiz-adv-x="832" 
d="M412 -9c-108 0 -196 33 -265 100s-103 150 -103 249c0 98 34 181 101 249s158 102 271 102c108 0 197 -33 267 -100c70 -66 105 -149 105 -249c0 -99 -35 -183 -104 -250s-159 -101 -272 -101zM413 110c71 0 129 21 173 62c45 42 67 99 67 170c0 64 -22 118 -66 163
c-43 45 -100 67 -170 67c-72 0 -130 -22 -173 -65s-65 -99 -65 -167c0 -66 22 -121 67 -165c45 -43 101 -65 167 -65z" />
    <glyph glyph-name="Pi" unicode="&#x3a0;" horiz-adv-x="769" 
d="M74 0v682h621v-682h-132v568h-357v-568h-132z" />
    <glyph glyph-name="Rho" unicode="&#x3a1;" horiz-adv-x="582" 
d="M74 682h245c147 0 235 -72 235 -200c0 -125 -84 -199 -240 -199h-108v-283h-132v682zM206 582v-198h88c87 0 125 30 125 99c0 64 -33 99 -128 99h-85z" />
    <glyph glyph-name="Sigma" unicode="&#x3a3;" horiz-adv-x="638" 
d="M14 0l281 345l-281 337h577v-111h-329l186 -227l-186 -233h352v-111h-600z" />
    <glyph glyph-name="Tau" unicode="&#x3a4;" horiz-adv-x="646" 
d="M17 682h612v-112h-241v-570h-132v570h-239v112z" />
    <glyph glyph-name="Upsilon" unicode="&#x3a5;" horiz-adv-x="647" 
d="M0 682h148l174 -229l176 229h149l-256 -337v-345h-133v344z" />
    <glyph glyph-name="Phi" unicode="&#x3a6;" horiz-adv-x="828" 
d="M350 -9v110c-93 5 -168 30 -223 75s-83 103 -83 174c0 140 117 231 306 242v99h128v-99c93 -4 167 -29 222 -75c56 -45 84 -101 84 -168c0 -71 -28 -129 -84 -174c-55 -45 -129 -70 -222 -74v-110h-128zM350 205v282c-115 -3 -171 -63 -171 -139c0 -84 60 -138 171 -143z
M478 487v-282c113 4 171 64 171 144c0 81 -70 135 -171 138z" />
    <glyph glyph-name="Chi" unicode="&#x3a7;" horiz-adv-x="755" 
d="M21 682h165l191 -235c29 37 58 75 89 112l100 123h162l-269 -328l293 -354h-164l-120 145c-51 62 -82 99 -91 111c-23 -29 -52 -65 -87 -107l-123 -149h-164l292 354z" />
    <glyph glyph-name="Psi" unicode="&#x3a8;" horiz-adv-x="819" 
d="M345 -9v117c-209 23 -296 163 -296 424v35h132c0 -115 12 -199 37 -252s68 -85 127 -94v470h129v-470c58 9 100 39 125 91c26 53 39 138 39 255h132v-35c0 -263 -95 -399 -296 -424v-117h-129z" />
    <glyph glyph-name="uni03A9" unicode="&#x3a9;" horiz-adv-x="786" 
d="M54 0v108h149c-108 79 -159 157 -159 285c0 88 32 160 96 215c65 55 149 83 253 83c105 0 189 -28 253 -85c64 -56 96 -127 96 -213c0 -128 -49 -206 -160 -285h150v-108h-281v106c103 68 157 148 157 269s-82 200 -217 200c-65 0 -117 -19 -156 -56
c-38 -37 -57 -85 -57 -142c0 -105 40 -194 155 -271v-106h-279z" />
    <glyph glyph-name="Iotadieresis" unicode="&#x3aa;" horiz-adv-x="280" 
d="M74 682h132v-682h-132v682zM104 813c0 -33 -28 -61 -60 -61c-33 0 -61 28 -61 61c0 32 28 60 61 60c32 0 60 -28 60 -60zM298 813c0 -33 -27 -61 -60 -61c-32 0 -60 28 -60 61s28 60 60 60c33 0 60 -28 60 -60z" />
    <glyph glyph-name="Upsilondieresis" unicode="&#x3ab;" horiz-adv-x="647" 
d="M0 682h148l174 -229l176 229h149l-256 -337v-345h-133v344zM286 813c0 -33 -28 -61 -60 -61c-33 0 -61 28 -61 61c0 32 28 60 61 60c32 0 60 -28 60 -60zM480 813c0 -33 -27 -61 -60 -61c-32 0 -60 28 -60 61s28 60 60 60c33 0 60 -28 60 -60z" />
    <glyph glyph-name="alphatonos" unicode="&#x3ac;" horiz-adv-x="566" 
d="M554 102v-79c-44 -24 -77 -32 -100 -32c-43 0 -67 22 -75 57c-41 -39 -88 -58 -139 -58c-61 0 -110 23 -148 68c-37 45 -56 104 -56 176c0 70 21 128 62 173s96 68 163 68c37 0 74 -10 111 -29v20h117v-335c0 -33 5 -44 24 -44s28 8 41 15zM372 132v221
c-25 17 -53 26 -85 27c-85 0 -130 -59 -130 -147c0 -97 45 -148 113 -148c43 0 75 19 102 47zM220 526l48 147h128l-101 -147h-75z" />
    <glyph glyph-name="epsilontonos" unicode="&#x3ad;" horiz-adv-x="454" 
d="M421 118v-97c-47 -21 -115 -31 -175 -31c-129 0 -207 49 -207 137c0 56 40 98 104 113v3c-56 12 -90 55 -90 102c0 73 58 130 189 130c57 0 115 -10 164 -33v-90c-43 19 -90 31 -139 31c-60 0 -94 -17 -94 -50c0 -43 34 -58 106 -58h43v-83h-55c-64 0 -107 -15 -107 -52
c0 -41 35 -58 114 -58c52 0 101 12 147 36zM197 526l48 147h128l-101 -147h-75z" />
    <glyph glyph-name="etatonos" unicode="&#x3ae;" horiz-adv-x="553" 
d="M77 0v339c0 23 -8 34 -23 34c-13 0 -29 -8 -42 -17v84c35 21 69 34 97 34c45 0 71 -24 80 -72c43 45 88 73 148 73c103 0 159 -73 159 -189v-515h-117v502c0 71 -28 107 -83 107c-39 0 -73 -21 -102 -64v-316h-117zM243 526l48 147h128l-101 -147h-75z" />
    <glyph glyph-name="iotatonos" unicode="&#x3af;" horiz-adv-x="256" 
d="M62 102v364h117v-346c0 -25 7 -34 27 -34c13 0 32 7 48 16v-77c-35 -23 -71 -35 -108 -35c-67 0 -84 35 -84 112zM65 526l48 147h128l-101 -147h-75z" />
    <glyph glyph-name="upsilondieresistonos" unicode="&#x3b0;" horiz-adv-x="532" 
d="M57 200v266h117v-268c0 -67 25 -110 92 -110c64 0 92 43 92 112v266h117v-262c0 -140 -73 -213 -208 -213c-145 0 -210 69 -210 209zM210 553l34 150h106l-80 -150h-60zM190 618c0 -31 -24 -56 -55 -56s-55 25 -55 56s24 55 55 55s55 -24 55 -55zM454 618
c0 -31 -24 -56 -55 -56s-55 25 -55 56s24 55 55 55s55 -24 55 -55z" />
    <glyph glyph-name="alpha" unicode="&#x3b1;" horiz-adv-x="566" 
d="M554 102v-79c-44 -24 -77 -32 -100 -32c-43 0 -67 22 -75 57c-41 -39 -88 -58 -139 -58c-61 0 -110 23 -148 68c-37 45 -56 104 -56 176c0 70 21 128 62 173s96 68 163 68c37 0 74 -10 111 -29v20h117v-335c0 -33 5 -44 24 -44s28 8 41 15zM372 132v221
c-25 17 -53 26 -85 27c-85 0 -130 -59 -130 -147c0 -97 45 -148 113 -148c43 0 75 19 102 47z" />
    <glyph glyph-name="beta" unicode="&#x3b2;" horiz-adv-x="549" 
d="M179 30v-261h-117v691c0 157 74 231 214 231c128 0 205 -70 205 -177c0 -57 -35 -115 -98 -138c84 -21 130 -83 130 -179c0 -61 -19 -111 -57 -150c-37 -38 -88 -57 -151 -57c-44 0 -91 12 -126 40zM179 463v-268c0 -68 41 -108 109 -108c65 0 104 44 104 116
c0 76 -41 120 -134 123v90h7c63 0 99 29 99 93c0 51 -36 85 -89 85c-68 0 -96 -42 -96 -131z" />
    <glyph glyph-name="gamma" unicode="&#x3b3;" horiz-adv-x="525" 
d="M12 364l-20 78c28 27 59 34 91 34c47 0 83 -19 108 -56s54 -118 87 -243c11 36 28 81 51 135s46 105 71 153h125c-37 -67 -76 -146 -116 -239c-40 -92 -69 -169 -87 -231c11 -36 18 -66 18 -105c0 -76 -28 -119 -68 -119c-39 0 -67 40 -67 113c0 35 8 78 19 111
c-44 167 -78 272 -101 317s-48 67 -74 67c-13 0 -26 -5 -37 -15z" />
    <glyph glyph-name="delta" unicode="&#x3b4;" horiz-adv-x="580" 
d="M477 649l-33 -87c-49 23 -104 39 -161 39c-49 0 -76 -9 -76 -28c0 -23 37 -49 112 -79c151 -59 226 -137 226 -261c0 -72 -24 -130 -72 -175c-47 -45 -110 -67 -187 -67c-74 0 -134 23 -181 68c-46 46 -69 102 -69 168c0 112 72 197 187 213c-97 45 -128 89 -128 134
c0 69 59 117 191 117c64 0 128 -14 191 -42zM287 372c-76 0 -130 -59 -130 -142c0 -88 51 -142 131 -142c83 0 135 58 135 146c0 83 -53 138 -136 138z" />
    <glyph glyph-name="epsilon" unicode="&#x3b5;" horiz-adv-x="454" 
d="M421 118v-97c-47 -21 -115 -31 -175 -31c-129 0 -207 49 -207 137c0 56 40 98 104 113v3c-56 12 -90 55 -90 102c0 73 58 130 189 130c57 0 115 -10 164 -33v-90c-43 19 -90 31 -139 31c-60 0 -94 -17 -94 -50c0 -43 34 -58 106 -58h43v-83h-55c-64 0 -107 -15 -107 -52
c0 -41 35 -58 114 -58c52 0 101 12 147 36z" />
    <glyph glyph-name="zeta" unicode="&#x3b6;" horiz-adv-x="475" 
d="M155 -219l26 94l32 -3c10 -1 19 -2 27 -2c60 0 93 26 93 66c0 41 -31 62 -94 62c-125 0 -198 53 -198 194c0 95 44 202 163 354c-73 16 -113 40 -149 79l63 72c51 -43 110 -69 165 -73c48 35 107 59 150 59c41 0 62 -14 62 -43c0 -31 -19 -56 -58 -76s-82 -31 -131 -32
c-108 -128 -144 -244 -144 -328c0 -44 9 -72 27 -84c18 -11 51 -18 98 -19c95 -3 163 -53 163 -156c0 -51 -19 -93 -58 -125c-39 -33 -89 -49 -151 -49c-33 0 -58 3 -86 10z" />
    <glyph glyph-name="eta" unicode="&#x3b7;" horiz-adv-x="553" 
d="M77 0v339c0 23 -8 34 -23 34c-13 0 -29 -8 -42 -17v84c35 21 69 34 97 34c45 0 71 -24 80 -72c43 45 88 73 148 73c103 0 159 -73 159 -189v-515h-117v502c0 71 -28 107 -83 107c-39 0 -73 -21 -102 -64v-316h-117z" />
    <glyph glyph-name="theta" unicode="&#x3b8;" horiz-adv-x="533" 
d="M267 692c68 0 123 -31 166 -92s64 -146 64 -255c0 -225 -87 -353 -231 -353c-139 0 -230 122 -230 345c0 110 21 197 62 260c42 63 98 95 169 95zM377 294h-221c7 -141 41 -202 110 -202c71 0 108 63 111 202zM156 387h221c-3 137 -40 205 -112 205
c-68 0 -106 -68 -109 -205z" />
    <glyph glyph-name="iota" unicode="&#x3b9;" horiz-adv-x="256" 
d="M62 102v364h117v-346c0 -25 7 -34 27 -34c13 0 32 7 48 16v-77c-35 -23 -71 -35 -108 -35c-67 0 -84 35 -84 112z" />
    <glyph glyph-name="kappa" unicode="&#x3ba;" horiz-adv-x="550" 
d="M62 0v466h117v-222l140 158c44 51 83 73 134 73c28 0 49 -7 68 -16v-97c-13 7 -31 12 -50 12c-25 0 -50 -14 -73 -41l-80 -88l232 -245h-148l-223 237v-237h-117z" />
    <glyph glyph-name="lambda" unicode="&#x3bb;" horiz-adv-x="496" 
d="M0 0l186 449c-3 5 -13 30 -31 73c-17 43 -41 69 -72 76l45 94c61 -7 98 -41 131 -120l145 -363c20 -50 35 -82 44 -96c10 -13 26 -24 48 -33l-47 -89c-29 3 -55 16 -76 39s-45 65 -70 126l-60 154l-125 -310h-118z" />
    <glyph glyph-name="uni03BC" unicode="&#x3bc;" horiz-adv-x="558" 
d="M62 -230v694h116v-312c27 -48 60 -66 92 -66c60 0 96 36 96 96v282h116v-343c0 -28 9 -39 26 -39c13 0 26 6 37 14v-80c-28 -19 -64 -25 -87 -25c-47 0 -74 20 -83 61c-28 -44 -60 -61 -100 -61c-43 0 -70 21 -97 62v-283h-116z" />
    <glyph glyph-name="nu" unicode="&#x3bd;" horiz-adv-x="500" 
d="M199 -6l-199 472h126l127 -318c30 37 55 77 74 119c20 43 30 79 30 108c0 31 -15 56 -44 73l114 26c32 -16 50 -52 50 -91c0 -46 -21 -105 -62 -176s-93 -142 -157 -213h-59z" />
    <glyph glyph-name="xi" unicode="&#x3be;" horiz-adv-x="466" 
d="M153 -217l30 96c28 -6 51 -9 70 -9c49 0 83 25 83 64c0 47 -40 62 -108 62c-124 4 -190 77 -190 186c0 97 55 177 156 220c-43 21 -62 51 -62 90c0 27 10 52 33 75c-43 12 -89 37 -120 76l70 66c39 -39 90 -61 130 -68c48 28 93 46 144 46c43 0 72 -14 72 -46
c0 -48 -76 -90 -197 -90c-15 -13 -22 -31 -22 -48c0 -32 23 -58 106 -58h53v-91h-39c-127 0 -202 -50 -202 -158c0 -62 33 -94 100 -96c133 -3 193 -63 193 -158c0 -51 -19 -92 -58 -123c-38 -32 -88 -48 -151 -48c-33 0 -62 3 -91 12z" />
    <glyph glyph-name="omicron" unicode="&#x3bf;" horiz-adv-x="580" 
d="M289 -9c-76 0 -137 23 -184 69c-46 47 -69 104 -69 171c0 71 23 129 69 175s108 69 186 69c77 0 138 -23 184 -68c47 -45 70 -103 70 -174c0 -74 -25 -133 -74 -177c-49 -43 -110 -65 -182 -65zM291 88c80 0 132 58 132 145c0 89 -55 145 -136 145
c-76 0 -130 -54 -130 -145c0 -92 55 -145 134 -145z" />
    <glyph glyph-name="pi" unicode="&#x3c0;" horiz-adv-x="641" 
d="M111 0v367c-36 -3 -57 -6 -97 -25v96c35 19 81 27 121 27h492v-99h-95v-366h-117v366h-187v-366h-117z" />
    <glyph glyph-name="rho" unicode="&#x3c1;" horiz-adv-x="597" 
d="M57 -228v448c0 79 23 142 68 187s106 68 183 68c74 0 135 -23 182 -68c48 -45 72 -102 72 -172c0 -71 -23 -129 -70 -175s-105 -69 -174 -69c-59 0 -100 14 -144 57v-276h-117zM305 379c-84 0 -131 -63 -131 -148c0 -88 50 -143 133 -143s134 54 134 146
c0 84 -49 145 -136 145z" />
    <glyph glyph-name="sigma1" unicode="&#x3c2;" horiz-adv-x="484" 
d="M152 -219l29 96c23 -4 44 -7 63 -7c59 0 91 31 91 71c0 37 -30 56 -91 58c-61 1 -111 19 -150 53c-39 35 -58 88 -58 159c0 72 23 134 70 186s112 78 195 78c63 0 104 -11 157 -40l-40 -95c-40 24 -82 33 -117 33c-93 0 -144 -68 -144 -161c0 -69 35 -105 105 -110
c140 -9 190 -62 190 -158c0 -49 -20 -90 -60 -123s-91 -50 -153 -50c-29 0 -58 3 -87 10z" />
    <glyph glyph-name="sigma" unicode="&#x3c3;" horiz-adv-x="620" 
d="M292 466h314v-97h-128c39 -31 67 -81 67 -145c0 -65 -24 -121 -71 -166s-109 -67 -184 -67s-136 22 -183 66c-47 45 -71 102 -71 171s23 125 70 170s109 68 186 68zM290 88c81 0 134 55 134 143c0 80 -55 138 -134 138c-84 0 -133 -59 -133 -140c0 -84 50 -141 133 -141z
" />
    <glyph glyph-name="tau" unicode="&#x3c4;" horiz-adv-x="463" 
d="M173 0v367c-47 0 -81 -2 -101 -6s-39 -11 -58 -22v98c37 21 77 29 121 29h314v-99h-159v-367h-117z" />
    <glyph glyph-name="upsilon" unicode="&#x3c5;" horiz-adv-x="532" 
d="M57 200v266h117v-268c0 -67 25 -110 92 -110c64 0 92 43 92 112v266h117v-262c0 -140 -73 -213 -208 -213c-145 0 -210 69 -210 209z" />
    <glyph glyph-name="phi" unicode="&#x3c6;" horiz-adv-x="680" 
d="M281 -229v229c-74 4 -133 27 -178 69c-45 43 -67 97 -67 163c0 65 23 119 68 162c46 43 105 66 177 70v218h117v-218c75 -4 134 -28 179 -71s67 -96 67 -161c0 -133 -91 -220 -246 -232v-229h-117zM281 93v278c-77 -7 -125 -61 -125 -137c0 -80 53 -136 125 -141z
M398 371v-278c73 9 125 54 125 137c0 80 -49 137 -125 141z" />
    <glyph glyph-name="chi" unicode="&#x3c7;" horiz-adv-x="495" 
d="M2 -222l186 356l-76 137l-32 56c-11 19 -22 32 -31 39s-24 13 -45 18l35 92c39 -3 69 -14 91 -35s47 -58 75 -111l50 -91l116 227h120l-175 -330l105 -185c20 -35 36 -57 49 -66s26 -15 40 -16l-47 -101c-25 0 -48 9 -69 26s-47 56 -80 116l-66 120l-126 -252h-120z" />
    <glyph glyph-name="psi" unicode="&#x3c8;" horiz-adv-x="654" 
d="M269 -229v228c-148 9 -212 93 -212 260v207h117v-216c0 -92 31 -150 95 -155v587h117v-587c59 11 95 50 95 146v225h116v-208c0 -159 -70 -244 -211 -259v-228h-117z" />
    <glyph glyph-name="omega" unicode="&#x3c9;" horiz-adv-x="803" 
d="M344 231v65h117v-66c0 -93 34 -142 94 -142c59 0 90 59 90 146c0 63 -17 133 -76 232h125c44 -64 71 -154 71 -229c0 -149 -77 -246 -202 -246c-84 0 -134 37 -162 104c-35 -68 -80 -104 -163 -104c-123 0 -201 93 -201 244c0 73 24 150 72 231h125
c-56 -92 -77 -163 -77 -235c0 -84 29 -143 88 -143s99 43 99 143z" />
    <glyph glyph-name="iotadieresis" unicode="&#x3ca;" horiz-adv-x="256" 
d="M62 102v364h117v-346c0 -25 7 -34 27 -34c13 0 32 7 48 16v-77c-35 -23 -71 -35 -108 -35c-67 0 -84 35 -84 112zM83 610c0 -32 -27 -59 -60 -59c-32 0 -59 27 -59 59s27 59 59 59s60 -27 60 -59zM275 610c0 -32 -26 -59 -58 -59c-33 0 -60 27 -60 59s27 59 60 59
c32 0 58 -27 58 -59z" />
    <glyph glyph-name="upsilondieresis" unicode="&#x3cb;" horiz-adv-x="532" 
d="M57 200v266h117v-268c0 -67 25 -110 92 -110c64 0 92 43 92 112v266h117v-262c0 -140 -73 -213 -208 -213c-145 0 -210 69 -210 209zM232 634c0 -32 -27 -59 -60 -59c-32 0 -59 27 -59 59s27 59 59 59s60 -27 60 -59zM424 634c0 -32 -26 -59 -58 -59c-33 0 -60 27 -60 59
s27 59 60 59c32 0 58 -27 58 -59z" />
    <glyph glyph-name="omicrontonos" unicode="&#x3cc;" horiz-adv-x="580" 
d="M289 -9c-76 0 -137 23 -184 69c-46 47 -69 104 -69 171c0 71 23 129 69 175s108 69 186 69c77 0 138 -23 184 -68c47 -45 70 -103 70 -174c0 -74 -25 -133 -74 -177c-49 -43 -110 -65 -182 -65zM291 88c80 0 132 58 132 145c0 89 -55 145 -136 145
c-76 0 -130 -54 -130 -145c0 -92 55 -145 134 -145zM240 526l48 147h128l-101 -147h-75z" />
    <glyph glyph-name="upsilontonos" unicode="&#x3cd;" horiz-adv-x="532" 
d="M57 200v266h117v-268c0 -67 25 -110 92 -110c64 0 92 43 92 112v266h117v-262c0 -140 -73 -213 -208 -213c-145 0 -210 69 -210 209zM218 526l48 147h128l-101 -147h-75z" />
    <glyph glyph-name="omegatonos" unicode="&#x3ce;" horiz-adv-x="803" 
d="M344 231v65h117v-66c0 -93 34 -142 94 -142c59 0 90 59 90 146c0 63 -17 133 -76 232h125c44 -64 71 -154 71 -229c0 -149 -77 -246 -202 -246c-84 0 -134 37 -162 104c-35 -68 -80 -104 -163 -104c-123 0 -201 93 -201 244c0 73 24 150 72 231h125
c-56 -92 -77 -163 -77 -235c0 -84 29 -143 88 -143s99 43 99 143zM353 526l48 147h128l-101 -147h-75z" />
    <glyph glyph-name="uni0400" unicode="&#x400;" horiz-adv-x="557" 
d="M74 682h424v-103h-292v-181h281v-103h-281v-191h301v-104h-433v682zM137 889h149l83 -156h-75z" />
    <glyph glyph-name="uni0401" unicode="&#x401;" horiz-adv-x="557" 
d="M74 682h424v-103h-292v-181h281v-103h-281v-191h301v-104h-433v682zM248 813c0 -33 -28 -61 -60 -61c-33 0 -61 28 -61 61c0 32 28 60 61 60c32 0 60 -28 60 -60zM442 813c0 -33 -27 -61 -60 -61c-32 0 -60 28 -60 61s28 60 60 60c33 0 60 -28 60 -60z" />
    <glyph glyph-name="uni0402" unicode="&#x402;" horiz-adv-x="799" 
d="M251 0v571h-234v112h601v-112h-235v-163c35 23 86 39 151 39c141 0 229 -84 229 -221c0 -71 -22 -128 -66 -171c-43 -43 -102 -64 -177 -64c-29 0 -54 3 -75 9v104c15 -5 47 -9 68 -9c72 0 117 51 117 130s-45 119 -125 119c-44 0 -95 -14 -122 -37v-307h-132z" />
    <glyph glyph-name="uni0403" unicode="&#x403;" horiz-adv-x="520" 
d="M78 0v682h428v-112h-296v-570h-132zM220 733l83 156h149l-156 -156h-76z" />
    <glyph glyph-name="uni0404" unicode="&#x404;" horiz-adv-x="718" 
d="M186 397h344v-108h-345c11 -57 38 -102 83 -136c45 -33 102 -50 169 -50c75 0 149 22 233 73v-125c-79 -41 -154 -60 -250 -60c-115 0 -206 34 -274 103s-102 149 -102 241c0 102 36 187 107 254c71 68 163 102 275 102c83 0 155 -16 235 -52v-126
c-78 44 -154 66 -228 66c-63 0 -117 -17 -162 -50s-73 -77 -85 -132z" />
    <glyph glyph-name="uni0405" unicode="&#x405;" horiz-adv-x="514" 
d="M442 640v-127c-55 47 -112 73 -173 73c-60 0 -91 -29 -91 -70c0 -39 28 -73 85 -103c57 -29 106 -61 146 -95c41 -33 61 -80 61 -140c0 -55 -20 -100 -61 -135s-92 -52 -155 -52c-72 0 -141 21 -202 60v138c60 -61 124 -92 191 -92c60 0 95 34 95 77c0 29 -12 52 -36 71
c-23 19 -60 41 -109 68c-97 55 -145 114 -145 199c0 52 20 95 60 128c40 34 92 51 155 51c67 0 128 -19 179 -51z" />
    <glyph glyph-name="uni0406" unicode="&#x406;" horiz-adv-x="280" 
d="M74 682h132v-682h-132v682z" />
    <glyph glyph-name="uni0407" unicode="&#x407;" horiz-adv-x="280" 
d="M74 682h132v-682h-132v682zM104 813c0 -33 -28 -61 -60 -61c-33 0 -61 28 -61 61c0 32 28 60 61 60c32 0 60 -28 60 -60zM298 813c0 -33 -27 -61 -60 -61c-32 0 -60 28 -60 61s28 60 60 60c33 0 60 -28 60 -60z" />
    <glyph glyph-name="uni0408" unicode="&#x408;" horiz-adv-x="285" 
d="M79 682h132v-654c0 -93 -16 -159 -48 -197c-31 -39 -82 -58 -152 -58c-16 0 -29 1 -45 4l-23 115c61 0 98 9 113 26s23 57 23 121v643z" />
    <glyph glyph-name="uni0409" unicode="&#x409;" horiz-adv-x="909" 
d="M510 0l-188 518h-2l-190 -518h-130l275 686h104l106 -272h143c77 0 138 -19 184 -57c46 -37 69 -88 69 -152c0 -60 -22 -109 -67 -148c-44 -38 -104 -57 -180 -57h-124zM606 106h31c68 0 109 37 109 98c0 64 -43 103 -111 103h-108z" />
    <glyph glyph-name="uni040A" unicode="&#x40a;" horiz-adv-x="1017" 
d="M74 682h132v-275h298v275h132v-275h100c156 0 253 -80 253 -205c0 -60 -22 -109 -67 -146s-104 -56 -179 -56h-239v301h-298v-301h-132v682zM636 106h109c68 0 109 35 109 95c0 64 -42 100 -110 100h-108v-195z" />
    <glyph glyph-name="uni040B" unicode="&#x40b;" horiz-adv-x="830" 
d="M17 682h599v-112h-235v-147c35 15 89 28 157 28c172 0 250 -77 250 -264v-187h-132v187c0 59 -10 100 -30 122s-57 33 -112 33c-53 0 -96 -9 -133 -24v-318h-132v570h-232v112z" />
    <glyph glyph-name="uni040C" unicode="&#x40c;" horiz-adv-x="644" 
d="M74 0v682h132v-272h8c33 0 59 7 79 20s42 46 65 99l5 13c23 55 49 93 77 112c29 20 68 30 117 30h9l8 -1c3 0 9 0 17 -1l-1 -107h-8c-30 0 -53 -6 -70 -17c-16 -11 -32 -38 -48 -79c-24 -64 -59 -104 -94 -121c33 -13 60 -32 81 -56s49 -68 83 -132l93 -170h-147l-86 160
c-31 61 -59 101 -82 120c-23 20 -56 30 -99 30h-7v-310h-132zM249 733l83 156h149l-156 -156h-76z" />
    <glyph glyph-name="uni040D" unicode="&#x40d;" horiz-adv-x="775" 
d="M74 -6v688h132v-468l420 468h75v-682h-132v453l-422 -459h-73zM229 889h149l83 -156h-75z" />
    <glyph glyph-name="uni040E" unicode="&#x40e;" horiz-adv-x="697" 
d="M127 -147v108c23 -21 54 -32 95 -32c43 0 78 33 87 74l-299 679h135l225 -529l186 529h132l-253 -662c-51 -133 -112 -193 -204 -193c-40 0 -73 10 -104 26zM180 882h83c11 -43 42 -65 92 -65c45 0 74 22 87 65h83c-15 -97 -80 -153 -172 -153c-99 0 -161 57 -173 153z
" />
    <glyph glyph-name="uni040F" unicode="&#x40f;" horiz-adv-x="768" 
d="M74 0v682h132v-569h356v569h132v-682h-246v-140h-129v140h-245z" />
    <glyph glyph-name="uni0410" unicode="&#x410;" horiz-adv-x="717" 
d="M295 685h119l303 -685h-135l-79 181h-292l-76 -181h-135zM354 526l-101 -247h207z" />
    <glyph glyph-name="uni0411" unicode="&#x411;" horiz-adv-x="636" 
d="M78 0v682h473v-103h-341v-161h135c80 0 143 -19 189 -57s69 -89 69 -152s-23 -114 -69 -152s-107 -57 -182 -57h-274zM210 103h134c72 0 124 43 124 106c0 69 -51 106 -136 106h-122v-212z" />
    <glyph glyph-name="uni0412" unicode="&#x412;" horiz-adv-x="618" 
d="M74 682h240c141 0 220 -69 220 -172c0 -68 -37 -118 -101 -145c103 -25 156 -93 156 -177c0 -123 -97 -188 -261 -188h-254v682zM205 587v-194h71c89 0 128 40 128 100c0 65 -35 94 -116 94h-83zM205 95h98c103 0 152 31 152 102c0 64 -46 102 -155 102h-95v-204z" />
    <glyph glyph-name="uni0413" unicode="&#x413;" horiz-adv-x="520" 
d="M78 0v682h428v-112h-296v-570h-132z" />
    <glyph glyph-name="uni0414" unicode="&#x414;" horiz-adv-x="744" 
d="M12 -140v248h72l223 577h118l235 -577h72v-248h-129v140h-463v-140h-128zM213 106h317l-164 427z" />
    <glyph glyph-name="uni0415" unicode="&#x415;" horiz-adv-x="557" 
d="M74 682h424v-103h-292v-181h281v-103h-281v-191h301v-104h-433v682z" />
    <glyph glyph-name="uni0416" unicode="&#x416;" horiz-adv-x="969" 
d="M17 0l87 153c43 74 76 124 99 149c23 26 49 44 77 55c-40 20 -74 63 -97 115l-13 33c-25 60 -54 70 -114 70l-2 107l19 2h18c93 0 141 -29 180 -117l18 -43c36 -83 67 -114 123 -114h7v272h132v-272h6c27 0 49 8 67 25s38 50 59 98l18 41c33 73 84 110 177 110h18l19 -2
l-1 -107c-63 0 -89 -17 -109 -61l-17 -37c-30 -62 -63 -102 -99 -120c53 -19 90 -56 125 -116l138 -241h-149l-82 152c-35 62 -64 104 -87 125c-23 22 -49 33 -80 33h-3v-310h-132v310h-3c-31 0 -58 -11 -81 -32s-51 -63 -85 -124l-84 -154h-149z" />
    <glyph glyph-name="uni0417" unicode="&#x417;" horiz-adv-x="557" 
d="M47 32v118c60 -36 127 -51 188 -51c97 0 141 34 141 98c0 61 -44 97 -152 97h-78v102h94c88 0 132 43 132 99c0 57 -41 89 -132 89c-29 0 -61 -4 -97 -13s-66 -20 -90 -33v111c64 27 139 42 210 42c153 0 238 -67 238 -175c0 -75 -43 -132 -119 -160
c84 -31 127 -90 127 -167c0 -120 -100 -198 -264 -198c-60 0 -142 17 -198 41z" />
    <glyph glyph-name="uni0418" unicode="&#x418;" horiz-adv-x="775" 
d="M74 -6v688h132v-468l420 468h75v-682h-132v453l-422 -459h-73z" />
    <glyph glyph-name="uni0419" unicode="&#x419;" horiz-adv-x="775" 
d="M74 -6v688h132v-468l420 468h75v-682h-132v453l-422 -459h-73zM218 882h83c11 -43 42 -65 92 -65c45 0 74 22 87 65h83c-15 -97 -80 -153 -172 -153c-99 0 -161 57 -173 153z" />
    <glyph glyph-name="uni041A" unicode="&#x41a;" horiz-adv-x="644" 
d="M74 0v682h132v-272h8c33 0 59 7 79 20s42 46 65 99l5 13c23 55 49 93 77 112c29 20 68 30 117 30h9l8 -1c3 0 9 0 17 -1l-1 -107h-8c-30 0 -53 -6 -70 -17c-16 -11 -32 -38 -48 -79c-24 -64 -59 -104 -94 -121c33 -13 60 -32 81 -56s49 -68 83 -132l93 -170h-147l-86 160
c-31 61 -59 101 -82 120c-23 20 -56 30 -99 30h-7v-310h-132z" />
    <glyph glyph-name="uni041B" unicode="&#x41b;" horiz-adv-x="702" 
d="M0 0l295 686h104l303 -686h-138l-222 524h-2l-210 -524h-130z" />
    <glyph glyph-name="uni041C" unicode="&#x41c;" horiz-adv-x="833" 
d="M74 682h122l221 -272l220 272h121v-682h-132v487l-201 -252h-18l-203 252v-487h-130v682z" />
    <glyph glyph-name="uni041D" unicode="&#x41d;" horiz-adv-x="771" 
d="M74 682h132v-281h359v281h132v-682h-132v287h-359v-287h-132v682z" />
    <glyph glyph-name="uni041E" unicode="&#x41e;" horiz-adv-x="832" 
d="M412 -9c-108 0 -196 33 -265 100s-103 150 -103 249c0 98 34 181 101 249s158 102 271 102c108 0 197 -33 267 -100c70 -66 105 -149 105 -249c0 -99 -35 -183 -104 -250s-159 -101 -272 -101zM413 110c71 0 129 21 173 62c45 42 67 99 67 170c0 64 -22 118 -66 163
c-43 45 -100 67 -170 67c-72 0 -130 -22 -173 -65s-65 -99 -65 -167c0 -66 22 -121 67 -165c45 -43 101 -65 167 -65z" />
    <glyph glyph-name="uni041F" unicode="&#x41f;" horiz-adv-x="768" 
d="M74 0v682h620v-682h-132v569h-356v-569h-132z" />
    <glyph glyph-name="uni0420" unicode="&#x420;" horiz-adv-x="582" 
d="M74 682h245c147 0 235 -72 235 -200c0 -125 -84 -199 -240 -199h-108v-283h-132v682zM206 582v-198h88c87 0 125 30 125 99c0 64 -33 99 -128 99h-85z" />
    <glyph glyph-name="uni0421" unicode="&#x421;" horiz-adv-x="718" 
d="M665 637v-129c-76 45 -151 70 -232 70c-75 0 -136 -23 -183 -70c-47 -46 -70 -102 -70 -169c0 -65 23 -121 69 -167c46 -45 107 -68 182 -68c87 0 164 26 239 75v-128c-79 -43 -162 -60 -254 -60c-111 0 -200 33 -269 100s-103 150 -103 249c0 101 35 184 106 251
s161 100 268 100c79 0 159 -17 247 -54z" />
    <glyph glyph-name="uni0422" unicode="&#x422;" horiz-adv-x="646" 
d="M17 682h612v-112h-241v-570h-132v570h-239v112z" />
    <glyph glyph-name="uni0423" unicode="&#x423;" horiz-adv-x="697" 
d="M127 -147v108c23 -21 54 -32 95 -32c43 0 78 33 87 74l-299 679h135l225 -529l186 529h132l-253 -662c-51 -133 -112 -193 -204 -193c-40 0 -73 10 -104 26z" />
    <glyph glyph-name="uni0424" unicode="&#x424;" horiz-adv-x="863" 
d="M367 -9v77c-97 1 -176 27 -235 77c-59 51 -88 117 -88 198s29 147 87 196c59 49 137 75 236 78v74h129v-74c99 -3 178 -29 236 -79c58 -49 87 -114 87 -195c0 -82 -30 -148 -89 -198s-137 -76 -234 -77v-77h-129zM367 174v337c-116 -3 -189 -61 -189 -169
s70 -163 189 -168zM496 511v-337c120 0 189 63 189 167c0 105 -66 167 -189 170z" />
    <glyph glyph-name="uni0425" unicode="&#x425;" horiz-adv-x="755" 
d="M21 682h165l191 -235c29 37 58 75 89 112l100 123h162l-269 -328l293 -354h-164l-120 145c-51 62 -82 99 -91 111c-23 -29 -52 -65 -87 -107l-123 -149h-164l292 354z" />
    <glyph glyph-name="uni0426" unicode="&#x426;" horiz-adv-x="801" 
d="M74 0v682h132v-569h352v569h132v-569h100v-253h-129v140h-587z" />
    <glyph glyph-name="uni0427" unicode="&#x427;" horiz-adv-x="660" 
d="M454 0v270c-35 -15 -91 -28 -159 -28c-177 0 -253 79 -253 270v170h132v-176c0 -61 10 -102 31 -123s59 -32 114 -32c53 0 96 8 135 23v308h132v-682h-132z" />
    <glyph glyph-name="uni0428" unicode="&#x428;" horiz-adv-x="999" 
d="M74 0v682h132v-569h227v569h132v-569h228v569h132v-682h-851z" />
    <glyph glyph-name="uni0429" unicode="&#x429;" horiz-adv-x="1036" 
d="M74 0v682h132v-569h227v569h132v-569h228v569h132v-569h99v-253h-128v140h-822z" />
    <glyph glyph-name="uni042A" unicode="&#x42a;" horiz-adv-x="702" 
d="M180 0v576h-163v106h295v-268h108c77 0 139 -19 185 -57s69 -89 69 -153c0 -59 -22 -108 -66 -147c-43 -38 -103 -57 -179 -57h-249zM312 106h117c68 0 109 37 109 98c0 64 -43 103 -111 103h-115v-201z" />
    <glyph glyph-name="uni042B" unicode="&#x42b;" horiz-adv-x="866" 
d="M660 0v682h132v-682h-132zM74 0v682h132v-268h98c77 0 138 -19 184 -56c47 -37 70 -88 70 -153c0 -60 -22 -109 -67 -148c-44 -38 -104 -57 -180 -57h-237zM206 106h108c67 0 108 35 108 98c0 64 -42 103 -110 103h-106v-201z" />
    <glyph glyph-name="uni042C" unicode="&#x42c;" horiz-adv-x="597" 
d="M74 0v682h132v-268h110c77 0 138 -19 184 -57c46 -37 69 -88 69 -152c0 -59 -22 -108 -66 -147s-104 -58 -180 -58h-249zM206 106h119c68 0 109 37 109 98c0 64 -42 103 -110 103h-118v-201z" />
    <glyph glyph-name="uni042D" unicode="&#x42d;" horiz-adv-x="718" 
d="M188 397h344c-12 55 -41 99 -86 132s-98 50 -161 50c-74 0 -150 -22 -229 -66v126c81 36 152 52 235 52c111 0 203 -34 274 -101c72 -67 108 -152 108 -255c0 -93 -34 -173 -103 -242c-68 -68 -159 -102 -273 -102c-96 0 -170 19 -250 60v125c85 -51 160 -73 233 -73
c133 0 229 70 253 186h-345v108z" />
    <glyph glyph-name="uni042E" unicode="&#x42e;" horiz-adv-x="1074" 
d="M662 -9c-96 0 -176 28 -240 84c-64 57 -102 128 -113 214h-103v-289h-132v682h132v-282h105c14 87 52 157 115 210c63 54 143 81 240 81c106 0 193 -33 261 -100c69 -67 103 -150 103 -249s-34 -183 -102 -250c-67 -67 -156 -101 -266 -101zM664 110c72 0 128 23 169 68
s62 100 62 164s-21 118 -64 163c-42 45 -97 67 -164 67c-70 0 -126 -23 -167 -68s-62 -99 -62 -164c0 -66 21 -121 64 -165c43 -43 97 -65 162 -65z" />
    <glyph glyph-name="uni042F" unicode="&#x42f;" horiz-adv-x="644" 
d="M325 682h245v-682h-132v269h-38c-72 0 -108 -31 -156 -112l-92 -157h-149l103 172c40 65 70 100 118 132c-92 28 -137 91 -137 174c0 62 22 111 65 148s101 56 173 56zM438 370v212h-91c-84 0 -126 -41 -126 -106c0 -72 48 -106 141 -106h76z" />
    <glyph glyph-name="uni0430" unicode="&#x430;" horiz-adv-x="470" 
d="M400 326v-214c0 -19 4 -31 19 -31c9 0 25 7 46 21v-76c-41 -23 -78 -35 -111 -35c-37 0 -60 13 -69 48c-40 -32 -84 -48 -131 -48c-71 0 -122 48 -122 115c0 73 61 118 162 151l89 29v19c0 56 -29 76 -80 76c-56 0 -113 -26 -160 -79v109c47 44 105 64 176 64
c117 0 181 -60 181 -149zM283 101v127c-93 -33 -135 -57 -135 -104c0 -35 24 -59 59 -59c25 0 50 12 76 36z" />
    <glyph glyph-name="uni0431" unicode="&#x431;" horiz-adv-x="580" 
d="M496 704l-5 -98c-126 -12 -210 -33 -251 -62s-67 -74 -80 -134c37 33 87 52 147 52c67 0 123 -21 169 -64s69 -98 69 -167c0 -72 -24 -130 -72 -174c-47 -44 -109 -66 -185 -66c-78 0 -140 24 -185 72c-45 49 -67 115 -67 198c0 137 29 239 87 308s152 111 281 126z
M287 88c81 0 136 49 136 141c0 84 -51 136 -135 136c-79 0 -131 -52 -131 -135c0 -88 47 -142 130 -142z" />
    <glyph glyph-name="uni0432" unicode="&#x432;" horiz-adv-x="490" 
d="M62 466h194c115 0 179 -39 179 -122c0 -44 -22 -80 -65 -101c60 -19 82 -58 82 -110c0 -84 -63 -133 -180 -133h-210v466zM179 271h66c52 0 72 24 72 56c0 35 -22 56 -70 56h-68v-112zM179 83h77c51 0 76 19 76 56c0 35 -25 57 -74 57h-79v-113z" />
    <glyph glyph-name="uni0433" unicode="&#x433;" horiz-adv-x="399" 
d="M62 0v464h323v-98h-206v-366h-117z" />
    <glyph glyph-name="uni0434" unicode="&#x434;" horiz-adv-x="564" 
d="M12 -140v237h49l178 375h95l169 -375h49v-237h-113v140h-314v-140h-113zM177 97h204l-101 225z" />
    <glyph glyph-name="uni0435" unicode="&#x435;" horiz-adv-x="517" 
d="M482 232v-18h-327c8 -77 64 -129 144 -129c60 0 120 20 173 53v-94c-60 -37 -120 -53 -193 -53c-71 0 -130 23 -175 68s-68 104 -68 177c0 71 21 129 64 173s100 66 169 66c62 0 113 -22 153 -65s60 -103 60 -178zM155 278h214c-3 68 -39 109 -103 109
c-63 0 -108 -45 -111 -109z" />
    <glyph glyph-name="uni0436" unicode="&#x436;" horiz-adv-x="734" 
d="M309 0v197c-52 0 -75 -20 -100 -69l-67 -128h-131l72 129c23 41 42 68 56 81s32 23 55 31c-37 13 -55 31 -74 64l-23 40c-13 25 -26 29 -47 29h-17l-1 92l17 2c7 0 13 0 20 1c28 0 51 -4 68 -13s36 -31 56 -67l28 -51c25 -44 44 -56 88 -56v184h116v-184
c47 0 70 20 89 57l27 50c31 59 60 80 124 80c6 0 13 0 20 -1l17 -2l-1 -92h-16c-25 0 -35 -7 -50 -32l-20 -37c-20 -35 -39 -51 -75 -64c40 -12 70 -37 109 -109l74 -132h-131l-67 128c-17 31 -34 51 -49 58s-32 11 -51 11v-197h-116z" />
    <glyph glyph-name="uni0437" unicode="&#x437;" horiz-adv-x="449" 
d="M33 28v96c44 -24 94 -42 146 -42c79 0 111 17 111 60c0 40 -44 56 -108 56h-51v83h43c72 0 106 14 106 54c0 32 -34 48 -94 48c-51 0 -107 -16 -143 -35v88c43 25 107 39 168 39c124 0 188 -47 188 -122c0 -51 -35 -91 -91 -103v-3c64 -16 103 -61 103 -118
c0 -89 -75 -139 -207 -139c-31 0 -64 4 -97 11s-57 16 -74 27z" />
    <glyph glyph-name="uni0438" unicode="&#x438;" horiz-adv-x="566" 
d="M62 -6v472h117v-287l249 287h76v-466h-117v274l-251 -280h-74z" />
    <glyph glyph-name="uni0439" unicode="&#x439;" horiz-adv-x="566" 
d="M62 -6v472h117v-287l249 287h76v-466h-117v274l-251 -280h-74zM131 669h77c11 -36 36 -60 79 -60s62 17 75 60h78c-4 -41 -20 -74 -49 -101s-64 -40 -105 -40c-84 0 -140 50 -155 141z" />
    <glyph glyph-name="uni043A" unicode="&#x43a;" horiz-adv-x="494" 
d="M62 0v466h117v-184h8c44 0 63 20 86 61l28 53c28 53 61 73 122 73c15 0 31 -2 39 -3l-1 -92h-17c-25 0 -36 -9 -47 -28l-24 -44c-19 -35 -39 -48 -74 -61c47 -15 75 -45 106 -102l77 -139h-130l-66 125c-25 49 -52 72 -99 72h-8v-197h-117z" />
    <glyph glyph-name="uni043B" unicode="&#x43b;" horiz-adv-x="479" 
d="M479 0h-126l-115 274l-117 -274h-121l210 472h63z" />
    <glyph glyph-name="uni043C" unicode="&#x43c;" horiz-adv-x="656" 
d="M41 0l35 466h102l151 -270l150 270h101l34 -466h-113l-22 282l-150 -282l-156 282l-18 -282h-114z" />
    <glyph glyph-name="uni043D" unicode="&#x43d;" horiz-adv-x="563" 
d="M62 0v466h117v-178h205v178h117v-466h-117v191h-205v-191h-117z" />
    <glyph glyph-name="uni043E" unicode="&#x43e;" horiz-adv-x="580" 
d="M289 -9c-76 0 -137 23 -184 69c-46 47 -69 104 -69 171c0 71 23 129 69 175s108 69 186 69c77 0 138 -23 184 -68c47 -45 70 -103 70 -174c0 -74 -25 -133 -74 -177c-49 -43 -110 -65 -182 -65zM291 88c80 0 132 58 132 145c0 89 -55 145 -136 145
c-76 0 -130 -54 -130 -145c0 -92 55 -145 134 -145z" />
    <glyph glyph-name="uni043F" unicode="&#x43f;" horiz-adv-x="563" 
d="M62 0v466h439v-466h-117v369h-205v-369h-117z" />
    <glyph glyph-name="uni0440" unicode="&#x440;" horiz-adv-x="551" 
d="M179 17v-246h-117v695h190c171 0 263 -80 263 -235c0 -68 -21 -125 -64 -171c-42 -46 -97 -69 -164 -69c-40 0 -64 3 -108 26zM179 370v-259c24 -16 57 -25 88 -25c73 0 127 61 127 142c0 92 -51 142 -144 142h-71z" />
    <glyph glyph-name="uni0441" unicode="&#x441;" horiz-adv-x="460" 
d="M416 444v-109c-48 28 -89 37 -128 37c-77 0 -131 -61 -131 -138c0 -81 54 -141 142 -141c43 0 81 11 126 30v-104c-51 -19 -94 -28 -143 -28c-77 0 -137 23 -181 68c-43 45 -65 102 -65 170c0 73 22 133 66 178s102 68 173 68c47 0 86 -8 141 -31z" />
    <glyph glyph-name="uni0442" unicode="&#x442;" horiz-adv-x="467" 
d="M175 0v367h-161v99h439v-99h-161v-367h-117z" />
    <glyph glyph-name="uni0443" unicode="&#x443;" horiz-adv-x="484" 
d="M2 466h129l117 -252l116 252h120l-325 -695h-121l148 315z" />
    <glyph glyph-name="uni0444" unicode="&#x444;" horiz-adv-x="713" 
d="M298 -231v231c-77 1 -140 24 -189 67c-49 44 -73 100 -73 169c0 65 25 119 74 162c50 43 113 65 188 66v218h117v-218c76 -1 139 -23 188 -66c49 -42 74 -96 74 -163c0 -66 -25 -121 -74 -166s-112 -68 -188 -69v-231h-117zM298 92v280c-81 0 -141 -59 -141 -136
c0 -84 61 -144 141 -144zM415 372v-280c81 0 141 57 141 144c0 39 -14 72 -41 97c-27 26 -61 39 -100 39z" />
    <glyph glyph-name="uni0445" unicode="&#x445;" horiz-adv-x="537" 
d="M2 466h145l120 -149l117 149h139l-186 -227l198 -239h-147l-126 155l-121 -155h-138l190 234z" />
    <glyph glyph-name="uni0446" unicode="&#x446;" horiz-adv-x="600" 
d="M62 0v466h117v-369h203v369h117v-369h90v-237h-113v140h-414z" />
    <glyph glyph-name="uni0447" unicode="&#x447;" horiz-adv-x="526" 
d="M34 466h117v-119c0 -67 20 -96 87 -96c44 0 86 19 110 52v163h117v-466h-117v207c-35 -35 -91 -54 -144 -54c-117 0 -170 59 -170 184v129z" />
    <glyph glyph-name="uni0448" unicode="&#x448;" horiz-adv-x="786" 
d="M62 0v466h117v-369h156v369h117v-369h156v369h117v-466h-663z" />
    <glyph glyph-name="uni0449" unicode="&#x449;" horiz-adv-x="826" 
d="M62 0v466h117v-369h156v369h117v-369h156v369h117v-369h89v-237h-113v140h-639z" />
    <glyph glyph-name="uni044A" unicode="&#x44a;" horiz-adv-x="563" 
d="M145 0v367h-131v99h248v-160h99c103 0 174 -61 174 -152c0 -45 -16 -82 -47 -111s-73 -43 -124 -43h-219zM262 83h63c59 0 90 23 90 72c0 47 -33 68 -89 68h-64v-140z" />
    <glyph glyph-name="uni044B" unicode="&#x44b;" horiz-adv-x="715" 
d="M62 0v466h117v-160h90c111 0 187 -60 187 -152c0 -89 -69 -154 -186 -154h-208zM179 83h64c59 0 92 21 92 72c0 45 -35 68 -91 68h-65v-140zM537 466h117v-466h-117v466z" />
    <glyph glyph-name="uni044C" unicode="&#x44c;" horiz-adv-x="483" 
d="M62 0v466h117v-160h90c111 0 187 -60 187 -152c0 -89 -69 -154 -186 -154h-208zM179 83h64c59 0 92 21 92 72c0 45 -35 68 -91 68h-65v-140z" />
    <glyph glyph-name="uni044D" unicode="&#x44d;" horiz-adv-x="460" 
d="M180 -9c-51 0 -105 10 -145 27v96c52 -21 91 -30 126 -30c76 0 124 38 139 106h-186v90h184c-12 60 -58 101 -126 101c-41 0 -81 -10 -128 -37v101c51 21 89 30 140 30c75 0 134 -23 176 -69c43 -46 64 -105 64 -178c0 -67 -22 -124 -66 -169s-103 -68 -178 -68z" />
    <glyph glyph-name="uni044E" unicode="&#x44e;" horiz-adv-x="792" 
d="M500 -9c-67 0 -122 18 -166 54c-43 37 -70 84 -79 143h-76v-188h-117v466h117v-181h76c11 58 38 104 83 138c45 35 99 52 162 52c77 0 138 -23 185 -68s71 -102 71 -171c0 -73 -23 -133 -70 -178s-109 -67 -186 -67zM499 88c87 0 136 58 136 147c0 85 -57 143 -137 143
c-73 0 -129 -57 -129 -142c0 -89 50 -148 130 -148z" />
    <glyph glyph-name="uni044F" unicode="&#x44f;" horiz-adv-x="512" 
d="M2 0l68 109c27 43 51 68 86 81c-64 21 -99 66 -99 129c0 85 73 147 185 147h208v-466h-117v160h-31c-56 0 -85 -22 -112 -67l-55 -93h-133zM264 246h69v134h-67c-59 0 -88 -22 -88 -67c0 -41 29 -67 86 -67z" />
    <glyph glyph-name="uni0450" unicode="&#x450;" horiz-adv-x="517" 
d="M482 232v-18h-327c8 -77 64 -129 144 -129c60 0 120 20 173 53v-94c-60 -37 -120 -53 -193 -53c-71 0 -130 23 -175 68s-68 104 -68 177c0 71 21 129 64 173s100 66 169 66c62 0 113 -22 153 -65s60 -103 60 -178zM155 278h214c-3 68 -39 109 -103 109
c-63 0 -108 -45 -111 -109zM133 683h136l72 -157h-72z" />
    <glyph glyph-name="uni0451" unicode="&#x451;" horiz-adv-x="517" 
d="M482 232v-18h-327c8 -77 64 -129 144 -129c60 0 120 20 173 53v-94c-60 -37 -120 -53 -193 -53c-71 0 -130 23 -175 68s-68 104 -68 177c0 71 21 129 64 173s100 66 169 66c62 0 113 -22 153 -65s60 -103 60 -178zM155 278h214c-3 68 -39 109 -103 109
c-63 0 -108 -45 -111 -109zM226 608c0 -32 -27 -59 -60 -59c-32 0 -59 27 -59 59s27 59 59 59s60 -27 60 -59zM418 608c0 -32 -26 -59 -58 -59c-33 0 -60 27 -60 59s27 59 60 59c32 0 58 -27 58 -59z" />
    <glyph glyph-name="uni0452" unicode="&#x452;" horiz-adv-x="546" 
d="M489 285v-285c0 -141 -48 -197 -159 -197c-23 0 -50 1 -71 8v95c11 -4 26 -6 41 -6c53 0 72 18 72 87v287c0 68 -27 102 -82 102c-41 0 -72 -19 -111 -68v-308h-117v544h-72v62h72v76h117v-76h172v-62h-172v-146c42 48 92 72 150 72c104 0 160 -69 160 -185z" />
    <glyph glyph-name="uni0453" unicode="&#x453;" horiz-adv-x="399" 
d="M62 0v464h323v-98h-206v-366h-117zM240 683h135l-134 -157h-73z" />
    <glyph glyph-name="uni0454" unicode="&#x454;" horiz-adv-x="460" 
d="M416 445v-101c-47 27 -87 37 -128 37c-68 0 -114 -41 -126 -101h184v-90h-186c15 -68 63 -106 139 -106c35 0 74 9 126 30v-96c-40 -17 -94 -27 -145 -27c-75 0 -134 23 -178 68c-44 46 -66 102 -66 169c0 73 21 132 63 178c43 46 102 69 177 69c51 0 89 -9 140 -30z" />
    <glyph glyph-name="uni0455" unicode="&#x455;" horiz-adv-x="417" 
d="M354 436v-99c-56 33 -94 48 -135 48c-39 0 -55 -16 -55 -33c0 -22 21 -43 64 -63c87 -39 149 -89 149 -161c0 -79 -64 -137 -168 -137c-51 0 -93 8 -164 40v106c48 -35 102 -57 145 -57c47 0 68 19 68 39c0 23 -22 45 -65 66c-43 22 -78 45 -106 69s-42 55 -42 93
c0 36 15 66 45 91s69 37 116 37c53 0 102 -13 148 -39z" />
    <glyph glyph-name="uni0456" unicode="&#x456;" horiz-adv-x="240" 
d="M120 536c-35 0 -59 29 -59 60s24 59 59 59c33 0 60 -27 60 -59c0 -33 -27 -60 -60 -60zM62 466h117v-466h-117v466z" />
    <glyph glyph-name="uni0457" unicode="&#x457;" horiz-adv-x="240" 
d="M62 466h117v-466h-117v466zM84 608c0 -32 -27 -59 -60 -59c-32 0 -59 27 -59 59s27 59 59 59s60 -27 60 -59zM276 608c0 -32 -26 -59 -58 -59c-33 0 -60 27 -60 59s27 59 60 59c32 0 58 -27 58 -59z" />
    <glyph glyph-name="uni0458" unicode="&#x458;" horiz-adv-x="240" 
d="M62 466h117v-499c0 -105 -31 -166 -123 -199l-64 87c53 19 70 51 70 120v491zM119 536c-35 0 -60 29 -60 60s27 59 60 59c35 0 59 -30 59 -59c0 -35 -24 -60 -59 -60z" />
    <glyph glyph-name="uni0459" unicode="&#x459;" horiz-adv-x="691" 
d="M353 0l-115 274l-117 -274h-121l210 472h63l72 -166h131c112 0 187 -59 187 -152c0 -89 -69 -154 -186 -154h-124zM443 83h13c53 0 86 21 86 72c0 45 -34 68 -90 68h-70z" />
    <glyph glyph-name="uni045A" unicode="&#x45a;" horiz-adv-x="783" 
d="M62 0v466h117v-174h186v174h117v-174h86c115 0 187 -56 187 -144c0 -85 -66 -148 -186 -148h-204v200h-186v-200h-117zM482 83h60c59 0 92 20 92 65c0 41 -34 61 -90 61h-62v-126z" />
    <glyph glyph-name="uni045B" unicode="&#x45b;" horiz-adv-x="546" 
d="M489 285v-285h-117v274c0 68 -27 102 -82 102c-41 0 -72 -19 -111 -68v-308h-117v544h-72v62h72v76h117v-76h172v-62h-172v-146c42 48 92 72 150 72c104 0 160 -69 160 -185z" />
    <glyph glyph-name="uni045C" unicode="&#x45c;" horiz-adv-x="494" 
d="M62 0v466h117v-184h8c44 0 63 20 86 61l28 53c28 53 61 73 122 73c15 0 31 -2 39 -3l-1 -92h-17c-25 0 -36 -9 -47 -28l-24 -44c-19 -35 -39 -48 -74 -61c47 -15 75 -45 106 -102l77 -139h-130l-66 125c-25 49 -52 72 -99 72h-8v-197h-117zM279 683h135l-134 -157h-73z
" />
    <glyph glyph-name="uni045D" unicode="&#x45d;" horiz-adv-x="566" 
d="M62 -6v472h117v-287l249 287h76v-466h-117v274l-251 -280h-74zM151 683h136l72 -157h-72z" />
    <glyph glyph-name="uni045E" unicode="&#x45e;" horiz-adv-x="484" 
d="M2 466h129l117 -252l116 252h120l-325 -695h-121l148 315zM92 669h77c11 -36 36 -60 79 -60s62 17 75 60h78c-4 -41 -20 -74 -49 -101s-64 -40 -105 -40c-84 0 -140 50 -155 141z" />
    <glyph glyph-name="uni045F" unicode="&#x45f;" horiz-adv-x="563" 
d="M225 0h-163v466h117v-369h205v369h117v-466h-162v-137h-114v137z" />
    <glyph glyph-name="uni0490" unicode="&#x490;" horiz-adv-x="521" 
d="M78 0v682h305v116h123v-223h-296v-575h-132z" />
    <glyph glyph-name="uni0491" unicode="&#x491;" horiz-adv-x="402" 
d="M62 0v464h210v112h113v-210h-206v-366h-117z" />
    <glyph glyph-name="uni0492" unicode="&#x492;" horiz-adv-x="520" 
d="M78 377v305h428v-112h-296v-193h208v-99h-208v-278h-132v278h-74v99h74z" />
    <glyph glyph-name="uni0493" unicode="&#x493;" horiz-adv-x="399" 
d="M62 0v183h-53v85h53v196h323v-98h-206v-98h136v-85h-136v-183h-117z" />
    <glyph glyph-name="uni0496" unicode="&#x496;" horiz-adv-x="985" 
d="M17 0l87 153c41 69 73 118 95 145c23 27 50 47 81 59c-41 22 -72 57 -92 104s-39 78 -56 92c-17 15 -43 22 -76 22l-2 107l19 2h18c48 0 87 -12 117 -35s59 -69 86 -137s67 -102 118 -102h7v272h128v-272h7c50 0 88 33 115 100s56 112 86 137s70 37 120 37h18l19 -2
l-2 -107c-61 0 -103 -31 -124 -93c-21 -61 -55 -103 -100 -125c37 -14 65 -34 86 -61s51 -75 91 -144l23 -39h88v-253h-129v140h-45l-82 152c-64 115 -104 158 -167 158h-4v-310h-128v310h-3c-31 0 -58 -11 -81 -32s-51 -63 -85 -124l-84 -154h-149z" />
    <glyph glyph-name="uni0497" unicode="&#x497;" horiz-adv-x="746" 
d="M309 0v197c-52 0 -75 -20 -100 -69l-67 -128h-131l72 129c23 41 42 68 56 81s32 23 55 31c-37 13 -55 31 -74 64l-23 40c-13 25 -26 29 -47 29h-17l-1 92c7 0 24 3 37 3c28 0 51 -4 68 -13s36 -31 56 -67l28 -51c24 -44 44 -56 88 -56v184h116v-184c47 0 70 20 89 57
l27 50c31 59 60 80 124 80c12 0 30 -2 37 -3l-1 -92h-16c-25 0 -35 -7 -50 -32l-20 -37c-20 -35 -39 -51 -75 -64c40 -12 70 -37 109 -109l19 -35h67v-237h-114v140h-29l-67 128c-17 31 -34 51 -49 58s-32 11 -51 11v-197h-116z" />
    <glyph glyph-name="uni049A" unicode="&#x49a;" horiz-adv-x="669" 
d="M529 0h-45l-86 160c-32 61 -60 101 -83 120c-23 20 -58 30 -105 30v-310h-132v682h132v-272c43 0 74 9 93 26c20 17 41 52 64 105s49 90 77 111c29 21 66 32 113 32h18l20 -2l-1 -107c-33 0 -59 -6 -77 -18c-18 -11 -37 -43 -57 -94s-49 -86 -86 -105
c39 -17 70 -41 93 -73c24 -31 59 -89 105 -172h86v-253h-129v140z" />
    <glyph glyph-name="uni049B" unicode="&#x49b;" horiz-adv-x="504" 
d="M62 0v466h117v-184h8c44 0 63 20 86 61l28 53c28 53 61 73 122 73c15 0 31 -2 39 -3l-1 -92h-17c-25 0 -36 -9 -47 -28l-24 -44c-19 -35 -39 -48 -74 -61c47 -15 75 -45 106 -102l23 -42h64v-237h-113v140h-27l-66 125c-25 49 -52 72 -99 72h-8v-197h-117z" />
    <glyph glyph-name="uni049C" unicode="&#x49c;" horiz-adv-x="697" 
d="M257 110v200h-51v-310h-132v682h132v-272h51v166h90v-150c25 17 40 46 64 103l5 13c24 56 50 94 78 113c29 19 66 29 112 29h18l20 -2l-2 -107h-7c-67 0 -92 -25 -115 -89l-5 -13c-21 -56 -51 -98 -86 -115c53 -21 82 -53 117 -114l41 -74l93 -170h-147l-86 160
c-29 55 -50 89 -62 104c-11 15 -24 26 -38 33v-187h-90z" />
    <glyph glyph-name="uni049D" unicode="&#x49d;" horiz-adv-x="563" 
d="M304 70h-81v127h-44v-197h-117v466h117v-184h44v119h81v-110c15 9 25 27 38 52l28 53c28 53 62 72 123 73c7 0 13 0 20 -1l18 -2l-1 -92h-16c-25 0 -36 -9 -47 -28l-25 -44c-19 -35 -38 -48 -73 -61c47 -15 74 -45 106 -102l77 -139h-131l-65 125c-19 32 -32 52 -52 63
v-118z" />
    <glyph glyph-name="uni04A2" unicode="&#x4a2;" horiz-adv-x="811" 
d="M671 0h-107v287h-358v-287h-132v682h132v-282h358v282h132v-569h103v-253h-128v140z" />
    <glyph glyph-name="uni04A3" unicode="&#x4a3;" horiz-adv-x="602" 
d="M477 0h-93v191h-205v-191h-117v466h117v-178h205v178h117v-369h89v-237h-113v140z" />
    <glyph glyph-name="uni04AE" unicode="&#x4ae;" horiz-adv-x="647" 
d="M0 682h148l174 -229l176 229h149l-256 -337v-345h-133v344z" />
    <glyph glyph-name="uni04AF" unicode="&#x4af;" horiz-adv-x="478" 
d="M182 -229v284l-182 411h127l115 -274l116 274h120l-179 -409v-286h-117z" />
    <glyph glyph-name="uni04B2" unicode="&#x4b2;" horiz-adv-x="760" 
d="M21 682h165l191 -235c29 37 58 75 89 112l100 123h162l-269 -328l200 -241h89v-253h-129v140h-31l-120 145c-51 62 -82 99 -91 111c-23 -29 -52 -65 -87 -107l-123 -149h-164l292 354z" />
    <glyph glyph-name="uni04B3" unicode="&#x4b3;" horiz-adv-x="544" 
d="M2 466h145l120 -149l117 149h139l-186 -227l118 -142h78v-237h-113v140h-32l-126 155l-121 -155h-138l190 234z" />
    <glyph glyph-name="uni04B8" unicode="&#x4b8;" horiz-adv-x="660" 
d="M355 110h-90v159c-81 4 -138 26 -172 67s-51 108 -51 199v147h132v-153c0 -53 7 -90 21 -110c15 -20 38 -32 70 -37v194h90v-197c39 3 71 10 99 22v281h132v-682h-132v296c-24 -11 -60 -20 -99 -25v-161z" />
    <glyph glyph-name="uni04B9" unicode="&#x4b9;" horiz-adv-x="532" 
d="M293 70h-81v96c-125 5 -178 57 -178 185v115h117v-113c0 -63 22 -82 61 -87v128h81v-122c24 7 46 19 61 35v159h117v-466h-117v210c-15 -13 -38 -23 -61 -31v-109z" />
    <glyph glyph-name="uni04BA" unicode="&#x4ba;" horiz-adv-x="660" 
d="M206 682v-253c35 15 91 28 159 28c180 0 253 -81 253 -264v-193h-132v193c0 61 -10 102 -31 123s-59 32 -114 32s-98 -8 -135 -23v-325h-132v682h132z" />
    <glyph glyph-name="uni04BB" unicode="&#x4bb;" horiz-adv-x="546" 
d="M489 289v-289h-117v279c0 67 -27 101 -82 101c-41 0 -72 -18 -111 -67v-313h-117v682h117v-279c42 48 92 72 150 72c104 0 160 -67 160 -186z" />
    <glyph glyph-name="uni04C0" unicode="&#x4c0;" horiz-adv-x="280" 
d="M74 682h132v-682h-132v682z" />
    <glyph glyph-name="uni04CF" unicode="&#x4cf;" horiz-adv-x="280" 
d="M74 682h132v-682h-132v682z" />
    <glyph glyph-name="uni04D8" unicode="&#x4d8;" horiz-adv-x="772" 
d="M40 358h550c-4 67 -28 122 -73 163s-104 62 -178 62c-87 0 -171 -25 -252 -75v120c84 44 162 63 269 63s196 -33 266 -98c71 -65 106 -147 106 -246c0 -109 -32 -195 -96 -260c-63 -64 -148 -96 -254 -96s-189 31 -249 93c-59 63 -89 147 -89 253v21zM584 261h-402
c23 -104 89 -165 196 -165c109 0 182 61 206 165z" />
    <glyph glyph-name="uni04D9" unicode="&#x4d9;" horiz-adv-x="517" 
d="M35 234v18h327c-9 77 -64 129 -144 129c-60 0 -119 -19 -174 -54v95c60 37 119 53 194 53c72 0 130 -23 175 -69c45 -45 68 -104 68 -176c0 -71 -22 -129 -65 -173s-100 -66 -169 -66c-65 0 -116 22 -155 66c-38 45 -57 104 -57 177zM362 188h-215
c3 -68 40 -110 104 -110c61 0 108 46 111 110z" />
    <glyph glyph-name="uni04E8" unicode="&#x4e8;" horiz-adv-x="832" 
d="M788 341c0 -99 -34 -182 -103 -249s-159 -101 -271 -101c-109 0 -198 33 -267 100s-103 151 -103 250s35 182 104 249s159 101 268 101s198 -33 267 -99c70 -66 105 -150 105 -251zM179 395h472c-8 53 -34 97 -78 132s-97 53 -158 53c-119 0 -208 -68 -236 -185zM651 291
h-472c7 -53 34 -98 79 -135c45 -36 98 -54 158 -54c63 0 117 19 162 57s69 82 73 132z" />
    <glyph glyph-name="uni04E9" unicode="&#x4e9;" horiz-adv-x="580" 
d="M293 -9c-77 0 -140 23 -187 69s-70 103 -70 171c0 72 24 131 71 176s110 68 188 68c77 0 139 -23 186 -68s71 -103 71 -174c0 -74 -25 -133 -75 -177c-49 -43 -111 -65 -184 -65zM429 190h-270c15 -68 65 -107 136 -107s119 42 134 107zM160 278h268
c-16 72 -73 104 -137 104c-67 0 -116 -37 -131 -104z" />
    <glyph glyph-name="Wgrave" unicode="&#x1e80;" horiz-adv-x="1083" 
d="M0 682h134l173 -440l180 440h110l180 -440l173 440h133l-281 -688h-52l-208 507l-211 -507h-52zM395 889h149l83 -156h-75z" />
    <glyph glyph-name="wgrave" unicode="&#x1e81;" horiz-adv-x="758" 
d="M0 466h122l109 -266l109 266h80l109 -266l108 266h121l-198 -472h-54l-126 301l-124 -301h-56zM243 683h136l72 -157h-72z" />
    <glyph glyph-name="Wacute" unicode="&#x1e82;" horiz-adv-x="1083" 
d="M0 682h134l173 -440l180 440h110l180 -440l173 440h133l-281 -688h-52l-208 507l-211 -507h-52zM453 733l83 156h149l-156 -156h-76z" />
    <glyph glyph-name="wacute" unicode="&#x1e83;" horiz-adv-x="758" 
d="M0 466h122l109 -266l109 266h80l109 -266l108 266h121l-198 -472h-54l-126 301l-124 -301h-56zM376 683h135l-134 -157h-73z" />
    <glyph glyph-name="Wdieresis" unicode="&#x1e84;" horiz-adv-x="1083" 
d="M0 682h134l173 -440l180 440h110l180 -440l173 440h133l-281 -688h-52l-208 507l-211 -507h-52zM506 813c0 -33 -28 -61 -60 -61c-33 0 -61 28 -61 61c0 32 28 60 61 60c32 0 60 -28 60 -60zM700 813c0 -33 -27 -61 -60 -61c-32 0 -60 28 -60 61s28 60 60 60
c33 0 60 -28 60 -60z" />
    <glyph glyph-name="wdieresis" unicode="&#x1e85;" horiz-adv-x="758" 
d="M0 466h122l109 -266l109 266h80l109 -266l108 266h121l-198 -472h-54l-126 301l-124 -301h-56zM342 608c0 -32 -27 -59 -60 -59c-32 0 -59 27 -59 59s27 59 59 59s60 -27 60 -59zM534 608c0 -32 -26 -59 -58 -59c-33 0 -60 27 -60 59s27 59 60 59c32 0 58 -27 58 -59z
" />
    <glyph glyph-name="Germandbls" unicode="&#x1e9e;" horiz-adv-x="710" 
d="M332 356l141 181c-25 24 -62 40 -109 40c-108 0 -166 -56 -166 -192v-385h-132v386c0 205 109 305 296 305c115 0 196 -40 260 -131l-128 -161c67 -37 112 -71 136 -103c24 -31 36 -71 36 -118c0 -55 -20 -100 -61 -135s-92 -52 -155 -52c-72 0 -129 17 -190 56v135
c49 -55 112 -85 179 -85c60 0 95 34 95 77c0 29 -9 53 -28 71c-19 19 -51 41 -98 68z" />
    <glyph glyph-name="Ygrave" unicode="&#x1ef2;" horiz-adv-x="647" 
d="M0 682h148l174 -229l176 229h149l-256 -337v-345h-133v344zM156 889h149l83 -156h-75z" />
    <glyph glyph-name="ygrave" unicode="&#x1ef3;" horiz-adv-x="484" 
d="M2 466h129l117 -252l116 252h120l-325 -695h-121l148 315zM107 683h136l72 -157h-72z" />
    <glyph glyph-name="Ohorn" unicode="&#x1a0;" horiz-adv-x="872" 
d="M687 588c75 5 99 49 99 154h101c0 -136 -42 -211 -143 -231c28 -51 44 -108 44 -169c0 -99 -35 -183 -104 -250s-159 -101 -272 -101c-108 0 -196 33 -265 100s-103 150 -103 249c0 98 34 181 101 249s158 102 271 102s206 -39 271 -103zM413 110c71 0 129 21 173 62
c45 42 67 99 67 170c0 64 -22 118 -66 163c-43 45 -100 67 -170 67c-72 0 -130 -22 -173 -65s-65 -99 -65 -167c0 -66 22 -121 67 -165c45 -43 101 -65 167 -65z" />
    <glyph glyph-name="ohorn" unicode="&#x1a1;" horiz-adv-x="636" 
d="M479 402c47 9 64 37 64 113h101c0 -116 -40 -170 -117 -190c11 -28 18 -59 18 -92c0 -74 -25 -133 -74 -177c-49 -43 -110 -65 -182 -65c-76 0 -137 23 -184 69c-46 47 -69 104 -69 171c0 71 23 129 69 175s108 69 186 69c80 0 144 -28 188 -73zM291 88
c80 0 132 58 132 145c0 89 -55 145 -136 145c-76 0 -130 -54 -130 -145c0 -92 55 -145 134 -145z" />
    <glyph glyph-name="Uhorn" unicode="&#x1af;" horiz-adv-x="857" 
d="M66 682h132v-383c0 -135 62 -194 183 -194c119 0 180 57 180 193v384h132v-94c69 9 91 53 91 154h102c0 -157 -52 -228 -193 -237v-209c0 -195 -107 -305 -312 -305c-204 0 -315 104 -315 303v388z" />
    <glyph glyph-name="uhorn" unicode="&#x1b0;" horiz-adv-x="649" 
d="M57 466h117v-271c0 -80 30 -110 85 -110c41 0 79 25 108 68v313h117v-66c63 3 85 31 85 115h101c0 -139 -54 -195 -186 -198v-317h-117v62c-43 -47 -95 -71 -150 -71c-108 0 -160 70 -160 203v272z" />
    <glyph glyph-name="uni2010" unicode="&#x2010;" horiz-adv-x="377" 
d="M54 290h268v-117h-268v117z" />
    <glyph glyph-name="endash" unicode="&#x2013;" horiz-adv-x="500" 
d="M-5 293h510v-88h-510v88z" />
    <glyph glyph-name="emdash" unicode="&#x2014;" horiz-adv-x="1000" 
d="M-5 295h1010v-89h-1010v89z" />
    <glyph glyph-name="uni2015" unicode="&#x2015;" horiz-adv-x="820" 
d="M134 295h552v-89h-552v89z" />
    <glyph glyph-name="underscoredbl" unicode="&#x2017;" horiz-adv-x="500" 
d="M-6 -62h512v-60h-512v60zM-6 -170h512v-60h-512v60z" />
    <glyph glyph-name="quoteleft" unicode="&#x2018;" horiz-adv-x="246" 
d="M202 691v-22c-35 -23 -53 -54 -53 -114c39 -11 60 -36 60 -75c0 -41 -34 -77 -75 -77c-49 0 -85 50 -85 114c0 85 61 155 153 174z" />
    <glyph glyph-name="quoteright" unicode="&#x2019;" horiz-adv-x="246" 
d="M45 403v23c35 25 52 55 52 114c-39 11 -60 35 -60 74c0 43 33 77 74 77c51 0 87 -50 87 -113c0 -84 -57 -152 -153 -175z" />
    <glyph glyph-name="quotesinglbase" unicode="&#x201a;" horiz-adv-x="246" 
d="M45 -135v22c31 21 51 54 52 114c-37 11 -60 36 -60 75c0 41 33 76 74 76c52 0 87 -52 87 -112c0 -80 -53 -152 -153 -175z" />
    <glyph glyph-name="quotereversed" unicode="&#x201b;" horiz-adv-x="246" 
d="M149 540c0 -59 17 -89 52 -114v-23c-96 23 -153 91 -153 175c0 61 34 113 86 113c41 0 75 -34 75 -77c0 -39 -21 -63 -60 -74z" />
    <glyph glyph-name="quotedblleft" unicode="&#x201c;" horiz-adv-x="470" 
d="M188 691v-22c-35 -25 -53 -55 -53 -114c37 -11 60 -36 60 -75c0 -40 -33 -77 -74 -77c-52 0 -87 53 -87 114c0 85 61 154 154 174zM427 691v-22c-35 -25 -54 -58 -54 -114c37 -11 60 -35 60 -75s-34 -77 -74 -77c-49 0 -86 50 -86 114c0 84 61 155 154 174z" />
    <glyph glyph-name="quotedblright" unicode="&#x201d;" horiz-adv-x="470" 
d="M42 403v23c35 23 50 53 53 114c-39 11 -60 35 -60 74c0 41 33 77 74 77c52 0 87 -53 87 -113c0 -87 -61 -155 -154 -175zM281 403v23c40 29 49 62 52 114c-39 11 -60 35 -60 74c0 41 33 77 74 77c51 0 87 -48 87 -113c0 -80 -53 -152 -153 -175z" />
    <glyph glyph-name="quotedblbase" unicode="&#x201e;" horiz-adv-x="485" 
d="M49 -135v22c35 25 53 54 53 114c-39 11 -60 36 -60 75c0 41 34 76 74 76c51 0 86 -48 86 -112c0 -80 -53 -152 -153 -175zM288 -135v22c35 25 52 54 52 114c-37 11 -59 36 -59 75c0 41 32 76 75 76c49 0 85 -48 85 -112c0 -80 -53 -152 -153 -175z" />
    <glyph glyph-name="dagger" unicode="&#x2020;" horiz-adv-x="510" 
d="M226 691h55c27 0 36 -7 36 -24c0 -7 0 -13 -1 -20l-39 -225l134 30c17 3 36 8 47 8c16 0 24 -9 24 -27v-64c0 -23 -7 -34 -20 -34c-7 0 -14 1 -20 2l-165 38l43 -545c0 -13 0 -23 1 -31c0 -20 -8 -32 -37 -32h-67c-24 0 -36 10 -36 31c0 9 1 21 2 36l44 541l-127 -32
c-24 -5 -37 -8 -48 -8c-20 0 -25 18 -25 27v71c0 18 8 27 25 27c12 0 32 -5 49 -8l126 -30l-38 225c0 4 0 11 -1 20c0 16 10 24 38 24z" />
    <glyph glyph-name="daggerdbl" unicode="&#x2021;" horiz-adv-x="510" 
d="M230 691h48c25 0 37 -8 37 -23c0 -7 0 -15 -1 -22l-34 -200l141 33l22 3h10c19 0 29 -13 29 -33v-54c0 -20 -9 -34 -28 -34c-12 0 -23 2 -55 9l-119 28l29 -169l-29 -170l130 31l24 5c5 1 13 2 22 2c21 0 26 -18 26 -33v-54c0 -23 -8 -35 -24 -35c-8 0 -15 1 -22 2l-24 4
l-132 29l28 -167c4 -24 8 -39 8 -50c0 -20 -15 -30 -39 -30h-44c-23 0 -38 7 -38 27c0 7 1 18 6 43l29 177l-136 -29c-23 -4 -40 -6 -47 -6c-12 0 -19 9 -19 34v57c0 21 7 31 21 31c11 0 15 -2 38 -6l143 -32l-34 170l34 169l-125 -29c-23 -5 -40 -8 -50 -8
c-21 0 -27 14 -27 34v56c0 21 7 31 28 31c7 0 20 -2 39 -6l135 -30l-29 171c-3 19 -7 37 -7 50c0 15 8 24 36 24z" />
    <glyph glyph-name="bullet" unicode="&#x2022;" horiz-adv-x="401" 
d="M64 341c0 38 13 70 40 97s59 40 96 40c36 0 68 -13 95 -40c28 -26 42 -58 42 -97c0 -37 -13 -69 -40 -96s-59 -41 -97 -41s-70 14 -97 41c-26 27 -39 59 -39 96z" />
    <glyph glyph-name="ellipsis" unicode="&#x2026;" horiz-adv-x="1000" 
d="M92 66c0 41 34 74 75 74s74 -34 74 -74c0 -43 -34 -75 -74 -75c-43 0 -75 34 -75 75zM426 66c0 41 34 74 74 74c43 0 74 -34 74 -74c0 -43 -33 -75 -74 -75s-74 34 -74 75zM759 66c0 41 35 74 75 74c41 0 74 -34 74 -74c0 -43 -33 -75 -74 -75c-43 0 -75 34 -75 75z" />
    <glyph glyph-name="perthousand" unicode="&#x2030;" horiz-adv-x="1063" 
d="M33 536c0 43 15 80 46 110c31 31 68 46 111 46s79 -15 110 -46c31 -30 47 -67 47 -110c0 -42 -15 -79 -45 -110s-67 -47 -112 -47c-43 0 -80 15 -111 46s-46 68 -46 111zM546 692h83l-461 -701h-83zM190 612c-41 0 -73 -34 -73 -77s30 -76 73 -76s74 33 74 76
s-33 77 -74 77zM362 148c0 43 15 80 46 110c31 31 68 46 111 46s79 -15 110 -46c31 -30 47 -67 47 -110c0 -41 -15 -78 -46 -110c-30 -31 -67 -47 -111 -47c-43 0 -80 15 -111 46s-46 68 -46 111zM518 224c-41 0 -72 -34 -72 -77c0 -41 30 -76 73 -76c41 0 74 33 74 76
s-34 77 -75 77zM716 148c0 43 15 80 46 110c31 31 68 46 111 46s79 -15 110 -46c31 -30 47 -67 47 -110s-16 -80 -47 -111s-67 -46 -110 -46c-44 0 -81 16 -112 47c-30 32 -45 69 -45 110zM871 224c-41 0 -72 -34 -72 -77c0 -41 30 -76 73 -76s74 33 74 76s-32 77 -75 77z
" />
    <glyph glyph-name="minute" unicode="&#x2032;" horiz-adv-x="222" 
d="M35 428l52 254h123l-98 -254h-77z" />
    <glyph glyph-name="second" unicode="&#x2033;" horiz-adv-x="420" 
d="M35 428l52 254h119l-97 -254h-74zM236 428l52 254h120l-98 -254h-74z" />
    <glyph glyph-name="guilsinglleft" unicode="&#x2039;" horiz-adv-x="325" 
d="M179 462h112l-150 -231l150 -231h-112l-150 231z" />
    <glyph glyph-name="guilsinglright" unicode="&#x203a;" horiz-adv-x="325" 
d="M36 462h111l150 -231l-150 -231h-111l149 231z" />
    <glyph glyph-name="exclamdbl" unicode="&#x203c;" horiz-adv-x="521" 
d="M69 545c0 100 32 146 72 146c43 0 71 -43 71 -143c0 -55 -8 -126 -24 -213c-15 -86 -31 -129 -46 -129c-18 0 -35 47 -50 141s-23 160 -23 198zM65 66c0 43 32 76 75 76s75 -35 75 -76c0 -40 -31 -75 -74 -75c-40 0 -76 31 -76 75zM309 545c0 100 32 146 72 146
c43 0 71 -43 71 -143c0 -55 -8 -126 -24 -213c-15 -86 -31 -129 -46 -129c-18 0 -35 47 -50 141s-23 160 -23 198zM305 66c0 43 32 76 75 76s75 -35 75 -76c0 -40 -31 -75 -74 -75c-40 0 -76 31 -76 75z" />
    <glyph glyph-name="interrobang" unicode="&#x203d;" horiz-adv-x="429" 
d="M41 570l41 113c29 5 57 8 100 8c131 0 210 -57 210 -145c0 -61 -31 -120 -94 -177s-94 -107 -94 -150c0 -11 2 -18 6 -23c-29 7 -49 19 -59 34c-9 16 -20 62 -32 137c-12 76 -18 137 -18 182v39c-10 -2 -20 -4 -29 -7zM185 -9c-41 0 -74 31 -74 74s37 75 74 75
c40 0 75 -33 75 -74s-34 -75 -75 -75zM226 568v-21c0 -40 -3 -86 -10 -130c43 51 53 79 53 107c0 29 -13 52 -44 61c0 -5 0 -11 1 -17z" />
    <glyph glyph-name="overline" unicode="&#x203e;" horiz-adv-x="500" 
d="M-6 803h512v-78h-512v78z" />
    <glyph glyph-name="fraction" unicode="&#x2044;" horiz-adv-x="168" 
d="M273 691h78l-457 -717h-78z" />
    <glyph glyph-name="zero.superior" unicode="&#x2070;" 
d="M166 490c-85 0 -144 69 -144 181c0 115 62 182 146 182c41 0 75 -17 102 -50s41 -76 41 -131c0 -112 -61 -182 -145 -182zM225 671c0 81 -25 119 -60 119s-57 -43 -57 -119c0 -80 22 -119 58 -119s59 47 59 119z" />
    <glyph glyph-name="four.superior" unicode="&#x2074;" 
d="M213 851h52v-200h46v-56h-46v-100h-81v100h-171v42zM184 651v88l-81 -88h81z" />
    <glyph glyph-name="five.superior" unicode="&#x2075;" 
d="M74 847h204v-62h-130l-2 -72c95 0 146 -45 146 -109c0 -68 -56 -114 -143 -114c-40 0 -77 9 -110 24v68c31 -17 64 -28 93 -28c43 0 72 21 72 52c0 35 -34 55 -85 56c-20 0 -33 -2 -52 -9z" />
    <glyph glyph-name="six.superior" unicode="&#x2076;" 
d="M200 855l60 -44c-56 -31 -92 -62 -116 -106c15 5 26 6 39 6c71 0 124 -44 124 -107c0 -31 -13 -57 -39 -80c-25 -23 -58 -34 -97 -34c-80 0 -141 51 -141 132c0 85 55 168 170 233zM225 604c0 31 -22 52 -59 52c-23 0 -54 -10 -54 -46c0 -37 27 -58 59 -58s54 21 54 52z
" />
    <glyph glyph-name="seven.superior" unicode="&#x2077;" 
d="M41 847h287v-5l-183 -352l-80 23l138 267h-162v67z" />
    <glyph glyph-name="eight.superior" unicode="&#x2078;" 
d="M253 675c39 -18 58 -46 58 -83c0 -59 -57 -102 -144 -102c-85 0 -145 44 -145 103c0 33 20 65 59 82c-31 19 -49 44 -49 77c0 57 58 101 137 101c81 0 134 -45 134 -101c0 -33 -17 -58 -50 -77zM224 598c0 27 -22 48 -58 48c-35 0 -57 -20 -57 -49c0 -31 26 -49 58 -49
c35 0 57 19 57 50zM218 749c0 25 -19 45 -51 45s-50 -20 -50 -45c0 -27 23 -46 51 -46c27 0 50 18 50 46z" />
    <glyph glyph-name="nine.superior" unicode="&#x2079;" 
d="M307 720c0 -43 -16 -87 -49 -130c-32 -43 -73 -76 -123 -100l-59 42c56 31 96 69 116 108l-19 -5c-6 -1 -13 -2 -22 -2c-35 0 -65 11 -88 32s-35 46 -35 75c0 30 13 56 38 79c26 23 58 35 97 35c87 0 144 -57 144 -134zM223 733c0 25 -17 59 -58 59
c-35 0 -55 -24 -55 -53c0 -28 26 -50 57 -50c33 0 56 16 56 44z" />
    <glyph glyph-name="uni207A" unicode="&#x207a;" 
d="M37 638v68h96v101h68v-101h96v-68h-96v-101h-68v101h-96z" />
    <glyph glyph-name="uni207B" unicode="&#x207b;" 
d="M37 636v69h260v-69h-260z" />
    <glyph glyph-name="uni207C" unicode="&#x207c;" 
d="M37 694v69h260v-69h-260zM37 569v68h260v-68h-260z" />
    <glyph glyph-name="uni207D" unicode="&#x207d;" horiz-adv-x="224" 
d="M155 893h61c-56 -71 -82 -140 -82 -237c0 -92 29 -171 82 -235h-61c-69 69 -108 151 -108 236c0 95 41 164 108 236z" />
    <glyph glyph-name="uni207E" unicode="&#x207e;" horiz-adv-x="224" 
d="M8 893h62c65 -72 107 -141 107 -236c0 -87 -42 -171 -107 -236h-62c55 65 82 143 82 235c0 97 -26 166 -82 237z" />
    <glyph glyph-name="n.superior" unicode="&#x207f;" horiz-adv-x="351" 
d="M310 581v-176h-86v160c0 40 -21 53 -44 53c-21 0 -38 -12 -51 -37v-176h-86v277h86v-32c24 29 59 38 86 38c60 0 95 -39 95 -107z" />
    <glyph glyph-name="zero.inferior" unicode="&#x2080;" 
d="M166 -170c-85 0 -144 69 -144 181c0 115 62 182 146 182c41 0 75 -17 102 -50s41 -76 41 -131c0 -112 -61 -182 -145 -182zM225 11c0 83 -25 120 -60 120s-57 -44 -57 -120c0 -79 22 -118 58 -118s59 46 59 118z" />
    <glyph glyph-name="one.inferior" unicode="&#x2081;" 
d="M176 187h48v-352h-86v229l-48 -38l-41 55z" />
    <glyph glyph-name="two.inferior" unicode="&#x2082;" 
d="M25 -165v10c27 26 62 62 104 109c43 47 64 86 64 117c0 35 -24 55 -60 55c-35 0 -68 -20 -97 -55v84c39 28 73 38 112 38c72 0 131 -43 131 -111c0 -59 -47 -117 -111 -181h140v-66h-283z" />
    <glyph glyph-name="three.inferior" unicode="&#x2083;" 
d="M229 21c36 -17 54 -45 54 -84c0 -60 -55 -107 -134 -107c-36 0 -73 8 -106 23v73c35 -21 64 -32 95 -32c35 0 57 17 57 45c0 31 -20 48 -83 49v58h8c47 0 71 15 71 44c0 25 -22 43 -58 43c-27 0 -54 -8 -79 -23v64c35 13 59 19 92 19c79 0 130 -38 130 -97
c0 -31 -12 -55 -47 -75z" />
    <glyph glyph-name="four.inferior" unicode="&#x2084;" 
d="M213 191h52v-199h46v-56h-46v-101h-81v101h-171v41zM184 -8v88l-81 -88h81z" />
    <glyph glyph-name="five.inferior" unicode="&#x2085;" 
d="M74 187h204v-62h-130l-2 -72c95 0 146 -45 146 -108c0 -68 -56 -115 -143 -115c-40 0 -77 9 -110 24v68c31 -17 64 -28 93 -28c43 0 72 22 72 53c0 35 -34 54 -85 55c-20 0 -33 -1 -52 -8z" />
    <glyph glyph-name="six.inferior" unicode="&#x2086;" 
d="M200 195l60 -44c-56 -29 -92 -62 -116 -106c15 5 26 6 39 6c71 0 124 -44 124 -107c0 -31 -13 -57 -39 -80c-25 -23 -58 -34 -97 -34c-80 0 -141 52 -141 133c0 84 57 168 170 232zM225 -56c0 31 -22 52 -59 52c-24 0 -54 -10 -54 -45c0 -39 27 -59 59 -59s54 23 54 52z
" />
    <glyph glyph-name="seven.inferior" unicode="&#x2087;" 
d="M41 188h286v-4l-182 -353l-80 22l138 268h-162v67z" />
    <glyph glyph-name="eight.inferior" unicode="&#x2088;" 
d="M253 15c39 -18 58 -46 58 -83c0 -59 -57 -102 -144 -102c-85 0 -145 44 -145 103c0 33 20 65 59 82c-31 19 -49 44 -49 77c0 57 58 101 137 101c81 0 134 -45 134 -101c0 -33 -17 -58 -50 -77zM224 -62c0 28 -22 48 -58 48c-35 0 -57 -20 -57 -48c0 -31 26 -50 58 -50
c35 0 57 21 57 50zM218 89c0 25 -19 45 -51 45s-50 -20 -50 -45c0 -27 23 -46 51 -46c27 0 50 18 50 46z" />
    <glyph glyph-name="nine.inferior" unicode="&#x2089;" 
d="M307 61c0 -44 -17 -88 -50 -131s-73 -77 -122 -100l-59 42c56 31 96 69 116 109c-15 -5 -24 -7 -41 -7c-69 0 -123 47 -123 107c0 31 13 57 39 79c26 23 58 34 96 34c87 0 144 -58 144 -133zM223 74c0 27 -17 58 -58 58c-35 0 -55 -24 -55 -52c0 -29 26 -51 57 -51
c33 0 56 17 56 45z" />
    <glyph glyph-name="uni208A" unicode="&#x208a;" 
d="M37 -13v68h96v101h68v-101h96v-68h-96v-101h-68v101h-96z" />
    <glyph glyph-name="uni208B" unicode="&#x208b;" 
d="M37 -14v69h260v-69h-260z" />
    <glyph glyph-name="uni208C" unicode="&#x208c;" 
d="M37 44v69h260v-69h-260zM37 -81v68h260v-68h-260z" />
    <glyph glyph-name="uni208D" unicode="&#x208d;" horiz-adv-x="224" 
d="M155 243h61c-56 -71 -82 -140 -82 -237c0 -92 29 -171 82 -235h-61c-69 69 -108 151 -108 236c0 95 41 164 108 236z" />
    <glyph glyph-name="uni208E" unicode="&#x208e;" horiz-adv-x="224" 
d="M8 243h62c65 -72 107 -141 107 -236c0 -87 -42 -171 -107 -236h-62c55 65 82 143 82 235c0 97 -26 166 -82 237z" />
    <glyph glyph-name="uni0E3F" unicode="&#xe3f;" horiz-adv-x="549" 
d="M295 746v-65c129 -7 193 -77 193 -173c0 -71 -36 -116 -100 -143c84 -29 131 -93 131 -169c0 -125 -88 -191 -224 -195v-79h-69v78h-176v682h176v64h69zM295 298v-203c61 7 98 38 98 102c0 57 -34 94 -98 101zM169 94h57v206h-57v-206zM169 588v-196h57v196h-57zM295 586
v-192c52 11 76 51 76 99c0 55 -25 86 -76 93z" />
    <glyph glyph-name="uni20A0" unicode="&#x20a0;" horiz-adv-x="668" 
d="M340 456h285v-85h-180v-100h173v-81h-173v-105h185v-85h-290v235c-27 -7 -54 -11 -81 -11c-66 0 -120 21 -162 64s-63 99 -63 168c0 70 21 127 64 170s100 65 170 65c55 0 100 -11 139 -28v-104c-39 26 -83 39 -132 39c-85 0 -132 -58 -132 -143c0 -89 51 -138 130 -138
c20 0 43 4 67 15v124z" />
    <glyph glyph-name="colonmonetary" unicode="&#x20a1;" horiz-adv-x="530" 
d="M164 -78l14 108c-100 57 -143 173 -143 312c0 88 20 163 59 224c39 62 94 101 163 116l8 64h62l-7 -56l11 1c16 0 32 -1 48 -4l8 59h61l-8 -70c20 -5 39 -12 62 -21l-23 -105l-26 12l-26 10l-60 -475c47 6 91 27 133 63v-119c-43 -31 -86 -45 -145 -49l-8 -70h-62l9 71
c-20 2 -40 6 -59 12l-9 -83h-62zM308 585l-59 -468c17 -11 36 -17 57 -20l61 488c-11 2 -22 3 -33 3c-9 0 -18 -1 -26 -3zM195 176l48 386c-53 -37 -83 -117 -83 -221c0 -59 8 -118 35 -165z" />
    <glyph glyph-name="uni20A2" unicode="&#x20a2;" horiz-adv-x="530" 
d="M518 422l-35 -113c-15 25 -35 42 -51 42c-35 0 -61 -53 -72 -129v-122c31 7 65 18 113 45v-109c-51 -29 -99 -42 -156 -42c-177 0 -283 126 -283 342c0 109 26 196 77 259c52 64 122 96 210 96c51 0 106 -9 157 -36l-23 -106c-41 27 -87 38 -130 38
c-109 0 -174 -89 -174 -246c0 -120 32 -197 97 -226v341h112v-95c27 75 57 104 90 104c23 0 45 -12 68 -43z" />
    <glyph glyph-name="franc" unicode="&#x20a3;" horiz-adv-x="530" 
d="M371 126h-153v-126h-124v126h-82v87h82v469h384v-101h-260v-170h260v-101h-260v-97h153v-87z" />
    <glyph glyph-name="lira" unicode="&#x20a4;" horiz-adv-x="530" 
d="M46 432h126c60 179 141 259 249 259c13 0 30 -2 41 -5l61 -120c-13 8 -47 15 -74 15c-65 0 -113 -48 -150 -149h86v-75h-111l-19 -67h130v-75h-149l-27 -100c13 3 25 4 45 4c71 0 121 -17 164 -17c32 0 59 4 90 21v-115c-35 -12 -56 -17 -96 -17c-84 0 -134 17 -190 17
s-106 -4 -169 -17l59 224h-66v75h85l19 67h-104v75z" />
    <glyph glyph-name="uni20A5" unicode="&#x20a5;" horiz-adv-x="846" 
d="M597 632l-81 -182c27 17 57 25 89 25c100 0 151 -65 151 -182v-293h-116v281c0 64 -28 98 -77 98c-35 0 -71 -21 -96 -58v-321h-116v91l-125 -280h-63l188 420v55c0 63 -26 94 -77 94c-38 0 -70 -20 -96 -59v-321h-116v466h116v-60c43 48 84 69 139 69
c49 0 93 -19 120 -59l98 216h62z" />
    <glyph glyph-name="uni20A6" unicode="&#x20a6;" horiz-adv-x="632" 
d="M622 319v-75h-66v-244h-111l-130 244h-124v-244h-115v244h-66v75h66v67h-66v75h66v221h113l122 -221h130v221h115v-221h66v-75h-66v-67h66zM353 386l37 -67h51v67h-88zM191 386v-67h84l-36 67h-48zM432 244l9 -16v16h-9zM191 476v-15h8z" />
    <glyph glyph-name="peseta" unicode="&#x20a7;" horiz-adv-x="1191" 
d="M74 682h165c152 0 235 -76 235 -199c0 -9 -1 -16 -2 -23h51v98l116 53v-152h137v-93h-137v-193c0 -47 9 -83 58 -83c33 0 66 14 93 33v-97c-35 -21 -87 -35 -124 -35c-96 0 -144 53 -144 174v201h-82c-39 -55 -107 -83 -206 -83h-36v-283h-124v682zM1128 436v-99
c-53 33 -92 48 -131 48s-54 -16 -54 -33c0 -22 21 -43 63 -63c85 -40 146 -90 146 -161c0 -79 -64 -137 -167 -137c-51 0 -104 8 -161 35v103c43 -31 99 -49 142 -49c47 0 67 19 67 39c0 21 -19 42 -57 61c-37 20 -72 42 -104 67s-48 59 -48 100c0 37 15 68 45 92
s68 36 114 36c49 0 100 -12 145 -39zM198 582v-198h19c99 0 130 36 130 99c0 68 -35 99 -132 99h-17z" />
    <glyph glyph-name="uni20A8" unicode="&#x20a8;" horiz-adv-x="908" 
d="M340 313c33 -15 61 -47 102 -124l98 -189h-143l-81 162c-39 79 -66 125 -113 125h-5v-287h-124v682h165c148 0 235 -61 235 -196c0 -100 -50 -152 -134 -173zM845 436v-99c-49 35 -92 48 -132 48c-39 0 -54 -16 -54 -33c0 -22 21 -43 64 -63c85 -39 145 -89 145 -161
c0 -84 -59 -137 -166 -137c-51 0 -105 8 -161 35v103c43 -31 100 -49 141 -49c47 0 67 19 67 36c0 23 -21 46 -62 67c-41 22 -76 45 -105 69c-28 24 -42 56 -42 95c0 75 63 128 159 128c51 0 100 -13 146 -39zM198 582v-198h25c93 0 124 36 124 99c0 68 -35 99 -124 99h-25z
" />
    <glyph glyph-name="uni20A9" unicode="&#x20a9;" horiz-adv-x="689" 
d="M682 319v-75h-84l-52 -253h-117l-45 253h-84l-46 -253h-117l-50 253h-80v75h65l-14 67h-51v75h36l-43 221h131l35 -221h80l42 221h113l39 -221h81l37 221h131l-46 -221h39v-75h-54l-14 -67h68zM327 386l-13 -67h57l-12 67h-32zM454 386l12 -67h31l11 67h-54zM178 386
l11 -67h29l13 67h-53zM481 236h2l1 8h-5zM342 469l-2 -8h5l-1 8h-2zM202 243h2v1h-2v-1z" />
    <glyph glyph-name="shekel" unicode="&#x20aa;" horiz-adv-x="733" 
d="M62 466h262c124 0 184 -64 184 -180v-130h-110v132c0 60 -36 83 -84 83h-142v-371h-110v466zM492 0h-262v310h110v-216h140c49 0 86 23 86 87v285h110v-286c0 -116 -59 -180 -184 -180z" />
    <glyph glyph-name="dong" unicode="&#x20ab;" horiz-adv-x="530" 
d="M352 682h117v-76h64v-62h-64v-544h-182c-168 0 -252 77 -252 241c0 68 20 124 61 168s92 66 155 66c41 0 70 -9 101 -25v94h-105v62h105v76zM302 94h50v264c-27 17 -48 23 -79 23c-71 0 -117 -54 -117 -141c0 -100 37 -146 146 -146zM72 -67h397v-83h-397v83z" />
    <glyph glyph-name="Euro" unicode="&#x20ac;" horiz-adv-x="614" 
d="M583 655l-23 -109c-60 27 -99 38 -150 38c-87 0 -141 -49 -168 -137h279l-13 -76h-279c0 -5 0 -10 -1 -15v-31c0 -5 0 -11 1 -16h271l-13 -74h-246c27 -91 85 -136 166 -136c63 0 121 22 174 65v-123c-51 -35 -103 -50 -186 -50c-149 0 -252 88 -287 244h-77l13 74h57
c0 5 0 11 -1 17v33c0 5 0 9 1 12h-70l13 76h66c36 151 142 244 293 244c59 0 113 -9 180 -36z" />
    <glyph glyph-name="uni20AD" unicode="&#x20ad;" horiz-adv-x="530" 
d="M458 305h-124l196 -305h-140l-185 305h-18v-305h-123v305h-64v87h64v290h123v-290h18l187 290h134l-196 -290h128v-87z" />
    <glyph glyph-name="uni20AE" unicode="&#x20ae;" horiz-adv-x="530" 
d="M205 405v172h-193v105h507v-105h-193v-127l134 52v-85l-134 -53v-81l134 53v-86l-134 -52v-198h-121v153l-135 -52v85l135 52v81l-135 -52v85z" />
    <glyph glyph-name="uni20AF" unicode="&#x20af;" horiz-adv-x="1142" 
d="M587 -199l92 427c33 157 110 246 243 246c111 0 184 -73 184 -200c0 -80 -25 -148 -74 -203s-112 -83 -188 -83c-40 0 -74 8 -98 23l-44 -210h-115zM794 220l-26 -118c17 -12 42 -17 73 -17c41 0 76 19 103 57c28 39 42 84 42 137c0 64 -27 99 -70 99
c-60 0 -97 -45 -122 -158zM74 554v104c45 19 112 31 171 34c27 57 61 97 104 128l67 -70c-19 -15 -39 -39 -52 -62c82 -11 148 -43 197 -97s74 -122 74 -205c0 -117 -41 -211 -124 -281s-197 -105 -343 -105h-184v78c52 19 91 57 118 115c27 59 46 123 59 194s29 140 48 207
c-43 -7 -90 -19 -135 -40zM330 592c-7 -25 -14 -53 -20 -85l-21 -111c-25 -141 -57 -235 -125 -299c106 0 189 26 249 77c61 52 91 123 91 212c0 132 -66 198 -174 206z" />
    <glyph glyph-name="uni20B0" unicode="&#x20b0;" horiz-adv-x="530" 
d="M210 316l35 39c-73 61 -111 113 -111 181c0 88 66 155 171 155s167 -63 167 -152c0 -44 -16 -94 -72 -158c76 -65 110 -128 110 -196c0 -119 -87 -195 -244 -195c-53 0 -103 12 -150 35v116c47 -37 96 -50 143 -50c91 0 126 35 126 94c0 29 -15 70 -62 110l-112 -118
l-80 82l-56 -77l-77 64l123 164zM321 439c35 39 40 65 40 98s-18 59 -53 59c-39 0 -57 -27 -57 -59s23 -63 70 -98z" />
    <glyph glyph-name="uni20B1" unicode="&#x20b1;" horiz-adv-x="530" 
d="M0 551h64v131h185c111 0 186 -47 217 -131h64v-67h-49c0 -5 0 -9 1 -14v-31c0 -5 0 -11 -1 -16h49v-66h-65c-31 -84 -105 -129 -221 -129h-54v-228h-126v357h-64v66h64v61h-64v67zM357 439v32l-2 13h-165v-61h165zM190 593v-42h142c-19 28 -54 42 -103 42h-39zM190 317
h42c49 0 80 13 99 40h-141v-40z" />
    <glyph glyph-name="uni20B2" unicode="&#x20b2;" horiz-adv-x="630" 
d="M383 746v-58c60 -3 113 -16 168 -41v-108c-56 27 -119 39 -168 42v-232h184v-316c-53 -23 -127 -35 -184 -38v-73h-83v73c-79 13 -142 51 -188 114s-69 143 -69 239c0 189 97 315 257 339v59h83zM300 105v472c-84 -20 -131 -101 -131 -234c0 -121 48 -211 131 -238z
M450 249h-67v-148c23 0 46 4 67 8v140z" />
    <glyph glyph-name="uni20B3" unicode="&#x20b3;" horiz-adv-x="530" 
d="M520 202v-74h-32l37 -128h-128l-34 128h-196l-34 -128h-127l36 128h-32v74h53l20 68h-73v75h93l96 337h136l93 -337h92v-75h-71l19 -68h52zM204 270l-18 -68h159l-18 68h-123zM266 507l-43 -162h85z" />
    <glyph glyph-name="uni20B5" unicode="&#x20b5;" horiz-adv-x="530" 
d="M367 746v-57c40 -4 82 -15 121 -34l-23 -109c-32 20 -65 32 -98 36v-479c32 4 68 18 115 45v-112c-39 -23 -75 -35 -115 -39v-75h-82v74c-153 19 -242 141 -242 340c0 99 21 179 64 241s102 99 178 110v59h82zM285 108v467c-80 -25 -116 -113 -116 -234
c0 -133 39 -211 116 -233z" />
    <glyph glyph-name="uni20B9" unicode="&#x20b9;" horiz-adv-x="530" 
d="M68 286v81h86c79 0 112 31 123 82h-209v74h208c-11 52 -49 85 -125 85h-83v74h433v-74h-137c19 -23 31 -51 36 -85h101v-74h-101c-11 -79 -66 -125 -149 -146c45 -20 70 -51 109 -126l92 -177h-139l-80 161c-41 81 -80 125 -143 125h-22z" />
    <glyph glyph-name="uni20BA" unicode="&#x20ba;" horiz-adv-x="530" 
d="M363 462v-86l-143 -82v-188h16c100 0 137 75 137 224h129c0 -212 -89 -330 -265 -330h-141v232l-78 -44v85l78 44v81l-78 -44v85l78 44v199h124v-136l143 82v-85l-143 -82v-81z" />
    <glyph glyph-name="uni20BC" unicode="&#x20bc;" horiz-adv-x="720" 
d="M421 682v-115c89 -13 155 -65 196 -155c42 -89 63 -227 63 -412h-124c0 157 -10 269 -31 338s-55 111 -104 126v-366h-121v366c-48 -15 -83 -56 -104 -124s-31 -181 -31 -340h-124c0 348 75 528 259 567v115h121z" />
    <glyph glyph-name="uni20BD" unicode="&#x20bd;" horiz-adv-x="530" 
d="M16 362h66v320h182c147 0 235 -76 235 -208c0 -136 -87 -202 -236 -202h-58v-59h160v-90h-160v-123h-123v123h-66v90h66v59h-66v90zM205 591v-229h44c81 0 121 33 121 114c0 71 -35 115 -128 115h-37z" />
    <glyph glyph-name="uni2105" unicode="&#x2105;" horiz-adv-x="708" 
d="M288 673v-79c-33 16 -59 22 -83 22c-53 0 -79 -36 -79 -80c0 -48 28 -81 79 -81c39 0 54 8 83 25v-77c-36 -15 -57 -22 -96 -22c-99 0 -159 65 -159 150c0 96 66 160 159 160c35 0 65 -6 96 -18zM525 692h83l-462 -701h-83zM347 147c0 44 15 81 45 110
c30 30 69 45 118 45c47 0 86 -15 117 -44s47 -66 47 -111s-16 -83 -47 -112s-70 -43 -117 -43c-100 0 -163 66 -163 155zM510 228c-43 0 -72 -29 -72 -80s28 -82 72 -82c41 0 73 29 73 82s-30 80 -73 80z" />
    <glyph glyph-name="uni2113" unicode="&#x2113;" horiz-adv-x="530" 
d="M44 192l103 92v216c0 133 59 193 166 193c93 0 143 -49 143 -133c0 -95 -60 -183 -191 -288v-109c0 -57 14 -88 63 -88c33 0 76 21 115 58l37 -71c-55 -44 -108 -73 -185 -73c-101 0 -146 44 -146 144v65l-63 -58zM265 517v-156c76 76 105 134 105 194
c0 43 -17 64 -50 64c-35 0 -55 -34 -55 -102z" />
    <glyph glyph-name="uni2116" unicode="&#x2116;" horiz-adv-x="1135" 
d="M74 0v682h110l379 -481v309c0 124 48 172 169 172h53v-103h-37c-41 0 -59 -21 -59 -69v-510h-113l-376 477v-477h-126zM1110 344c0 -47 -17 -86 -50 -118c-33 -31 -74 -47 -122 -47s-89 16 -123 47c-33 32 -50 71 -50 118s17 87 50 118s74 47 122 47c49 0 90 -16 123 -48
s50 -71 50 -117zM1017 344c0 47 -34 82 -79 82s-81 -35 -81 -82c0 -45 34 -82 81 -82c44 0 79 35 79 82zM777 44v75h327v-75h-327z" />
    <glyph glyph-name="uni2117" unicode="&#x2117;" horiz-adv-x="795" 
d="M767 347c0 -97 -35 -180 -104 -250c-69 -69 -153 -104 -250 -104c-98 0 -182 35 -253 104c-70 70 -105 153 -105 250s35 181 105 251c71 70 155 105 252 105c96 0 179 -35 249 -104c71 -69 106 -153 106 -252zM724 348c0 86 -31 160 -92 221s-134 92 -219 92
c-87 0 -161 -31 -223 -93c-61 -61 -92 -135 -92 -221s31 -160 93 -221c63 -61 137 -91 222 -91s158 31 219 92s92 135 92 221zM275 152v396h172c88 0 143 -48 143 -128c0 -76 -49 -132 -144 -132h-81v-136h-90zM365 358h47c55 0 82 20 82 61c0 39 -26 59 -79 59h-50v-120z
" />
    <glyph glyph-name="trademark" unicode="&#x2122;" horiz-adv-x="937" 
d="M170 290v324h-138v68h356v-68h-137v-324h-81zM446 290v392h119l90 -266l89 266h118v-392h-77v302l-100 -302h-63l-98 302v-302h-78z" />
    <glyph glyph-name="Omega" unicode="&#x2126;" horiz-adv-x="786" 
d="M54 0v108h149c-108 79 -159 157 -159 285c0 88 32 160 96 215c65 55 149 83 253 83c105 0 189 -28 253 -85c64 -56 96 -127 96 -213c0 -128 -49 -206 -160 -285h150v-108h-281v106c103 68 157 148 157 269s-82 200 -217 200c-65 0 -117 -19 -156 -56
c-38 -37 -57 -85 -57 -142c0 -105 40 -194 155 -271v-106h-279z" />
    <glyph glyph-name="estimated" unicode="&#x212e;" horiz-adv-x="830" 
d="M793 324h-608c-7 0 -10 -4 -10 -11v-197c64 -68 152 -106 240 -106c100 0 191 48 252 121h57c-76 -92 -193 -142 -309 -142c-103 0 -192 33 -267 98s-112 146 -112 243c0 95 36 175 109 241c73 67 163 100 270 100c104 0 193 -34 267 -101s111 -149 111 -246zM175 543
v-185c0 -7 3 -11 10 -11h461c6 0 9 4 9 11v184c-60 69 -151 108 -240 108c-93 0 -181 -39 -240 -107z" />
    <glyph glyph-name="oneeighth" unicode="&#x215b;" horiz-adv-x="793" 
d="M176 682h48v-352h-86v229l-48 -38l-41 55zM566 691h78l-457 -717h-78zM712 180c39 -18 58 -46 58 -83c0 -59 -57 -102 -144 -102c-85 0 -145 44 -145 103c0 33 20 65 59 82c-31 19 -49 44 -49 77c0 57 58 101 137 101c81 0 134 -45 134 -101c0 -33 -17 -58 -50 -77z
M683 103c0 28 -22 48 -58 48c-35 0 -57 -20 -57 -48c0 -31 26 -50 58 -50c35 0 57 21 57 50zM677 254c0 25 -19 45 -51 45s-50 -20 -50 -45c0 -27 23 -46 51 -46c27 0 50 18 50 46z" />
    <glyph glyph-name="threeeighths" unicode="&#x215c;" horiz-adv-x="793" 
d="M568 691h78l-457 -717h-78zM712 180c39 -18 58 -46 58 -83c0 -59 -57 -102 -144 -102c-85 0 -145 44 -145 103c0 33 20 65 59 82c-31 19 -49 44 -49 77c0 57 58 101 137 101c81 0 134 -45 134 -101c0 -33 -17 -58 -50 -77zM683 103c0 28 -22 48 -58 48
c-35 0 -57 -20 -57 -48c0 -31 26 -50 58 -50c35 0 57 21 57 50zM677 254c0 25 -19 45 -51 45s-50 -20 -50 -45c0 -27 23 -46 51 -46c27 0 50 18 50 46zM229 516c36 -17 54 -45 54 -84c0 -60 -55 -107 -134 -107c-36 0 -73 8 -106 23v73c33 -21 64 -32 95 -32
c35 0 57 16 57 44c0 32 -20 49 -83 50v57h8c47 0 71 15 71 45c0 24 -22 43 -58 43c-27 0 -54 -8 -79 -23v64c35 13 59 19 92 19c79 0 130 -38 130 -97c0 -31 -12 -56 -47 -75z" />
    <glyph glyph-name="fiveeighths" unicode="&#x215d;" horiz-adv-x="793" 
d="M574 691h78l-457 -717h-78zM712 180c39 -18 58 -46 58 -83c0 -59 -57 -102 -144 -102c-85 0 -145 44 -145 103c0 33 20 65 59 82c-31 19 -49 44 -49 77c0 57 58 101 137 101c81 0 134 -45 134 -101c0 -33 -17 -58 -50 -77zM683 103c0 28 -22 48 -58 48
c-35 0 -57 -20 -57 -48c0 -31 26 -50 58 -50c35 0 57 21 57 50zM677 254c0 25 -19 45 -51 45s-50 -20 -50 -45c0 -27 23 -46 51 -46c27 0 50 18 50 46zM74 682h204v-62h-130l-2 -72c95 0 146 -45 146 -109c0 -68 -56 -114 -143 -114c-40 0 -77 9 -110 24v68
c31 -17 64 -28 93 -28c43 0 72 21 72 52c0 35 -34 55 -85 56c-20 0 -33 -2 -52 -9z" />
    <glyph glyph-name="seveneighths" unicode="&#x215e;" horiz-adv-x="793" 
d="M549 691h78l-457 -717h-78zM712 180c39 -18 58 -46 58 -83c0 -59 -57 -102 -144 -102c-85 0 -145 44 -145 103c0 33 20 65 59 82c-31 19 -49 44 -49 77c0 57 58 101 137 101c81 0 134 -45 134 -101c0 -33 -17 -58 -50 -77zM683 103c0 28 -22 48 -58 48
c-35 0 -57 -20 -57 -48c0 -31 26 -50 58 -50c35 0 57 21 57 50zM677 254c0 25 -19 45 -51 45s-50 -20 -50 -45c0 -27 23 -46 51 -46c27 0 50 18 50 46zM41 682h287v-5l-183 -352l-80 23l138 267h-162v67z" />
    <glyph glyph-name="Sevenroman" unicode="&#x2166;" horiz-adv-x="1207" 
d="M0 682h135l190 -452l188 452h134l-293 -688h-58zM721 682h132v-682h-132v682zM1001 682h132v-682h-132v682z" />
    <glyph glyph-name="partialdiff" unicode="&#x2202;" horiz-adv-x="565" 
d="M198 609l-25 86c32 20 81 36 137 36c137 0 218 -93 218 -261c0 -135 -29 -248 -86 -341s-129 -139 -214 -139c-119 0 -189 74 -189 197c0 91 24 165 73 222s108 86 175 86c55 0 101 -26 124 -67l3 34v30c0 85 -40 144 -117 144c-35 0 -72 -12 -99 -27zM397 331
c-19 48 -47 74 -95 74c-40 0 -74 -22 -103 -67c-29 -44 -43 -97 -43 -158c0 -63 28 -94 76 -94c76 0 136 90 165 245z" />
    <glyph glyph-name="increment" unicode="&#x2206;" horiz-adv-x="713" 
d="M0 0l300 686h114l299 -686h-713zM179 107h353l-176 418z" />
    <glyph glyph-name="product" unicode="&#x220f;" horiz-adv-x="727" 
d="M76 -231v915h575v-915h-118v816h-339v-816h-118z" />
    <glyph glyph-name="summation" unicode="&#x2211;" horiz-adv-x="645" 
d="M23 -231v59l295 411l-275 380v63h538v-99h-370l248 -342l-265 -373h409v-99h-580z" />
    <glyph glyph-name="minus" unicode="&#x2212;" horiz-adv-x="564" 
d="M45 292v105h474v-105h-474z" />
    <glyph glyph-name="uni2215" unicode="&#x2215;" horiz-adv-x="168" 
d="M273 691h78l-457 -717h-78z" />
    <glyph glyph-name="uni2219" unicode="&#x2219;" horiz-adv-x="239" 
d="M119 272c-40 0 -74 33 -74 74c0 43 35 74 74 74c40 0 74 -33 74 -73s-31 -75 -74 -75z" />
    <glyph glyph-name="radical" unicode="&#x221a;" horiz-adv-x="478" 
d="M406 730h85l-161 -742h-103l-113 308l-51 -33l-41 64l146 98l109 -297z" />
    <glyph glyph-name="infinity" unicode="&#x221e;" horiz-adv-x="737" 
d="M367 367h2c43 63 101 97 165 97c48 0 88 -16 120 -48c33 -32 49 -72 49 -121c0 -51 -16 -93 -49 -126s-72 -49 -118 -49c-67 0 -126 36 -167 97h-2c-47 -65 -104 -97 -164 -97c-48 0 -88 16 -121 48c-32 32 -48 74 -48 125c0 48 16 88 48 121s72 50 120 50
c64 0 122 -33 165 -97zM415 293c29 -55 67 -86 111 -86c49 0 80 36 80 87c0 49 -29 84 -80 84c-45 0 -78 -29 -111 -85zM321 293c-31 51 -68 85 -112 85c-47 0 -78 -35 -78 -86c0 -49 34 -85 79 -85c41 0 76 26 111 86z" />
    <glyph glyph-name="integral" unicode="&#x222b;" horiz-adv-x="471" 
d="M438 735l-24 -88c-15 5 -33 8 -45 8c-43 0 -64 -29 -64 -81v-613c0 -117 -56 -189 -165 -189c-25 0 -66 7 -82 14c7 32 14 62 22 89c13 -4 29 -7 44 -7c44 0 64 29 64 80v612c0 116 57 191 169 191c31 0 69 -9 81 -16z" />
    <glyph glyph-name="approxequal" unicode="&#x2248;" horiz-adv-x="564" 
d="M44 359v115c47 45 84 66 135 66c31 0 68 -13 112 -38s78 -37 103 -37c40 0 74 21 126 77v-115c-47 -44 -85 -66 -132 -66c-31 0 -69 12 -114 37c-44 25 -77 38 -100 38c-43 0 -83 -26 -130 -77zM44 141v115c47 45 84 66 135 66c31 0 68 -13 112 -38s78 -37 103 -37
c40 0 74 20 126 76v-115c-47 -44 -85 -66 -132 -66c-30 0 -68 13 -114 38c-45 25 -79 38 -100 38c-43 0 -83 -26 -130 -77z" />
    <glyph glyph-name="notequal" unicode="&#x2260;" horiz-adv-x="564" 
d="M87 44l57 121h-99v105h143l68 145h-211v105h256l55 119h114l-55 -119h104v-105h-150l-67 -145h217v-105h-261l-57 -121h-114z" />
    <glyph glyph-name="lessequal" unicode="&#x2264;" horiz-adv-x="564" 
d="M44 354v71l476 196v-110l-310 -121l310 -123v-110zM44 0v105h476v-105h-476z" />
    <glyph glyph-name="greaterequal" unicode="&#x2265;" horiz-adv-x="564" 
d="M520 425v-71l-476 -197v110l310 123l-310 121v110zM520 105v-105h-476v105h476z" />
    <glyph glyph-name="lozenge" unicode="&#x25ca;" horiz-adv-x="504" 
d="M222 689h59l186 -344l-186 -345h-59l-185 344zM251 574l-121 -229l121 -230l123 230z" />
    <glyph glyph-name="uniF8FF" unicode="&#xf8ff;" horiz-adv-x="512" 
d="M0 718h512v-718h-512v718zM50 50h412v617h-412v-617zM278 117h-56v67h56v-67zM271 234h-46l-2 17c0 42 6 72 18 91c13 19 31 40 55 63s36 46 36 69c0 48 -35 85 -76 85s-74 -27 -82 -95l-50 8c9 96 63 137 135 137s124 -51 124 -131c0 -40 -15 -74 -45 -102
s-49 -48 -56 -59s-11 -38 -11 -83z" />
    <glyph glyph-name="fi" unicode="&#xfb01;" horiz-adv-x="544" 
d="M321 681v-97c-16 7 -32 9 -51 9c-47 0 -75 -27 -75 -107v-20h96v-93h-96v-373h-118v373h-69v93h69v17c0 132 67 207 176 207c23 0 46 -3 68 -9zM423 536c-33 0 -59 29 -59 60s24 59 59 59c33 0 60 -27 60 -59c0 -33 -27 -60 -60 -60zM365 466h117v-466h-117v466z" />
    <glyph glyph-name="fl" unicode="&#xfb02;" horiz-adv-x="544" 
d="M321 681v-96c-19 7 -32 8 -51 8c-47 0 -75 -27 -75 -107v-20h96v-93h-96v-373h-118v373h-69v93h69v17c0 131 63 207 176 207c27 0 45 -2 68 -9zM365 682h117v-682h-117v682z" />
    <glyph glyph-name="uniFEFF" unicode="&#xfeff;" horiz-adv-x="0" 
 />
    <glyph glyph-name="arrowleft" unicode="&#x2190;" horiz-adv-x="1000" 
d="M332 77h-38c-36 41 -68 72 -97 95c-28 23 -63 46 -104 69v23c37 19 70 40 100 64c30 25 64 58 101 100h38c-27 -55 -47 -90 -82 -133h657v-86h-657c39 -48 58 -83 82 -132z" />
    <glyph glyph-name="arrowup" unicode="&#x2191;" horiz-adv-x="500" 
d="M75 575v37c47 42 81 77 102 105c22 28 43 60 62 97h22c21 -39 42 -73 65 -101s57 -62 100 -101v-37c-60 28 -96 50 -133 81v-656h-85v656c-25 -19 -47 -33 -64 -44s-40 -23 -69 -37z" />
    <glyph glyph-name="arrowright" unicode="&#x2192;" horiz-adv-x="1000" 
d="M668 428h37c46 -51 82 -86 109 -107c27 -20 58 -39 93 -58v-22c-39 -21 -73 -43 -102 -66s-62 -56 -100 -98h-37c32 67 53 97 81 132h-656v86h656l-24 32c-23 31 -34 53 -57 101z" />
    <glyph glyph-name="arrowdown" unicode="&#x2193;" horiz-adv-x="500" 
d="M425 239v-37c-41 -37 -73 -70 -97 -99s-46 -63 -67 -103h-22c-21 39 -43 73 -66 101s-56 62 -99 101v37c56 -27 86 -45 133 -81v656h85v-656c25 18 45 32 62 43s41 23 71 38z" />
    <glyph glyph-name="arrowboth" unicode="&#x2194;" horiz-adv-x="1000" 
d="M250 295h499l-24 32c-21 28 -37 58 -57 101h37c46 -51 82 -86 109 -107c27 -20 58 -39 93 -58v-22c-39 -21 -73 -43 -102 -66s-62 -56 -100 -98h-37l20 41c19 36 36 60 61 91h-499c39 -48 58 -83 82 -132h-38c-36 41 -68 72 -97 95c-28 23 -63 46 -104 69v23
c37 19 70 40 100 64c30 25 64 58 101 100h38c-27 -55 -47 -90 -82 -133z" />
    <glyph glyph-name="arrowupdn" unicode="&#x2195;" horiz-adv-x="500" 
d="M293 656v-498c23 17 42 31 59 42l33 18c12 7 26 14 41 21v-37c-45 -40 -79 -74 -102 -103s-44 -62 -63 -99h-22c-21 40 -43 74 -67 103s-56 62 -97 99v37c57 -28 89 -46 133 -81v498c-14 -12 -30 -24 -48 -36c-17 -11 -46 -26 -85 -45v37c41 37 74 69 97 98
c24 29 46 64 67 104h22c21 -40 44 -75 67 -104s56 -61 98 -98v-37c-30 14 -54 26 -71 35c-17 10 -37 25 -62 46z" />
    <glyph glyph-name="arrowupdnbse" unicode="&#x21a8;" horiz-adv-x="500" 
d="M292 656v-498c25 18 45 32 62 43s41 23 71 38v-37c-41 -37 -74 -70 -98 -99c-23 -29 -45 -63 -66 -103h-22c-20 38 -42 72 -66 101c-24 30 -57 64 -99 101v37c57 -28 89 -46 133 -81v498c-14 -12 -30 -24 -48 -36c-17 -11 -46 -26 -85 -45v37c92 83 133 141 165 202h22
c21 -39 42 -73 64 -102c23 -28 56 -61 100 -100v-37l-41 20c-33 16 -51 29 -92 61zM74 -121v85h351v-85h-351z" />
    <glyph glyph-name="orthogonal" unicode="&#x221f;" horiz-adv-x="1000" 
d="M940 0h-880v814h66v-748h814v-66z" />
    <glyph glyph-name="intersection" unicode="&#x2229;" horiz-adv-x="719" 
d="M642 287v-287h-71v291c0 41 -1 88 -4 142c-2 55 -20 103 -55 145c-34 43 -85 64 -153 64c-69 0 -121 -22 -156 -67s-52 -99 -53 -162l-1 -122v-291h-72v287c0 59 1 111 4 156s15 89 37 130c45 84 137 140 242 140c101 0 189 -45 238 -133c25 -43 38 -90 40 -140
c3 -49 4 -100 4 -153z" />
    <glyph glyph-name="equivalence" unicode="&#x2261;" horiz-adv-x="564" 
d="M45 122v102h474v-102h-474zM45 294v102h474v-102h-474zM45 466v102h474v-102h-474z" />
    <glyph glyph-name="house" unicode="&#x2302;" horiz-adv-x="600" 
d="M525 0h-450v310l225 253l225 -253v-310zM114 293v-253h372v253l-186 208z" />
    <glyph glyph-name="revlogicalnot" unicode="&#x2310;" horiz-adv-x="564" 
d="M520 502v-105h-366v-209h-107v314h473z" />
    <glyph glyph-name="integraltp" unicode="&#x2320;" horiz-adv-x="604" 
d="M337 -186h-70v785c0 71 14 125 43 161s62 54 99 54c44 0 68 -26 68 -53c0 -24 -19 -45 -43 -45c-20 0 -35 8 -45 24c-9 16 -18 24 -26 24c-27 0 -26 -31 -26 -87v-863z" />
    <glyph glyph-name="integralbt" unicode="&#x2321;" horiz-adv-x="604" 
d="M337 814v-785c0 -70 -14 -123 -43 -160c-28 -37 -61 -55 -99 -55c-45 0 -68 25 -68 53c0 25 20 45 43 45c19 0 34 -8 44 -24s19 -24 27 -24c9 0 16 4 20 13c4 8 6 33 6 74v863h70z" />
    <glyph glyph-name="SF100000" unicode="&#x2500;" horiz-adv-x="708" 
d="M709 270h-709v88h709v-88z" />
    <glyph glyph-name="SF110000" unicode="&#x2502;" horiz-adv-x="708" 
d="M398 -186h-88v1000h88v-1000z" />
    <glyph glyph-name="SF010000" unicode="&#x250c;" horiz-adv-x="708" 
d="M398 -186h-88v544h399v-88h-311v-456z" />
    <glyph glyph-name="SF030000" unicode="&#x2510;" horiz-adv-x="708" 
d="M398 -186h-88v456h-310v88h398v-544z" />
    <glyph glyph-name="SF020000" unicode="&#x2514;" horiz-adv-x="708" 
d="M709 270h-399v544h88v-456h311v-88z" />
    <glyph glyph-name="SF040000" unicode="&#x2518;" horiz-adv-x="708" 
d="M398 270h-398v88h310v456h88v-544z" />
    <glyph glyph-name="SF080000" unicode="&#x251c;" horiz-adv-x="708" 
d="M398 -186h-88v1000h88v-456h311v-88h-311v-456z" />
    <glyph glyph-name="SF090000" unicode="&#x2524;" horiz-adv-x="708" 
d="M398 -186h-88v456h-310v88h310v456h88v-1000z" />
    <glyph glyph-name="SF060000" unicode="&#x252c;" horiz-adv-x="708" 
d="M398 -186h-88v456h-310v88h709v-88h-311v-456z" />
    <glyph glyph-name="SF070000" unicode="&#x2534;" horiz-adv-x="708" 
d="M709 270h-709v88h310v456h88v-456h311v-88z" />
    <glyph glyph-name="SF050000" unicode="&#x253c;" horiz-adv-x="708" 
d="M398 -186h-88v456h-310v88h310v456h88v-456h311v-88h-311v-456z" />
    <glyph glyph-name="SF430000" unicode="&#x2550;" horiz-adv-x="708" 
d="M0 181v89h709v-89h-709zM709 358h-709v88h709v-88z" />
    <glyph glyph-name="SF240000" unicode="&#x2551;" horiz-adv-x="708" 
d="M310 814v-1000h-88v1000h88zM398 -186v1000h89v-1000h-89z" />
    <glyph glyph-name="SF510000" unicode="&#x2552;" horiz-adv-x="708" 
d="M398 -186h-88v632h399v-88h-311v-88h311v-89h-311v-367z" />
    <glyph glyph-name="SF520000" unicode="&#x2553;" horiz-adv-x="708" 
d="M310 270v-456h-88v544h487v-88h-222v-456h-89v456h-88z" />
    <glyph glyph-name="SF390000" unicode="&#x2554;" horiz-adv-x="708" 
d="M310 358v-544h-88v632h487v-88h-399zM487 -186h-89v456h311v-89h-222v-367z" />
    <glyph glyph-name="SF220000" unicode="&#x2555;" horiz-adv-x="708" 
d="M398 -186h-88v367h-310v89h310v88h-310v88h398v-632z" />
    <glyph glyph-name="SF210000" unicode="&#x2556;" horiz-adv-x="708" 
d="M310 270v-456h-88v456h-222v88h487v-544h-89v456h-88z" />
    <glyph glyph-name="SF250000" unicode="&#x2557;" horiz-adv-x="708" 
d="M310 270v-456h-88v367h-222v89h310zM487 -186h-89v544h-398v88h487v-632z" />
    <glyph glyph-name="SF500000" unicode="&#x2558;" horiz-adv-x="708" 
d="M709 181h-399v633h88v-368h311v-88h-311v-88h311v-89z" />
    <glyph glyph-name="SF490000" unicode="&#x2559;" horiz-adv-x="708" 
d="M709 270h-487v544h88v-456h88v456h89v-456h222v-88z" />
    <glyph glyph-name="SF380000" unicode="&#x255a;" horiz-adv-x="708" 
d="M709 181h-487v633h88v-544h399v-89zM709 446v-88h-311v456h89v-368h222z" />
    <glyph glyph-name="SF280000" unicode="&#x255b;" horiz-adv-x="708" 
d="M0 181v89h310v88h-310v88h310v368h88v-633h-398z" />
    <glyph glyph-name="SF270000" unicode="&#x255c;" horiz-adv-x="708" 
d="M487 270h-487v88h222v456h88v-456h88v456h89v-544z" />
    <glyph glyph-name="SF260000" unicode="&#x255d;" horiz-adv-x="708" 
d="M0 181v89h398v544h89v-633h-487zM310 358h-310v88h222v368h88v-456z" />
    <glyph glyph-name="SF360000" unicode="&#x255e;" horiz-adv-x="708" 
d="M398 -186h-88v1000h88v-368h311v-88h-311v-88h311v-89h-311v-367z" />
    <glyph glyph-name="SF370000" unicode="&#x255f;" horiz-adv-x="708" 
d="M310 -186h-88v1000h88v-1000zM487 -186h-89v1000h89v-456h222v-88h-222v-456z" />
    <glyph glyph-name="SF420000" unicode="&#x2560;" horiz-adv-x="708" 
d="M310 -186h-88v1000h88v-1000zM487 -186h-89v456h311v-89h-222v-367zM709 358h-311v456h89v-368h222v-88z" />
    <glyph glyph-name="SF190000" unicode="&#x2561;" horiz-adv-x="708" 
d="M398 -186h-88v367h-310v89h310v88h-310v88h310v368h88v-1000z" />
    <glyph glyph-name="SF200000" unicode="&#x2562;" horiz-adv-x="708" 
d="M310 -186h-88v456h-222v88h222v456h88v-1000zM487 -186h-89v1000h89v-1000z" />
    <glyph glyph-name="SF230000" unicode="&#x2563;" horiz-adv-x="708" 
d="M310 -186h-88v367h-222v89h310v-456zM487 -186h-89v1000h89v-1000zM310 358h-310v88h222v368h88v-456z" />
    <glyph glyph-name="SF470000" unicode="&#x2564;" horiz-adv-x="708" 
d="M0 181v89h709v-89h-311v-367h-88v367h-310zM709 358h-709v88h709v-88z" />
    <glyph glyph-name="SF480000" unicode="&#x2565;" horiz-adv-x="708" 
d="M222 270h-222v88h709v-88h-222v-456h-89v456h-88v-456h-88v456z" />
    <glyph glyph-name="SF410000" unicode="&#x2566;" horiz-adv-x="708" 
d="M0 181v89h310v-456h-88v367h-222zM709 358h-709v88h709v-88zM398 270h311v-89h-222v-367h-89v456z" />
    <glyph glyph-name="SF450000" unicode="&#x2567;" horiz-adv-x="708" 
d="M0 181v89h709v-89h-709zM709 358h-709v88h310v368h88v-368h311v-88z" />
    <glyph glyph-name="SF460000" unicode="&#x2568;" horiz-adv-x="708" 
d="M709 270h-709v88h222v456h88v-456h88v456h89v-456h222v-88z" />
    <glyph glyph-name="SF400000" unicode="&#x2569;" horiz-adv-x="708" 
d="M0 181v89h709v-89h-709zM310 358h-310v88h222v368h88v-456zM709 358h-311v456h89v-368h222v-88z" />
    </font>
</defs>
</svg>
